<?xml version="1.0" encoding="utf-8"?>
<!-- Generator: Adobe Illustrator 26.0.0, SVG Export Plug-In . SVG Version: 6.00 Build 0)  -->
<svg version="1.1" id="b5ecd551-b8d9-47b1-bd91-255ff33e7450"
	 xmlns="http://www.w3.org/2000/svg" xmlns:xlink="http://www.w3.org/1999/xlink" x="0px" y="0px" viewBox="0 0 1058 682.6"
	 style="enable-background:new 0 0 1058 682.6;" xml:space="preserve">
<style type="text/css">
	.st0{fill:#3A136D;}
	.st1{fill:#D5B59D;}
	.st2{fill:#DAFF00;}
	.st3{fill:#FCFBFD;}
	.st4{fill:#FCE2A8;}
	.st5{fill:#C07374;}
	.st6{fill:#ED9972;}
	.st7{fill:#FF000D;}
</style>
<path class="st0" d="M292.2,527.4c-0.9-4.7-1.8-9.5-1.9-14.3c-0.3-12,3.7-20,15.1-23.5c9.2-2.8,12.3-7.1,13.6-16.6
	c2.3-17.3,12.7-30.6,26.6-41.1c7.5-5.7,15.8-9.9,23.7-14.7c9.6-5.8,18.6-12.3,25.8-21c1.4-1.7,2.7-3.2-0.5-4.3
	c-17.7-6-26.4-19.9-31.5-36.7c-0.9-3-2.4-5.2-4.8-7.2c-21.2-16.7-29-39-26.9-65.3c0.5-6.5,4.6-9.7,12.1-9.3
	c7.4,0.4,14.4,2.5,21.1,5.7c2.8,1.3,4.5,1,6.2-1.5c1.2-1.8,2.7-3.5,4.4-4.7c5.5-3.6,7.1-8.1,5.3-14.6c-1.8-6.3-1.1-12.7,1-19
	c1.6-4.8,4.5-7.4,9.7-7.8c4.3-0.3,8.3,0.8,12.1,2.4c10.5,4.2,20,9.9,28.3,17.5c1.8,1.6,3.6,2.8,6.1,3c11,1,21.6,3.7,31.8,7.9
	c1.1,0.5,2.5,1.7,3.6,0.7c1.1-1,0.1-2.5-0.1-3.8c-3-17.6,7.7-34.8,25-39.8c7.8-2.3,15.9-3.8,23.4-6.9c2.1-0.9,4.5-1.3,6.3-3.6
	c-4.8-2.4-9.4-5.1-12.7-9.3c-8.1-10.3-7.1-22.4,2.8-31.1c4.2-3.7,9.2-6.1,14.4-7.7c12.3-3.8,21.7-11.4,28.6-22.1
	c3-4.6,6.3-8.9,10.1-12.8c10.1-10.3,22.5-10.9,35.1-6.6c12.1,4.1,21.8,11.7,26.6,24.2c1,2.6,2.6,3.5,5.1,3.9
	c16.5,2.3,31.4,8.4,44.4,18.9c2,1.7,3.5,1.2,5.4,0.2c8.8-4.5,18.6-5.2,28-4.6c16.4,1.1,30.7,15.8,34.1,32.9
	c2.3,11.6-0.6,22.5-3.9,33.3c-3.4,11.1-4.9,22.1-3,33.9c2.4,14.4-4.5,24.9-17.9,30.2c-1.7,0.7-3.3,0.8-2.7,3.6
	c3.9,17.8-4.7,30.1-18.3,39.9c-4.6,3.3-9.5,6.4-14.8,8.2c-8.6,3-11.8,10.7-7.3,19.4c8.3,15.9,19.9,29.1,32.3,41.6
	c11.8,12,23.4,24.2,32.3,38.6c8.8,14.1,14.1,29.2,13.2,46c-0.2,3.9,1.5,4.5,4.6,4.5c8.1-0.1,14.5-3.5,18.8-10.4
	c3.6-5.8,6.8-11.8,10.3-17.6c2-3.3,4.2-6.9,8.8-6.1c5,0.8,7.1,4.7,8,9.2c1,5,0.2,10-1.3,14.8c-6.9,21.1-20.6,34.9-42.6,39.9
	c-4.8,0.2-9.6,1.1-14.4,0.2c-1.8-0.3-2.7,0.8-3.6,2.1c-7.2,10.1-17.5,15.3-29.3,17.4c-26.5,4.6-53.1,3.2-79.7,1.2
	c-0.8-0.1-1.6-0.4-2.3-0.8c-5.2-3.3-9.4-7.6-11.5-14.3c-0.2,11.6-8.6,12.1-16.5,12.9c-10.9,1.1-22.1,2.6-32.9,0.8
	c-12.4-2.1-24.5-5.7-36.9-8.3c-6.7-1.4-9.1-8.3-6.7-14.8c0.6-1.5,1.4-3,2-4.5c5.7-4.8,12.7-8.2,11.7-18.1
	c-1.9-18.9-2.6-37.8-3.8-56.7c-0.1-1.9-0.5-3.5-1.6-5.1c-15.2-23.2-16.6-47.9-8.1-73.6c1.7-5.2,3.8-9.8-1.2-14.3
	c-1.1-1-1.8-2.9-2.1-4.5c-0.9-4.9-4.9-6.3-8.9-9.2c1.2,7,2.4,12.8,2.1,18.8c-0.3,6.5-3.5,10.2-10,11c-8.2,0.9-15.4-1.1-21-7.6
	c-0.8-0.9-1.1-3.5-3.1-2.1c-1.5,1.1-2.7,2.5-1.2,5c8.8,14.5,11.1,30.8,12.2,47.3c0.6,8-0.1,16,0.4,24c1.5,23.4,0.3,46.7-4.8,69.5
	c-1.7,7.4-0.2,11.5,6.1,14.6c1.4,2,3.1,3.9,4.2,6.1c2.5,5.1,2.7,10.3-0.6,15.1c-3.1,4.5-7.9,4.9-13,4.1c-3.9-0.6-7.9-1-11.9-1.3
	c-1.4-0.1-3.1-0.5-4.3,0.6c-4.4,4.1-10.1,4.7-15.6,5.5c-0.8,0.1-1.6,0.1-2.4,0.2c-3.2,0-6.4,0.1-9.7,0.1c-1.8-0.6-3.6-0.6-5.4-0.4
	c-3.6-0.8-7.2-1.4-10.6-2.5c-5.2-1.6-11.2-2.3-15.9-1.3c-11.8-0.2-23.7-0.6-35.5,0.2c-4.7,2.6-9.6,4.7-14.9,5.5
	c-20.3,3.1-40.1,0.9-59.4-5.5C299.6,538.8,294.7,534.4,292.2,527.4z M523.3,198.7c0.4,0.4,0.7,0.9,1.1,1.3c1.9,1.9,4.3,2.7,6.8,3.1
	c4.4,1.2,7.5-0.9,9.6-4.3c4.7-7.6,9.2-15.3,13.7-23c0.3-0.4,0.6-0.7,0.9-1.1c0.1-0.1,0.3-0.1,0.4-0.2c0.1-0.1,0-0.2,0-0.3
	c-0.1,0.2-0.3,0.3-0.4,0.5c-0.4,0.3-0.8,0.6-1.1,0.8c-2.8,0.7-3.9,3.6-6.4,4.6c-0.2-0.2-0.5-0.5-0.7-0.7c8.2-9.7,17.3-18,29.4-23
	c13.6-5.6,27.5-9.2,42.1-10.4c2.8,0,5.6,0.2,8.6-0.8c-2.5-6.5-6.8-11.4-12.3-15.3c-13.5-9.6-35-12.3-46.5,7.9c-2,3.4-4.6,6.5-7,9.7
	c-6.1,8.3-14.1,13.9-23.8,17.4c-3,1.1-5.9,2.3-8.8,3.4c-4.3,1.6-7.7,4.5-10.5,8.1c-4.2,5.4-4.1,12.4,0.1,17.8c0.4,0.5,0.8,1,1.3,1.6
	c0.2,0.8,0.7,1.3,1.5,1.4l-0.1-0.2c0.1,0.7,0.4,1,1.1,1.1l-0.1-0.1c0.1,0.7,0.5,1,1.1,1.1C523.3,198.8,523.3,198.7,523.3,198.7z
	 M485.5,234.5c-0.3,0.4-0.6,0.7-1,1.1l0,0c-0.9,0.7-1.5,1.6-1.4,2.8l0-0.1c-1.3,0.7-1.6,1.9-1.8,3.2c0,0,0.1-0.1,0.1-0.1
	c-0.3,0.6-0.7,1.3-1,1.9c-2.9,7.5-2.6,14.9,0.8,22.1c2.8,5.9,8.4,9.6,13.5,9.1c2.9-0.2,4.5-1,2.8-4.3c-1.3-2.5-2.1-5.2-3.2-7.8
	c-0.7-2.9-1.6-5.8-2.1-8.7c-2.6-15.5,6.1-21.4,19.9-18.6c12.3,2.4,21.8,10.4,28.6,21c3.8,6,2.4,12.3-3,16.9
	c-3.2,2.8-7.1,4.1-11.1,5.3c-5.3,0.4-10.6,1.6-15.9,0.5c-3.7-0.8-4,0.6-2.8,3.6c3.1,7.3,11.1,11,20.6,9.6c7.2-1.1,13.8-3.6,20.3-6.7
	c2.7-1.3,4.8-1.4,5.7,2.1c-0.1,0.2-0.2,0.5-0.1,0.7c-0.3,1.1-0.6,2.2-0.8,3.3c-3,9.3-7.5,17.5-15.1,23.8c-4.3,2.9-8.8,5.3-13.9,6.7
	c-1.4,0.4-3.7,0-3.9,2.3c-0.2,2,1.4,2.8,2.7,3.9c11,9,23.5,15.1,36.9,19.4c27.1,8.6,54.7,9,82.5,4.3c14.1-2.4,28-5.6,41-12
	c1-0.4,1.9-0.9,2.9-1.3c0.5-0.2,0.9-0.4,1.4-0.7c0.2,0,0.4-0.1,0.6-0.3c0.4-0.2,0.8-0.4,1.2-0.5l0.3-0.1c1-0.2,2-0.5,2.6-1.4
	c0.7-0.4,1.3-0.7,2-1.1c0.4-0.2,0.7-0.5,1.1-0.7c0,0,0.1,0,0.1,0c0.6-0.4,1.2-0.7,1.9-1.1c0,0,0,0,0,0c0.4-0.2,0.8-0.5,1.1-0.7
	c0,0,0.2-0.1,0.2-0.1c0.3-0.2,0.6-0.4,0.9-0.6l0.4-0.2c0.9-0.3,1.8-0.6,2.2-1.5l0.1-0.1c0.5-0.4,1-0.8,1.4-1.2l0.3-0.3
	c0.3,0,0.5-0.2,0.6-0.6c0.2,0,0.3-0.2,0.4-0.4c0.5-0.4,1-0.8,1.5-1.3c8.6-7.9,12.8-17.3,9.8-29.2c-0.7-2.8-2.2-3.9-5-3.4
	c-21.4-5.6-34.1-19.3-38.7-40.8c-1.8-8.5-1.4-17.1-1.5-25.7c0.2-1.2,0.5-2.3,0.7-3.5c0.1-0.5,0.3-1,0.4-1.5c0.4-1.3,0.7-2.6,1.1-3.8
	c3.3-11.2,9.2-20.6,19.2-26.9c1.8-1.1,4-2.7,5.6,0c1.5,2.5-0.5,3.8-2.4,5c-7.7,4.9-12.8,11.8-15.7,20.5c-4.3,11.8-4,23.9-1.4,35.8
	c4,18,14.4,30.4,33,34.7c13.7,3.1,25.3-6.3,25.3-20.4c-1.5-13.1-1.9-26.1,2.4-38.8c0.2-0.7,0.4-1.5,0.6-2.2c1-1.8,2.4-3.5,1.6-5.8
	l-0.2,0c2.8-1.7,1.8-4.8,2.3-7.3c3.5-18.2-4.9-35.8-20-42.8c-14.1-6.5-36.8-1-46.9,11.3l0,0.2c-1.4,0.1-1.6,1.2-1.9,2.2l0.1-0.1
	c-0.8,0.2-1.7,0.3-2.5,0.5c1-2.2,1.9-4.3,2.9-6.5c0.3-0.5,0.7-1,1-1.6l0,0.1c3.9-3.1,2.6-5.2-0.9-7.7c-21.4-14.8-45-19.1-70.4-14.7
	c-24.5,4.2-42.7,16.9-53.8,39.3c-3.5,7-8.1,13.3-14.5,18.4c1.7,1.4,3.1,2.6,4.5,3.7l0-0.1c0.4,0.7,0.7,1.4,1.1,2.1c0,0,0-0.1,0-0.1
	c0.2,2.2,0.5,4.5,0.7,6.7c-0.1,0.8-0.2,1.6-0.3,2.4c-0.1,0.6-0.2,1.2-0.3,1.9l-0.2,0.2c0,0,0.1,0.3,0.1,0.3c-0.6,0.5-1.2,1-1.8,1.6
	l-0.2,0.1c-1.2-0.2-2.4-0.3-3.6-0.5l0-0.1c0-0.3-0.2-0.5-0.5-0.5c-0.1-0.7-0.2-1.4-0.2-2.1c1.5-2.8,1.9-5.5-0.4-8.1l0.1-0.1
	c-2.5-3.7-6-3-9.3-1.6c-7.7,3.1-15.7,5.3-23.8,7.3c-6.3,1.6-12.3,3.9-16.3,9.6l0,0C485.8,233.5,485.5,233.9,485.5,234.5
	C485.4,234.5,485.5,234.5,485.5,234.5z M736.5,439.5c-0.1-0.6-0.3-1.1-1-1.1l0.2-0.1c-5.8-7.9-12-15.4-18.7-22.4
	c-6.5-6.8-13.1-13.4-19.4-20.3c-9.6-10.6-18-22.1-23.5-35.7c-0.8,0.6-1.4,0.9-1.8,1.3c-1.1,1-2.1,2.1-3.2,3.1
	c-2.9,1.9-5.8,3.9-8.8,5.6c-36.5,21.1-84.3,17.6-117.3-8.7c-2.5-2-3.4-1.8-4.3,1.1c-1.9,6.2-4,12.4-4.4,18.9
	c-0.3,1.3-0.7,2.6-0.7,3.9c-2.1,32.9,13.2,56.3,40.2,73.3c0.3,0.2,0.9,0,1.7,0c-0.3-6.1-0.7-12-1-18c0.6-5.7-1.4-11.4,0.1-17.1
	c1.2-0.1,2.5-0.1,3.7-0.2c0.3,0.2,0.5,0.4,0.8,0.6c1.2,4.7,0.8,9.6,1,14.4c0.9,22.7,1.9,45.4-1.4,68.1c-0.4,2.9-1.5,4.7-4.2,6.2
	c-3.8,2.1-8,4.2-9.3,9c0,0,0.1,0,0.1,0c-1.2,0.7-1.4,1.8-1.5,3c-1.3,8.3,1.6,12.4,10.1,12.9c13,0.8,25.9,0.3,38.9-1.2
	c3.8-0.4,5.7-2.2,6.6-6.1c7.5-35,13.2-70.2,19.1-105.5l0,0c4.1-1.6,5.6,0.3,5.1,4.2c-0.8,5.7-1.8,11.4-2.6,17.1
	c7.1-7.7,15-13.9,23.6-19.1l0.1,0c0.8,0,1.5-0.2,1.9-1l0.1,0c1.5-0.1,2.8-0.7,4-1.8c0,0,0.2-0.1,0.2-0.1c0.7-0.3,1.5-0.5,2.2-0.8
	c3.8-1.1,7.7-2.3,11.5-3.2c2.2-0.5,5.1-1.4,5.8,1.8c0.7,3.4-2.4,3.4-4.6,3.8c-12.7,2.7-23.9,8.3-33.1,17.4
	c-10.3,10.3-17.7,22-16.2,37.5c-0.4,10.5,3.5,19.7,8.3,28.7c0.6,1.2,1.5,2.3,3.1,2.2c9.4-0.6,18.3,2.2,27.3,4.2
	c0.4,0.3,0.9,0.5,1.3,0.8c0,0.4,0.1,0.9,0.1,1.3c-3.9-0.5-7.9-1.2-11.8-1.6c-9.8-1-19.3,0-27.9,5.2c-2.9,1.8-6.3,3.7-4.3,8.2
	c1.8,7.2,10.1,11.8,15.3,10.8c4.7-0.9,9.2-0.3,13.9-0.2c19.1,0.5,38.3,1.1,57.2-2.7c14.5-2.9,24.7-11.1,30.1-24.9
	c2.9-7.5,4.5-15.3,5-23.3c0.1-17.3-5.6-32.8-15.4-46.8c-0.3-0.4-0.7-0.8-1-1.2l0.1,0.1C737.6,440.6,737.3,439.8,736.5,439.5
	L736.5,439.5z M556.4,453.5c-0.4-0.7-0.9-1.2-1.8-1.3l0.1-0.1c-1.8-2-3.7-4-6.2-6.7c0,2.1,0,3,0,4c1,17.4,2,34.8,3.2,52.2
	c0.3,4.7-1,8-4.9,10.6c-2.7,1.8-5.3,3.8-6.7,7c0,0-0.1,0-0.1,0c-1.2,0.3-1.4,1.2-1.6,2.3c-2.3,4.3-0.6,6.9,3.6,8.4
	c4,1.4,8.1,1.6,12.3,1.8c2,0.1,3.1-0.6,3-2.8c-0.4-9.6,4.9-15.9,12.6-20.6c2-1.2,3.1-2.7,3.4-5.1c1.4-11.2,2-22.5,1.9-33.8
	c0-1.3,0.2-2.8-1.3-3.5c-3.7-1.9-6.5-5.1-10.6-6.2c-1.6-1.4-3.1-2.8-4.7-4.2C558,454.8,557.3,454.1,556.4,453.5L556.4,453.5z
	 M627.5,521.6c2.6-3.4,6-5.6,9.9-7.3c1.1-0.5,3-0.8,1.9-2.7c-2.8-4.8-4.6-10.1-7.2-15.8C629.8,504.9,628.5,513.2,627.5,521.6l-0.1,0
	L627.5,521.6z M416.8,253.3c2.5,0.4,5,0.8,7.9-0.4c-9.2-6.7-18.2-12.7-28.9-15.2c-6.3-1.5-9.2,0.5-10,6.8
	c-0.8,6.2-0.5,12.5,1.3,18.6c5.7-1.1,7.7-4.1,6.2-9.8c-0.8-3-2.1-7.1,1.2-9.2c3.2-2.1,6.7,0.4,9.9,1.6c0.9,0.3,1.9,0.7,2.2,1.8
	c-1.8-0.3-3.6-0.7-5.4-0.7c-1.8-0.1-4.8-1.3-4.4,2c0.4,3.1,0.1,8.5,4.1,8.3C406.2,256.7,411.8,255.5,416.8,253.3z M348.7,313.5
	c-1.1,0.1-1.2-0.9-1.6-1.6c-4-6.5-5.5-13.9-7.5-21.1c0.1-0.8,0.1-1.6,0.2-2.4c2-1.9,4.2-2,6.9-1.2c6.2,2,11,5.9,15.6,10.2
	c3.4,4.9,6.2,9.4,4.5,16.3c-4.1,16.4-1.9,32.6,4.8,48.1c4,9.3,9.7,17.4,19.1,22c9.3,5.1,19.4,6.7,29.9,6.6c-3.8,3-8.3,2-12.6,2.2
	c-1.8,0.1-3.3-0.3-4.6,1.8c-6.2,10.4-15.5,17.7-25.4,24.2c-8.3,5.4-17.2,10-25.5,15.6c-22.2,15-32.2,36-29.1,62.8
	c0.2,1.4-1,4.2,2.5,3.5c3-0.1,6-0.3,9-0.4c14-0.5,27.3,2,38.8,10.3c7.4,5.3,12.3,12.2,11.5,21.9c-0.2,2.8,1.1,3,3.1,3
	c8.7,0,17.3,0.1,26,0c2.3,0,4.7-0.2,6.1-2.6c2-5.3,0.5-9.9-4.4-12.2c-6.5-3-13.4-4.3-20.6-3.7c-0.8-0.4-2,0.5-2.5-0.9
	c3.2-1.9,6.8-2.9,10.3-3.2c2.9-0.2,4.4-1.6,5.6-4c4.9-9.5,7.3-19.4,4.4-30.1c-0.2-1.8-0.5-3.6-0.7-5.4c-1.2-13.8-9.9-23.5-23.3-26.7
	c-9.4-2.2-17.7,0.6-25.6,5.3c-1.8,1.1-3.7,2.2-5.2,0c-1.8-2.6,0.4-3.9,2.2-5.1c10.1-6.4,21.2-7.6,32.6-5.1
	c6.2,1.4,11.3,5.2,16.2,9.6c0-2,0.1-3.7,0-5.3c-0.1-2,0.6-3.9,2.6-4.1c2.3-0.3,2.8,1.7,3,3.7c0.1,1.1,0.5,2.3,0.7,3.4
	c0.2,2.5,0.4,5,0.5,7.4c0.3,7.7,4.9,14.5,4.4,22.4c-1,18,3.9,35.2,7.2,52.6c0.4,2,1.7,3.7,3.7,4.5c12.9,4.8,25.8,5.8,38.8,0.3
	c3.3-2,3.5-5.1,2.7-8.3c-1.3-5.6-4.3-10.1-9.4-12.9c-2.1-1.2-3.1-2.4-3.4-4.9c-1.6-18.4-3.5-36.8-5.2-55.1c-0.2-2-0.7-4.3,2.2-4.6
	c3.1-0.3,3.3,2,3.5,4.3c0.6,6.5,1.3,12.9,2,19.3c0.6,7.4,1.4,14.9,1.9,22.3c0.2,2.9,1.4,3.1,3.4,1.6c2-1.5,4.1-2.9,5.7-4.8
	c9.4-11,14.3-24.1,16.8-38.2c3.8-17.7,4.8-35.5,3.2-53.5c-1.2-13.3-3.9-26.2-10.5-38.1c-1.5-2.8-2.5-3-4.9-0.6
	c-7.3,7.1-15,13.5-24.6,17.4c1.2-1.1,2.3-2.3,3.7-3.2c10.7-7.4,19.6-16.6,26.9-27.2c7.4-10.8,12.9-22.5,14.1-35.8
	c1.9-15.8-3.6-28.4-16.3-37.7c-17-12.5-36.7-16.9-57.4-16.6c-21.4,0.2-39.6,8-52.3,26c-1.8,2.5-3.4,2.5-5.8,1.1
	c-7-4.1-14.6-6.3-22.6-7.5c-4.6-0.7-6.7,0.8-7,5.4c-0.3,5.5-0.6,11,0.6,16.4c1.6,16.4,9.5,29.4,22,40c-0.7-5.5,0.7-10.9-0.8-16.2
	c1.4-3.8,1-8,2.2-11.7c1.7-5.1-0.3-8.7-3.7-12c-2-1.9-4.2-3.7-6.5-5.3c-1.3-0.9-2.9-2.5-4.4-1.4c-1.4,1-0.7,3.1-0.4,4.7
	C346.8,303.7,347.8,308.6,348.7,313.5z M498.7,532.6l0.2,0.1c3.1-2.3,3.6-6.2,1.1-10.1c-2.4-3.7-5.8-6.4-9.5-8.7
	c-2.4-1.4-3.3-2.6-2.5-5.9c1.9-7.2,2.9-14.6,4.2-22c0.5-2.6,0.8-5.3,1-7.9c0.2-2.6,0-5.3,0-7.9c-3.7,9.2-8.2,17.6-13.8,25.5
	c-3.7,3.3-7.3,6.6-11.9,8.8c-3.4,1.6-2.3,4,0.1,5.7c6.8,5,11,11.3,11.3,20c0,1.2,0,2.7,1.5,2.7c6.1-0.2,12,2.6,18.1,1
	C499.1,533.5,499.2,533.1,498.7,532.6z M804.6,472.6c0.2-2.6,0-5.7-2.6-6.4c-2.8-0.8-3.3,2.6-4.5,4.4c-3.4,5.5-6.4,11.2-9.9,16.7
	c-5.4,8.3-13.3,12.7-23.1,12.2c-5.9-0.3-7.1,2.3-7.1,7c-1,2.6-1.8,5.3-2.9,7.9c-1.4,3-0.9,4,2.6,4.1
	C780.8,519.3,804.7,496.3,804.6,472.6z M378.6,528.4L378.6,528.4c0.5-2.4-0.3-4.4-1.7-6.4c-3.8-5.6-9-9.3-15.1-11.7
	c-18.2-7.2-36.2-5.6-54.5,1.2c1.1-2.5,2.9-4.4,5-5.2c6.2-2.3,5.8-6.8,5.1-11.9c-0.3-2-0.9-2.3-2.8-2c-12.7,1.7-19.5,10.1-18.1,22.5
	c-0.5,12.7,3.5,18.5,15.4,22c9.7,2.9,19.7,4.6,29.8,5.2c10,0.6,19.9,0.5,29.5-2.9c3.7-1.3,7.6-2.7,8.2-7.6
	C379.5,530.5,380,529.2,378.6,528.4z M515.3,296.9c-5.4-1.3-11.1,3.2-10.7,8.5c0.4,13.7-3.8,26.2-9.9,38.2c-0.9,1.7-2.2,3.3-0.8,5.5
	c3.7,5.7,8.7,9.1,15.6,9.1c5,0,6.8-2,7-7c0.2-5.9-1.2-11.5-2.2-17.3c-2.7-16.5-0.6-21.3,13.6-30.2c1.4-0.9,2.8-1.7,4.3-2.5
	c1.4-0.8,2.9-1.6,4.3-2.4c1.4-0.8,3.2-1.1,4.5-3.6C532.1,298.1,523.7,298.8,515.3,296.9z M537.7,345.3c-0.2-0.1-0.4-0.2-0.6-0.3
	c0.1,0.2,0.2,0.4,0.3,0.6c4.1,8.2,11.2,13.4,18.8,18c19.1,11.5,39.9,15.6,61.9,13.5c16.8-1.6,32.4-6.9,46.2-16.9
	c3-2.1,6.4-4.1,7.9-7.9c-1.5-1.1-2.8-0.5-4-0.1c-9.3,3.2-19,4.9-28.7,6.3c-27.5,3.8-54.8,3.6-81.4-5.3
	C551.2,350.9,544.5,347.9,537.7,345.3z M508.5,241.1c6.8,9.9,15.5,17.1,27.2,19.9C529.4,250.6,520.9,243.1,508.5,241.1z M417,506.2
	c-4.7,7-4.6,7.3,1.4,7.9C417.9,511.7,417.5,509.3,417,506.2z"/>
<path class="st1" d="M292.2,527.4c2.5,6.9,7.4,11.3,14.3,13.6c19.4,6.4,39.2,8.6,59.4,5.5c5.3-0.8,10.2-2.9,14.9-5.5
	c11.8,0.4,23.7,0.8,35.5-0.2c4.8-1,10.7-0.3,15.9,1.3c3.5,1.1,7.1,1.7,10.6,2.5c1.7,0.9,3.5,0.9,5.4,0.4c3.2,0,6.4-0.1,9.7-0.1
	c0.9,0.6,1.6,0.5,2.4-0.2c5.6-0.8,11.2-1.4,15.6-5.5c1.2-1.1,2.9-0.7,4.3-0.6c4,0.4,7.9,0.7,11.9,1.3c5.1,0.8,9.8,0.4,13-4.1
	c3.3-4.8,3.1-10.1,0.6-15.1c-1.1-2.2-2.8-4.1-4.2-6.1c9.5-0.1,19-0.1,28.5-0.1c1.6,0,3.4-0.5,4.7,1c-0.7,1.5-1.5,3-2,4.5
	c-2.4,6.6,0,13.5,6.7,14.8c12.4,2.5,24.5,6.2,36.9,8.3c10.8,1.8,21.9,0.3,32.9-0.8c7.9-0.8,16.2-1.3,16.5-12.9
	c2.2,6.7,6.3,11,11.5,14.3c0.7,0.4,1.5,0.7,2.3,0.8c26.6,2.1,53.2,3.5,79.7-1.2c11.8-2.1,22.1-7.3,29.3-17.4
	c0.9-1.3,1.8-2.4,3.6-2.1c4.8,0.9,9.6-0.1,14.4-0.2c6.7,3,14,2.4,21,3.8c12,2.4,24.3,3.9,35.7,8.7c0.3,0.1,0.6,0.2,0.9,0.3
	c2.5,1.3,5.8,2.4,5.9,5.5c0.1,3.4-3.1,4.9-5.8,6.1c-8.2,3.9-17.1,5.6-25.9,7.2c-23.8,4.4-47.9,6.6-72,8.9
	c-12.1,1.2-24.2,1.4-36.3,2.2c-26,1.8-52.1,2.3-78.2,3.2c-45.9,1.5-91.9,0.8-137.8,0.5c-19.6-0.1-39.2-0.7-58.8-1.9
	c-22.8-1.3-45.7-2.6-68.5-4.6c-22.5-2-44.9-4.5-67.1-8.3c-8.4-1.4-16.6-3.5-24.6-6.4c-1.4-0.5-2.8-1.2-4-2c-4.3-2.9-4.4-6.2,0-9
	c4.5-2.9,9.7-4.3,14.9-5.5C274.5,530.5,283.2,528,292.2,527.4z"/>
<path class="st0" d="M417.2,122c9.6,0.5,19.3,3.8,27.8,12.1c15.4,15,17.3,31.9,9.4,50.9c-0.7,1.7-0.8,3-0.3,4.7
	c1.4,4.3,2.5,8.6,3.7,12.9c0.9,3.3-0.4,5.3-3.7,4.2c-10.9-3.9-21-0.9-31.8,1.3c-24.3,5-48.1-13.8-50.1-37.7
	C370.1,143.7,389.4,122.1,417.2,122z M448.6,147.6l-0.1-0.2c-0.6-1.6-1.2-3.2-2.9-4l0,0c-7.3-12.6-25.3-18.9-40.7-14.1
	c-10.5,3.3-18.8,9.5-23.1,20c-0.7,3.1-2.8,5.5-3.3,8.7c-2.3,14.6,2.1,26.9,13.3,36.1c11.2,9.2,24.3,11.7,37.9,5.9
	c5.5-2.3,10.1-2.9,15.7-1.3c4.7,1.3,5.5,0.2,4-4.3c-1.7-5-1.4-9.4,0.8-14.3c4.7-10.3,4.5-20.9-0.8-31.2
	C449.4,148.5,449.3,147.9,448.6,147.6z"/>
<path class="st2" d="M675.5,177.1c-1,2.2-1.9,4.3-2.9,6.5c-1.4,1-0.6,1.7,0.4,2c1.9,0.4,1.8-1.2,2.1-2.4c0,0-0.1,0.1-0.1,0.1
	c1.3-0.1,2.1-0.7,1.9-2.2c0,0,0-0.2,0-0.2c4.8-0.7,8.7-3.7,13.1-5.3c9.8-3.5,20-6.8,30-2.5c14.2,6.1,20.9,17.8,21.3,33.1
	c0.1,4.5,0.1,9,0.2,13.5c0,0,0.2,0,0.2,0c-1.9,1.5-2.8,3.4-1.6,5.8c-0.2,0.7-0.4,1.5-0.6,2.2c-0.5,0.6-1.4,1.1-1.5,1.8
	c-2.1,8.6-5,17.1-2.9,26.2c0.8,3.5,0.8,7.2,1.2,10.8c-3.9,4.8-8.5,6.9-14.8,5.4c-4.9-1.2-8.9-3.6-12.3-7
	c-10.6-10.6-17.6-23.6-24.4-36.7c-2-3.7-5-7.2-4.6-11.9c2.8-8.7,7.9-15.6,15.7-20.5c2-1.3,4-2.5,2.4-5c-1.6-2.6-3.9-1.1-5.6,0
	c-10.1,6.3-15.9,15.7-19.2,26.9c-0.4,1.3-0.7,2.6-1.1,3.8c-0.1,0.5-0.3,1-0.4,1.5c-0.2,1.2-0.5,2.3-0.7,3.5
	c-3.2,2.4-2.8,6.3-3.5,9.6c-4.4,20.3,2.6,37,17,50.9c2.3,2.2,2.5,3.8,1.6,6.3c-3.2,8.4-8.5,15.6-15,21.5
	c-16.9,15.4-37.1,23.4-59.9,23.5c-19.2,0.1-37.5-4.7-55.2-12c-6.6-2.7-13.1-5.7-18.2-11.1c7.6-6.3,12.2-14.5,15.1-23.8
	c1.1-0.9,1.2-2,0.8-3.3c-0.1-0.3,0-0.5,0.1-0.7c1.3-1.9,2.7-4.4,1.3-6.2c-1.4-1.8-4-0.4-6.1,0c-3.2,0.7-6.5,1.4-9.7,1.9
	c-4.1,0.6-8.2,0.6-12.1-1.4c-1.9-0.9-2.1-1.8-1.2-3.4c4-1.2,7.9-2.5,11.1-5.3c5.4-4.6,6.9-10.9,3-16.9c-6.8-10.6-16.2-18.5-28.6-21
	c-13.8-2.7-22.5,3.1-19.9,18.6c0.5,2.9,1.4,5.8,2.1,8.7c-1.9,1.6-3.3,0.3-4.9-0.7c-6.2-3.7-7.6-10-8.7-16.4c1.1-1.3,0.8-2.7,0.7-4.2
	c0,0-0.1,0.1-0.1,0.1c1.6-0.5,2.3-1.5,1.8-3.2c0,0,0,0.1,0,0.1c1.5-0.4,1.4-1.6,1.4-2.8l0,0c0.3-0.4,0.6-0.7,1-1.1c0,0,0,0,0,0
	c0.3-0.3,0.7-0.7,1-1c0,0,0,0,0,0c6.7-2.2,12.5-6.2,19.8-7.1c10.2-1.3,19.3-7,29.6-8.1c0,0-0.1,0.1-0.1,0.1
	c-0.1,2.7-0.8,5.5,0.4,8.1c0.1,0.7,0.2,1.4,0.2,2.1c-0.4,0.7,0,0.7,0.5,0.5c0,0,0,0.1,0,0.1c-0.2,1.1,0,2,1.2,2.2
	c1.3,0.3,2.1-0.4,2.4-1.7c0,0,0.2-0.1,0.2-0.1c0.9-0.2,1.6-0.6,1.8-1.6l-0.1-0.3c0,0,0.2-0.2,0.2-0.2c0.9-0.5,1-1.1,0.3-1.9
	c0.1-0.8,0.2-1.6,0.3-2.4c2.4-2.5,0.5-4.6-0.7-6.7c0,0,0,0.1,0,0.1c0-0.9-0.2-1.6-1.1-2.1c0,0,0,0.1,0,0.1c0.2-1.2,0.7-2.2,1.7-2.9
	c5.9-3.9,9.5-9.7,12.6-15.8c6.4-12.6,15.5-22.7,27.8-29.8c3.1-1.8,6.3-4.5,8,1.6c0.3,1.1,1.8,2,2.9,2.6c6.9,4,21.9,0.1,23.9-7.3
	c1.8-6.7,5-7,10.2-5.6c0.8,0.2,1.7,0,2.5,0.1c15.2,1,29.2,5.7,42.2,13.5c1.7,1,3.5,2.1,3.3,4.6c0,0,0-0.1,0-0.1
	C676.2,176.1,675.8,176.6,675.5,177.1z M620.5,262.7c-0.1-4-1.5-7.5-4-10.5c-8.6-10.1-22.7-10.1-32.3-1.7c-1.7,1.5-4.2,3.2-2,5.7
	c2.3,2.6,4.1,0.2,5.8-1.3c4.2-3.6,8.9-5.8,14.7-4.5c9.6,2.2,13.6,9.4,10.2,18.7c-0.7,1.9-1.3,3.7,0.9,4.7c2.5,1.2,3.6-0.5,4.6-2.5
	C619.7,268.6,620.5,265.8,620.5,262.7z M623.7,174.6c-2.6,0-4.8,0.9-4.9,3.8c-0.1,3,2.4,3.9,4.8,3.9c2.4,0,4.7-1,4.8-4
	C628.5,175.1,626.3,174.5,623.7,174.6z"/>
<path class="st2" d="M574.5,423.3c-1.5,5.7,0.5,11.4-0.1,17.1c-1.7-0.7-3.6-1-5-2.1c-19.2-14.4-35.2-30.8-35.1-57.1
	c0.4-6.5,2.5-12.7,4.4-18.9c0.9-2.9,1.8-3.1,4.3-1.1c33,26.3,80.8,29.8,117.3,8.7c3-1.7,5.9-3.7,8.8-5.6c1.5,0.6,2.3,1.8,2.9,3.2
	c6.2,13,14.6,24.4,24.7,34.6c11.6,11.6,23.5,22.9,35.2,34.3c1.1,1,2,2.3,3.8,2c0,0-0.2,0.1-0.2,0.1c0.3,0.4,0.7,0.7,1,1.1
	c0,0,0-0.1,0-0.1c0,0.9,0.3,1.6,1.2,2c0,0-0.1-0.1-0.1-0.1c0.3,0.4,0.7,0.8,1,1.2c9.8,14.1,15.6,29.5,15.4,46.8
	c-1.7-0.5-1.3-2-1.6-3.3c-1.7-8.2-5-15.8-10.3-22.4c-2.5-3.2-4.7-3.7-7.2,0.1c-5.9,8.6-13.2,16-21,23c-24.2,21.7-63.9,16.4-77.4-6.3
	c-1.5-15.5,5.9-27.2,16.2-37.5c9.2-9.2,20.4-14.8,33.1-17.4c2.2-0.5,5.3-0.4,4.6-3.8c-0.7-3.2-3.6-2.4-5.8-1.8
	c-3.9,0.9-7.7,2.1-11.5,3.2c-0.9-0.4-1.7-0.3-2.2,0.8c0,0-0.2,0.1-0.2,0.1c-1.8-0.5-3.2-0.1-4,1.8c0,0-0.1,0-0.1,0
	c-0.9-0.1-1.5,0.2-1.9,1c0,0-0.1,0-0.1,0c-3.9,0.1-7.3,2-11,2.6c-4,0.6-7.4,0.6-9-4.4c-1.2-3.5-3.8-3.6-6.1-0.4c0,0,0,0,0,0
	c-3.1,3.5-6.2,6.9-9.1,10.5c-4.8,5.8-5.2,13.2-6.7,20.1c-4.5,21.5-9.1,42.9-15.4,63.9c-1.4,4.6-4.4,7.2-8.6,8.1
	c-9.3,2.1-18.8,2-28.2,0.4c-2-0.4-3.9-1-5-2.9c0-1.1,0-2.2-0.1-3.3c0,0-0.1,0-0.1,0c3.7-1.8,7.3-4.1,11.3-5.2c6.3-1.9,8-6.1,8-12.1
	c0-4.5,0.3-8.9,0.5-13.4c0.7-13.3,1.2-26.5-0.2-39.8c-0.8-7.7-4.2-15.1-3.4-23.1c0.2-1.6-0.4-3.3-2.3-4.1c-0.3-0.2-0.5-0.4-0.8-0.6
	C576.9,420.5,575.6,420.9,574.5,423.3z"/>
<path class="st3" d="M462.7,473.7c-0.7-6.4-1.4-12.9-2-19.3c-0.2-2.3-0.4-4.6-3.5-4.3c-3,0.3-2.4,2.6-2.2,4.6
	c1.8,18.4,3.6,36.7,5.2,55.1c0.2,2.5,1.3,3.7,3.4,4.9c5.1,2.8,8.1,7.4,9.4,12.9c0.8,3.2,0.6,6.3-2.7,8.3c0.1-0.8,0.1-1.7,0.2-2.5
	c0.1-5.8,0.1-5.7-5.6-4.5c-5.2,1.1-10.4,1.9-15.8,1.6c-7.2-0.5-12.6-3.2-15.1-10.6c-4.1-12.1-4.3-24.7-6.5-37.1
	c-2.1-12-5.2-23.6-11.7-34c-0.3-1.1-0.6-2.3-0.7-3.4c-0.2-2-0.7-4-3-3.7c-1.9,0.3-2.7,2.1-2.6,4.1c0.1,1.6,0,3.3,0,5.3
	c-4.9-4.4-10-8.3-16.2-9.6c-11.4-2.5-22.5-1.3-32.6,5.1c-1.8,1.2-4,2.5-2.2,5.1c1.5,2.2,3.4,1,5.2,0c7.9-4.6,16.2-7.5,25.6-5.3
	c13.5,3.2,22.1,12.9,23.3,26.7c0.2,1.8,0.5,3.6,0.7,5.4c-0.5,1.9-1.2,3.3-2.7,0.6c-2.4-4.6-3.9-3.3-5.9,0.5
	c-3.3,6.1-8.4,10.7-14.6,13.9c-15.1,7.8-30.9,7.7-47,3.8c-5.9-1.5-11.2-4.5-17-7.6c0,4.1,0,7.4,0,10.7c-3.5,0.7-2.3-2.1-2.5-3.5
	c-3.1-26.8,7-47.7,29.1-62.8c8.2-5.6,17.1-10.2,25.5-15.6c9.9-6.5,19.2-13.7,25.4-24.2c1.3-2.2,2.8-1.7,4.6-1.8
	c4.3-0.2,8.8,0.8,12.6-2.2c2.7-0.4,5.5-0.4,8.1-1.2c6.8-1.9,13.1-5.4,20.2-6.2c1.8-0.2,4-0.8,4.7-3.1c9.6-3.9,17.3-10.4,24.6-17.4
	c2.4-2.4,3.4-2.1,4.9,0.6c6.6,11.9,9.2,24.8,10.5,38.1c1.6,18,0.7,35.8-3.2,53.5c-1.9-1.6-1.1-3.7-1-5.6c0.3-6.7,1.4-13.3,0.7-21.5
	c-2.6,10.8-6.7,19.4-11.8,27.6C474.1,462.2,469.3,468.8,462.7,473.7z"/>
<path class="st3" d="M390.8,383.7c-9.5-4.6-15.1-12.6-19.1-22c-6.7-15.5-8.9-31.7-4.8-48.1c1.7-6.9-1.1-11.4-4.5-16.3
	c-0.4-6.5-15.7-14.1-21.2-13.6c-3.3,0.3-2.8,2.5-1.3,4.6c-0.1,0.8-0.1,1.6-0.2,2.4c-2.4,3,0.6,7.1-2.1,10c-1.2-5.4-1-10.9-0.6-16.4
	c0.3-4.6,2.4-6.1,7-5.4c7.9,1.3,15.6,3.4,22.6,7.5c2.4,1.4,4.1,1.4,5.8-1.1c12.7-18,30.9-25.8,52.3-26c20.7-0.2,40.4,4.2,57.4,16.6
	c12.7,9.3,18.2,21.9,16.3,37.7c-2.5-2.1-1.4-5.6-3.7-8.3c-1.1,7.9-4,14.8-8.3,21c-20.4,30.3-61.4,48.2-100.4,37.2
	c-1.5-0.4-3.3-1.8-4.7-0.4c-1.4,1.5-0.2,3.4,0.4,5.1c1.9,5.3,5.2,9.6,9.2,13.5C391.6,382.6,392.6,383.1,390.8,383.7z M463.7,304.5
	c-0.4,1.5-0.7,2.6-1.1,3.6c-1.2,4-3.9,6.3-8.1,6c-4-0.4-3.2-3.8-3.4-6.5c-0.4-4.4-3-5.9-6.8-3.8c-1.7,0.9-3.3,2.3-4.5,3.8
	c-1.3,1.6-2.8,3.5-1.6,5.8c1.1,2.2,3.4,1.7,5.3,1.7c2.2,0,4.9-1.2,5.6,2.2c0.6,2.9-0.3,5.3-2.9,6.8c-1.9,1.1-4.1,1.9-6.3,2.8
	c7.3,2.8,12.2,1.4,15.7-4.8c0.8-1.5,1.8-2.1,3.2-2.7C465.5,316.5,467,312.2,463.7,304.5z M418.4,321.1c-7.3-4.9-12.9-4.9-16.5,0.1
	c-3.9,5.4-3.1,12,1.8,15.9C403.6,325.1,407.3,321.1,418.4,321.1z M460.7,280.7c-4.2-4.4-8.1-5.3-11.7-3.3c-3.5,2-5.3,7.2-4,11.4
	c0.3,1,0.2,2.6,1.8,2.5c1.2-0.1,1.9-1.2,2.1-2.5C450,282.8,453.4,279.7,460.7,280.7z"/>
<path class="st4" d="M534.5,515.4c-1.3-1.5-3.1-1-4.7-1c-9.5,0-19,0.1-28.5,0.1c-6.2-3.1-7.7-7.2-6.1-14.6
	c5.1-22.8,6.3-46.1,4.8-69.5c-0.5-8,0.2-16-0.4-24c-1.2-16.5-3.5-32.8-12.2-47.3c-1.5-2.5-0.3-4,1.2-5c1.9-1.4,2.3,1.2,3.1,2.1
	c5.6,6.4,12.8,8.5,21,7.6c6.5-0.7,9.7-4.4,10-11c0.3-6-0.9-11.9-2.1-18.8c4,2.9,8,4.3,8.9,9.2c0.3,1.6,1,3.4,2.1,4.5
	c5,4.5,3,9,1.2,14.3c-8.5,25.7-7.2,50.5,8.1,73.6c1.1,1.6,1.5,3.3,1.6,5.1c1.2,18.9,1.9,37.9,3.8,56.7
	C547.2,507.2,540.2,510.6,534.5,515.4z"/>
<path class="st5" d="M636.4,480.5c13.5,22.7,53.2,28,77.4,6.3c7.8-7,15.1-14.4,21-23c2.6-3.8,4.7-3.3,7.2-0.1
	c5.3,6.6,8.5,14.2,10.3,22.4c0.3,1.3-0.1,2.8,1.6,3.3c-0.5,8-2.1,15.8-5,23.3c-5.4,13.8-15.6,22-30.1,24.9
	c-18.9,3.7-38.1,3.1-57.2,2.7c-4.6-0.1-9.2-0.8-13.9,0.2c-5.3,1.1-13.5-3.6-15.3-10.8c13.1-6.5,27.2-6,41.2-5.4
	c4.7,0.2,9.3,0.5,14.7,0.2c-3.7-4.2-7.9-5.2-11.8-6.6c0-0.4-0.1-0.9-0.1-1.3c-0.4-0.3-0.9-0.5-1.3-0.8c-9-2-17.9-4.8-27.3-4.2
	c-1.5,0.1-2.4-1-3.1-2.2C639.9,500.2,636,491,636.4,480.5z"/>
<path class="st5" d="M538.2,315.3c5,5.4,11.6,8.4,18.2,11.1c17.6,7.3,36,12.1,55.2,12c22.8-0.1,43-8.1,59.9-23.5
	c6.5-5.9,11.8-13.1,15-21.5c1-2.6,0.8-4.1-1.6-6.3c-14.5-13.9-21.5-30.6-17-50.9c0.7-3.3,0.3-7.1,3.5-9.6c0.1,8.6-0.3,17.2,1.5,25.7
	c4.5,21.5,17.3,35.3,38.7,40.8c2.1,7.5,1.2,14.7-2.1,21.6c-4.2,8.8-11.6,14.3-19.8,18.9c-2.5,1.4-6.3,2-6,6.3
	c-13,6.4-26.9,9.6-41,12c-27.8,4.7-55.4,4.3-82.5-4.3c-13.4-4.3-26-10.4-36.9-19.4c-1.3-1.1-2.9-1.9-2.7-3.9
	c0.3-2.3,2.5-1.9,3.9-2.3C529.4,320.6,534,318.2,538.2,315.3z"/>
<path class="st1" d="M390.8,383.7c1.8-0.6,0.8-1.1,0.1-1.9c-4-3.9-7.3-8.2-9.2-13.5c-0.6-1.7-1.8-3.6-0.4-5.1c1.3-1.4,3.1,0,4.7,0.4
	c39,10.9,80-7,100.4-37.2c4.2-6.2,7.1-13.1,8.3-21c2.3,2.7,1.2,6.2,3.7,8.3c-1.2,13.3-6.7,25-14.1,35.8
	c-7.3,10.7-16.2,19.8-26.9,27.2c-1.3,0.9-2.4,2.1-3.7,3.2c-0.8,2.2-2.9,2.9-4.7,3.1c-7.2,0.8-13.4,4.3-20.2,6.2
	c-2.6,0.7-5.4,0.8-8.1,1.2C410.2,390.4,400.1,388.8,390.8,383.7z"/>
<path class="st5" d="M537.7,345.3c6.8,2.7,13.5,5.6,20.4,7.9c26.6,8.9,53.9,9.2,81.4,5.3c9.7-1.4,19.4-3.1,28.7-6.3
	c1.2-0.4,2.5-1,4,0.1c-1.5,3.8-5,5.8-7.9,7.9c-13.8,10-29.4,15.3-46.2,16.9c-22,2.1-42.8-2.1-61.9-13.5c-7.6-4.6-14.7-9.8-18.8-18
	L537.7,345.3z"/>
<path class="st3" d="M296.5,514.9c-1.4-12.5,5.4-20.9,18.1-22.5c1.9-0.3,2.5,0,2.8,2c0.7,5.1,1,9.6-5.1,11.9c-2.1,0.8-3.9,2.7-5,5.2
	c18.3-6.8,36.3-8.4,54.5-1.2c6.1,2.4,11.4,6.1,15.1,11.7c1.3,2,2.2,4.1,1.7,6.5c-2-2.1-4-4.3-6.1-6.4c-1-1-1.9-1.7-3.2,0
	c-4,5.2-10,7-16,8.3c-10.2,2.1-20.5,1.8-30.8,1c-10.3-0.8-19.6-4.1-23.8-15C298.4,515.4,297.8,514.6,296.5,514.9z"/>
<path class="st5" d="M565.4,524.6c1.2,1.9,3.1,2.5,5,2.9c9.4,1.7,18.9,1.7,28.2-0.4c4.2-0.9,7.2-3.6,8.6-8.1
	c6.3-21,10.9-42.4,15.4-63.9c1.5-6.9,1.9-14.3,6.7-20.1c2.9-3.6,6.1-7,9.1-10.5c-5.9,35.3-11.6,70.5-19.1,105.5
	c-0.8,3.9-2.7,5.7-6.6,6.1c-12.9,1.4-25.9,2-38.9,1.2c-8.5-0.5-11.4-4.6-10.1-12.9C564.3,524.4,564.8,524.5,565.4,524.6z"/>
<path class="st1" d="M325.9,500.4c0-3.3,0-6.6,0-10.7c5.8,3.1,11.1,6.2,17,7.6c16.1,4,31.9,4,47-3.8c6.2-3.2,11.3-7.8,14.6-13.9
	c2.1-3.8,3.5-5.1,5.9-0.5c1.4,2.7,2.2,1.3,2.7-0.6c2.9,10.7,0.5,20.5-4.4,30.1c-1.2,2.4-2.6,3.8-5.6,4c-3.6,0.3-7.1,1.3-10.3,3.2
	c0.5,1.4,1.7,0.4,2.5,0.9c-1.1,0.4-2.2,0.6-3.2,1.1c-1.5,0.8-4.1-0.1-4.4,2.3c-0.3,2.3,1.8,3.5,3.4,4.5c1.4,0.8,3,1.5,4.5,1.9
	c5.2,1.4,10.7,1.8,15.8,0.8c5.3-1.1,8,0.2,9,5.4c-1.4,2.4-3.8,2.6-6.1,2.6c-8.7,0.1-17.3,0-26,0c-2.1,0-3.4-0.1-3.1-3
	c0.8-9.7-4.1-16.6-11.5-21.9c-11.6-8.4-24.8-10.8-38.8-10.3C331.9,500.1,328.9,500.3,325.9,500.4z"/>
<path class="st5" d="M680.2,216.3c-0.4,4.7,2.6,8.1,4.6,11.9c6.9,13.1,13.9,26.1,24.4,36.7c3.4,3.5,7.5,5.8,12.3,7
	c6.3,1.6,11-0.6,14.8-5.4c0.3,0,0.5-0.1,0.8-0.1c0,14.1-11.6,23.5-25.3,20.4c-18.6-4.3-29-16.7-33-34.7
	C676.2,240.2,675.9,228.1,680.2,216.3z"/>
<path class="st1" d="M676.5,175.6c0.2-2.4-1.6-3.6-3.3-4.6c-13-7.8-27-12.5-42.2-13.5c-0.8-0.1-1.7,0.2-2.5-0.1
	c-5.2-1.5-8.4-1.1-10.2,5.6c-2.1,7.5-17.1,11.4-23.9,7.3c-1.1-0.7-2.6-1.6-2.9-2.6c-1.7-6.1-4.8-3.4-8-1.6
	c-12.3,7.1-21.4,17.2-27.8,29.8c-3.1,6.1-6.7,11.9-12.6,15.8c-1.1,0.7-1.5,1.7-1.7,2.9c-1.4-1.2-2.8-2.3-4.5-3.7
	c6.4-5.1,10.9-11.4,14.5-18.4c11.2-22.4,29.4-35.1,53.8-39.3c25.4-4.4,48.9-0.1,70.4,14.7C679.1,170.4,680.4,172.5,676.5,175.6z"/>
<path class="st2" d="M519.7,195.5c-0.4-0.5-0.8-1-1.3-1.6c-0.7-16.2,5.4-21,19.3-26c4.7-1.7,9.3-3.6,13.7-5.8
	c9.8-4.8,15.8-13.4,22.1-21.8c5-6.8,10.7-12.5,20.1-12.9c13.2-0.5,21.1,7.6,29.3,16.4c-3.2,1.6-6.3-0.2-8.7,1.6c-2,0-4,0.5-5.9-0.4
	c-9.7-5-18.4-2.8-27.1,3.1c-8.1,5.5-15.3,12.3-24.7,15.8c-7.3,2.7-14.3,6.3-21,10.4c-10.2,6.3-12.1,16.5-4.9,26
	c0.7,0.9,1.3,1.6,0.3,2.6c-2.6-0.4-4.9-1.2-6.8-3.1c-0.4-0.4-0.7-0.9-1.1-1.3c0,0,0,0.2,0,0.2c-0.4-0.4-0.8-0.7-1.1-1.1
	c0,0,0.1,0.1,0.1,0.1c-0.4-0.4-0.7-0.7-1.1-1.1c0,0,0.1,0.2,0.1,0.2C521.2,196,520.5,195.6,519.7,195.5z"/>
<path class="st5" d="M515.3,296.9c8.4,1.9,16.8,1.3,25.8-1.7c-1.3,2.5-3.2,2.8-4.5,3.6c-1.4,0.9-2.9,1.6-4.3,2.4
	c-1.4,0.8-2.9,1.7-4.3,2.5c-14.1,8.9-16.3,13.7-13.6,30.2c1,5.7,2.4,11.4,2.2,17.3c-0.2,5-2,7-7,7c-6.9,0-11.9-3.4-15.6-9.1
	c-1.4-2.2-0.1-3.8,0.8-5.5c6-12,10.3-24.5,9.9-38.2C508.5,303,512.2,300.3,515.3,296.9z"/>
<path class="st1" d="M415.6,448.8c6.5,10.4,9.6,22.1,11.7,34c2.2,12.4,2.4,25,6.5,37.1c2.5,7.5,8,10.1,15.1,10.6
	c5.3,0.4,10.6-0.4,15.8-1.6c5.7-1.3,5.7-1.3,5.6,4.5c0,0.8-0.1,1.7-0.2,2.5c-13,5.5-25.9,4.5-38.8-0.3c-2-0.7-3.3-2.5-3.7-4.5
	c-3.3-17.4-8.2-34.6-7.2-52.6c0.4-7.8-4.2-14.7-4.4-22.4C416,453.8,415.8,451.3,415.6,448.8z"/>
<path class="st1" d="M296.5,514.9c1.3-0.3,1.9,0.5,2.2,1.4c4.2,10.9,13.5,14.2,23.8,15c10.2,0.8,20.6,1.1,30.8-1
	c6-1.3,12-3.1,16-8.3c1.3-1.7,2.2-0.9,3.2,0c2.1,2.1,4.1,4.2,6.1,6.4c0,0-0.1-0.1-0.1-0.1c-0.5,1.3-0.2,2.4,0.8,3.3
	c-0.6,4.9-4.5,6.2-8.2,7.6c-9.6,3.4-19.5,3.6-29.5,2.9c-10.1-0.7-20.1-2.3-29.8-5.2C300,533.4,296,527.6,296.5,514.9z"/>
<path class="st5" d="M531.2,203c0.9-1,0.3-1.7-0.3-2.6c-7.2-9.5-5.3-19.7,4.9-26c6.7-4.1,13.6-7.7,21-10.4
	c9.4-3.5,16.6-10.3,24.7-15.8c8.6-5.9,17.3-8,27.1-3.1c1.9,1,3.9,0.4,5.9,0.4c1.5,0.1,2.9,0.3,4.4,0.4c-14.6,1.3-28.5,4.8-42.1,10.4
	c-12.1,5-21.2,13.2-29.4,23c-0.3,0.4-0.6,0.7-0.9,1.1c-0.3,0.4-0.6,0.7-0.9,1.1c-0.8,0.5-1.1,1.1-1,2c-0.6,0-0.9,0.1-0.5,0.8
	c0.2-0.2,0.4-0.5,0.5-0.7c0.5-0.5,0.9-1,1.4-1.6c0.3-0.3,0.7-0.6,1-1c0.3-0.3,0.7-0.7,1-1c2.5-1,3.6-4,6.4-4.6c0,0,0.3,0.3,0.3,0.3
	c-4.6,7.7-9,15.4-13.7,23C538.7,202.1,535.6,204.2,531.2,203z"/>
<path class="st1" d="M462.7,473.7c6.6-5,11.3-11.6,15.6-18.5c5.1-8.2,9.2-16.9,11.8-27.6c0.7,8.1-0.4,14.8-0.7,21.5
	c-0.1,1.9-0.9,4,1,5.6c-2.5,14.1-7.3,27.2-16.8,38.2c-1.6,1.9-3.7,3.3-5.7,4.8c-2,1.5-3.2,1.3-3.4-1.6
	C464.1,488.6,463.4,481.2,462.7,473.7z"/>
<path class="st2" d="M558.8,455.4c1.6,1.4,3.1,2.8,4.7,4.2c0.3,2.6,0.9,5.2,1,7.8c0.1,11.3-0.1,22.6,0.1,33.8
	c0.2,8.3-4.4,14-10,19.1c-4.3,4-9.2,3.9-14.2,1c-0.1-0.7-0.3-1.5-0.4-2.2c0,0,0.1,0,0.1,0c4.8-1.2,8.4-4.5,12.3-7.3
	c1.6-1.1,2.1-2.9,2.1-4.8c0.2-15.1-0.3-30.1-1.8-45.2c-0.3-3.2-2.3-7.4,2-9.9c0,0-0.1,0.1-0.1,0.1c0.2,0.9,0.9,1.2,1.8,1.3
	c0,0,0.1,0.1,0.1,0.1C556.7,454.9,557.5,455.4,558.8,455.4z"/>
<path class="st5" d="M534.3,381.3c-0.1,26.3,15.9,42.7,35.1,57.1c1.4,1,3.3,1.4,5,2.1c0.3,6,0.6,11.9,1,18c-0.8,0-1.3,0.2-1.7,0
	c-27-17-42.3-40.4-40.2-73.3C533.6,383.8,534,382.6,534.3,381.3z"/>
<path class="st5" d="M540.4,521.4c5,2.9,9.9,3,14.2-1c5.6-5.1,10.1-10.8,10-19.1c-0.2-11.3,0-22.6-0.1-33.8c0-2.6-0.6-5.2-1-7.8
	c4.1,1.1,7,4.4,10.6,6.2c1.4,0.7,1.3,2.2,1.3,3.5c0.1,11.3-0.5,22.6-1.9,33.8c-0.3,2.4-1.4,3.8-3.4,5.1c-7.7,4.7-12.9,11-12.6,20.6
	c0.1,2.2-1,2.9-3,2.8c-4.2-0.2-8.3-0.4-12.3-1.8c-4.2-1.5-5.9-4.1-3.6-8.4C539.1,521.4,539.8,521.4,540.4,521.4z"/>
<path class="st1" d="M618.7,145.9c-1.5-0.1-2.9-0.3-4.4-0.4c2.5-1.8,5.5-0.1,8.7-1.6c-8.2-8.8-16.2-16.9-29.3-16.4
	c-9.4,0.4-15.1,6.1-20.1,12.9c-6.3,8.4-12.3,17-22.1,21.8c-4.5,2.2-9,4.1-13.7,5.8c-14,5-20.1,9.8-19.3,26
	c-4.2-5.4-4.3-12.4-0.1-17.8c2.8-3.6,6.2-6.4,10.5-8.1c2.9-1.1,5.9-2.3,8.8-3.4c9.7-3.4,17.7-9.1,23.8-17.4c2.4-3.2,5-6.3,7-9.7
	c11.5-20.2,33-17.5,46.5-7.9c5.5,3.9,9.8,8.8,12.3,15.3C624.3,146,621.5,145.8,618.7,145.9z"/>
<path class="st3" d="M479.4,495.8c5.7-7.8,10.2-16.3,13.8-25.5c0,2.6,0.1,5.3,0,7.9c-0.2,2.6-0.6,5.3-1,7.9
	c-1.3,7.4-2.3,14.8-4.2,22c-0.8,3.2,0.1,4.5,2.5,5.9c3.7,2.2,7.1,4.9,9.5,8.7c2.5,3.9,2,7.7-1.1,10.1c0.3-5.4-2.8-7.1-7.6-7.2
	c-1.1,0-2.3-0.5-3.4-0.9c-9.1-3.1-11.8-7.5-10.3-17C478.2,503.6,478.8,499.7,479.4,495.8z"/>
<path class="st5" d="M804.6,472.6c0.2,23.7-23.8,46.8-47.5,45.9c-3.5-0.1-4-1.2-2.6-4.1c1.2-2.5,2-5.2,2.9-7.9c4.6,1.4,9,1,13.6-0.3
	c15.7-4.3,24.7-15.3,30.5-29.6C802.2,475,802,472.7,804.6,472.6z"/>
<path class="st1" d="M735.6,438.3c-1.8,0.3-2.7-1-3.8-2c-11.8-11.4-23.6-22.7-35.2-34.3c-10.1-10.1-18.5-21.6-24.7-34.6
	c-0.7-1.4-1.4-2.6-2.9-3.2c1.1-1.1,2.1-2.1,3.2-3.1c0.5-0.4,1-0.8,1.8-1.3c5.5,13.7,13.9,25.1,23.5,35.7
	c6.3,6.9,12.9,13.6,19.4,20.3C723.7,423,729.9,430.4,735.6,438.3z"/>
<path class="st1" d="M579.1,423.7c1.9,0.7,2.4,2.4,2.3,4.1c-0.8,8,2.6,15.3,3.4,23.1c1.4,13.3,0.9,26.6,0.2,39.8
	c-0.2,4.5-0.5,8.9-0.5,13.4c0,5.9-1.7,10.2-8,12.1c-3.9,1.2-7.5,3.4-11.3,5.2c1.3-4.9,5.5-6.9,9.3-9c2.6-1.5,3.7-3.3,4.2-6.2
	c3.3-22.6,2.3-45.4,1.4-68.1C579.9,433.3,580.3,428.4,579.1,423.7z"/>
<path class="st2" d="M804.6,472.6c-2.6,0.1-2.4,2.5-3,4c-5.8,14.3-14.8,25.3-30.5,29.6c-4.6,1.3-9.1,1.7-13.6,0.3
	c0-4.7,1.2-7.3,7.1-7c9.8,0.5,17.7-3.9,23.1-12.2c3.5-5.4,6.5-11.2,9.9-16.7c1.1-1.8,1.7-5.2,4.5-4.4
	C804.6,466.9,804.7,470,804.6,472.6z"/>
<path class="st1" d="M741.7,219.7c-0.1-4.5,0-9-0.2-13.5c-0.4-15.3-7.1-27.1-21.3-33.1c-10-4.3-20.2-1-30,2.5
	c-4.4,1.6-8.3,4.7-13.1,5.3c10.1-12.3,32.8-17.8,46.9-11.3c15.1,6.9,23.5,24.6,20,42.8C743.5,214.9,744.5,218,741.7,219.7z"/>
<path class="st5" d="M526.5,278.4c-0.9,1.6-0.7,2.5,1.2,3.4c3.9,2,8,2,12.1,1.4c3.3-0.5,6.5-1.2,9.7-1.9c2.1-0.5,4.7-1.8,6.1,0
	c1.5,1.9,0.1,4.3-1.3,6.2c-0.8-3.5-2.9-3.5-5.7-2.1c-6.5,3.2-13.1,5.7-20.3,6.7c-9.4,1.4-17.4-2.3-20.6-9.6c-1.3-3-0.9-4.4,2.8-3.6
	C515.9,280,521.2,278.8,526.5,278.4z"/>
<path class="st2" d="M676.5,517.6c4,1.4,8.1,2.4,11.8,6.6c-5.4,0.3-10,0-14.7-0.2c-14-0.6-28.1-1.1-41.2,5.4
	c-1.9-4.5,1.5-6.4,4.3-8.2c8.6-5.2,18.1-6.2,27.9-5.2C668.6,516.4,672.6,517.1,676.5,517.6z"/>
<path class="st1" d="M479.4,495.8c-0.6,3.9-1.1,7.9-1.7,11.8c-1.4,9.5,1.2,14,10.3,17c1.1,0.4,2.2,0.9,3.4,0.9
	c4.8,0.1,7.9,1.8,7.6,7.2c0,0-0.2-0.1-0.2-0.1c-1.3,0.2-0.5,0.8-0.3,1.3c-6.1,1.7-12.1-1.1-18.1-1c-1.5,0-1.5-1.5-1.5-2.7
	c-0.2-8.6-4.5-15-11.3-20c-2.4-1.8-3.5-4.1-0.1-5.7C472,502.4,475.6,499,479.4,495.8z"/>
<path class="st1" d="M337.6,300.8c2.7-2.9-0.3-7,2.1-10c2.1,7.2,3.5,14.6,7.5,21.1c0.4,0.7,0.5,1.6,1.6,1.6c2.7,4.2,5.5,8.4,10,11.1
	c1.5,5.3,0.2,10.7,0.8,16.2C347,330.2,339.2,317.2,337.6,300.8z"/>
<path class="st3" d="M406.6,247.3c-0.3-1.1-1.3-1.5-2.2-1.8c-3.2-1.1-6.7-3.6-9.9-1.6c-3.3,2.2-2,6.2-1.2,9.2
	c1.5,5.7-0.5,8.7-6.2,9.8c-1.8-6.1-2.1-12.3-1.3-18.6c0.8-6.3,3.7-8.3,10-6.8c10.7,2.5,19.6,8.5,28.9,15.2c-2.9,1.2-5.4,0.8-7.9,0.4
	C414.1,250.1,410.4,248.7,406.6,247.3z"/>
<path class="st5" d="M358.7,324.6c-4.4-2.7-7.2-6.9-10-11.1c-0.9-4.9-2-9.7-2.8-14.6c-0.3-1.6-1-3.7,0.4-4.7
	c1.5-1.1,3.1,0.5,4.4,1.4c2.3,1.6,4.5,3.4,6.5,5.3c3.4,3.3,5.4,6.9,3.7,12C359.7,316.6,360.2,320.8,358.7,324.6z"/>
<path class="st3" d="M420.4,532.6c-1-5.1-3.7-6.4-9-5.4c-5.1,1-10.6,0.7-15.8-0.8c-1.6-0.4-3.1-1.1-4.5-1.9c-1.7-1-3.7-2.2-3.4-4.5
	c0.3-2.4,2.9-1.6,4.4-2.3c1-0.5,2.2-0.8,3.2-1.1c7.2-0.6,14.1,0.8,20.6,3.7C420.9,522.7,422.4,527.3,420.4,532.6z"/>
<path class="st1" d="M554.8,452.1c-4.3,2.5-2.3,6.6-2,9.9c1.5,15,1.9,30.1,1.8,45.2c0,2-0.5,3.7-2.1,4.8c-3.9,2.8-7.5,6.1-12.3,7.3
	c1.3-3.2,4-5.2,6.7-7c3.9-2.6,5.3-5.9,4.9-10.6c-1.2-17.4-2.1-34.8-3.2-52.2c-0.1-0.9,0-1.9,0-4
	C551.1,448.1,552.9,450.1,554.8,452.1z"/>
<path class="st6" d="M683.6,339.9c-0.4-4.3,3.4-4.9,6-6.3c8.3-4.6,15.6-10.1,19.8-18.9c3.3-6.9,4.2-14.1,2.1-21.6
	c2.8-0.5,4.3,0.6,5,3.4c3,11.9-1.2,21.3-9.8,29.2c-0.8,0-1.6,0.1-1.5,1.3c0,0.2-0.2,0.3-0.4,0.4c-0.6-0.2-0.8,0-0.6,0.6
	c0,0-0.3,0.3-0.3,0.3c-0.9-0.1-1.3,0.4-1.4,1.2c0,0-0.1,0.1-0.1,0.1c-1,0.1-2.2,0-2.2,1.5c0,0-0.4,0.2-0.4,0.2
	c-0.6-0.2-0.8,0-0.9,0.6c0,0-0.2,0.1-0.2,0.1c-0.4,0.2-0.8,0.5-1.1,0.7c0,0,0,0,0,0c-0.9,0-1.5,0.3-1.9,1.1c0,0-0.1,0-0.1,0
	c-0.4,0.2-0.7,0.5-1.1,0.7c-0.7,0.4-1.3,0.7-2,1.1c-1.1,0-2.3-0.1-2.6,1.4c0,0-0.3,0.1-0.3,0.1c-0.4,0.2-0.8,0.4-1.2,0.5
	c-0.2,0.2-0.4,0.3-0.6,0.3c-0.5,0.2-0.9,0.4-1.4,0.7C685.5,339,684.5,339.4,683.6,339.9z"/>
<path class="st5" d="M480.7,245.5c1.2,6.4,2.6,12.6,8.7,16.4c1.5,0.9,3,2.3,4.9,0.7c1.1,2.6,1.9,5.3,3.2,7.8c1.7,3.3,0,4-2.8,4.3
	c-5.2,0.4-10.8-3.2-13.5-9.1c-3.4-7.2-3.6-14.7-0.8-22.1C480.4,244,480.5,244.8,480.7,245.5z"/>
<path class="st5" d="M508.5,241.1c12.4,2,20.8,9.6,27.2,19.9C524,258.2,515.3,251,508.5,241.1z"/>
<path class="st5" d="M638.4,424.4c2.3-3.2,4.9-3.1,6.1,0.4c1.7,5,5.1,5,9,4.4c3.7-0.6,7.1-2.5,11-2.6c-8.7,5.2-16.5,11.4-23.6,19.1
	c0.9-5.7,1.9-11.4,2.6-17.1C644.1,424.8,642.6,422.9,638.4,424.4z"/>
<path class="st1" d="M535.8,218.2c-10.3,1.1-19.4,6.9-29.6,8.1c-7.2,0.9-13.1,4.9-19.8,7.1c4-5.7,10-8,16.3-9.6
	c8.1-2,16-4.2,23.8-7.3C529.8,215.2,533.3,214.5,535.8,218.2z"/>
<path class="st4" d="M627.5,521.5c1-8.3,2.3-16.6,4.6-25.7c2.6,5.7,4.3,11,7.2,15.8c1.1,1.8-0.8,2.2-1.9,2.7
	C633.5,516,630,518.1,627.5,521.5L627.5,521.5z"/>
<path class="st5" d="M406.6,247.3c3.8,1.3,7.5,2.8,10.2,5.9c-5,2.3-10.5,3.4-15.8,3.7c-4,0.2-3.7-5.2-4.1-8.3
	c-0.4-3.3,2.6-2.1,4.4-2C403,246.7,404.8,247.1,406.6,247.3z"/>
<path class="st1" d="M339.8,288.3c-1.5-2.1-2-4.3,1.3-4.6c5.5-0.5,20.8,7.1,21.2,13.6c-4.6-4.3-9.5-8.2-15.6-10.2
	C344,286.3,341.8,286.4,339.8,288.3z"/>
<path class="st1" d="M737.2,266.4c-0.3,0-0.5,0-0.8,0.1c-0.4-3.6-0.4-7.3-1.2-10.8c-2.1-9.1,0.7-17.6,2.9-26.2
	c0.2-0.7,1-1.2,1.5-1.8C735.3,240.3,735.7,253.3,737.2,266.4z"/>
<path class="st1" d="M515.3,296.9c-3.1,3.4-6.8,6.2-10.7,8.5C504.2,300.1,509.9,295.6,515.3,296.9z"/>
<path class="st5" d="M416.2,540.9c-11.8,1-23.7,0.6-35.5,0.2C392.6,540.2,404.4,540.7,416.2,540.9z"/>
<path class="st1" d="M417,506.2c0.5,3.1,0.9,5.4,1.4,7.9C412.4,513.5,412.3,513.3,417,506.2z"/>
<path class="st1" d="M536.2,226.4c-1.2-2.6-0.6-5.4-0.4-8.1C538.1,220.9,537.7,223.6,536.2,226.4z"/>
<path class="st1" d="M542.4,216.5c1.2,2.1,3.2,4.2,0.7,6.7C542.9,221,542.6,218.8,542.4,216.5z"/>
<path class="st1" d="M740.3,225.4c-1.2-2.4-0.3-4.2,1.6-5.8C742.6,222,741.2,223.6,740.3,225.4z"/>
<path class="st1" d="M675.2,183.2c-0.3,1.2-0.2,2.9-2.1,2.4c-1-0.2-1.8-1-0.4-2C673.5,183.5,674.3,183.3,675.2,183.2z"/>
<path class="st1" d="M574.5,423.3c1.1-2.4,2.3-2.8,3.7-0.2C577,423.2,575.8,423.3,574.5,423.3z"/>
<path class="st1" d="M540.5,229.6c-0.3,1.3-1.1,1.9-2.4,1.7c-1.2-0.2-1.4-1.1-1.2-2.2C538.1,229.3,539.3,229.5,540.5,229.6z"/>
<path class="st5" d="M448.2,545.1c-1.8,0.5-3.7,0.5-5.4-0.4C444.6,544.5,446.4,544.5,448.2,545.1z"/>
<path class="st5" d="M666.6,425.6c0.7-1.9,2.2-2.2,4-1.8C669.5,424.9,668.1,425.5,666.6,425.6z"/>
<path class="st1" d="M483.1,238.2c0.5,1.7-0.2,2.7-1.8,3.2C481.5,240.1,481.8,238.9,483.1,238.2z"/>
<path class="st1" d="M480.7,245.5c-0.1-0.7-0.2-1.5-0.3-2.2c0.3-0.6,0.7-1.3,1-1.9C481.5,242.8,481.7,244.2,480.7,245.5z"/>
<path class="st1" d="M565.4,524.6c-0.5-0.1-1.1-0.2-1.6-0.2c0.1-1.2,0.3-2.4,1.5-3C565.3,522.4,565.4,523.5,565.4,524.6z"/>
<path class="st5" d="M554.2,288.2c0.4,1.3,0.3,2.4-0.8,3.3C553.7,290.4,553.9,289.3,554.2,288.2z"/>
<path class="st1" d="M540.4,521.4c-0.7,0-1.3,0-2,0.1c0.1-1,0.4-2,1.6-2.3C540.2,519.9,540.3,520.6,540.4,521.4z"/>
<path class="st5" d="M689.9,336.9c0.3-1.5,1.4-1.4,2.6-1.4C691.9,336.5,690.9,336.7,689.9,336.9z"/>
<path class="st5" d="M460.2,544.7c-0.7,0.7-1.5,0.8-2.4,0.2C458.6,544.9,459.4,544.8,460.2,544.7z"/>
<path class="st5" d="M700.1,330.9c0-1.5,1.2-1.4,2.2-1.5C701.8,330.4,701,330.7,700.1,330.9z"/>
<path class="st1" d="M484.5,235.5c0,1.2,0,2.4-1.4,2.8C483.1,237.1,483.6,236.2,484.5,235.5z"/>
<path class="st1" d="M558.8,455.4c-1.3,0-2.1-0.5-2.3-1.9C557.3,454.1,558,454.8,558.8,455.4z"/>
<path class="st1" d="M677,181.1c0.1,1.4-0.6,2-1.9,2.2C675.4,182.3,675.7,181.2,677,181.1z"/>
<path class="st3" d="M379.4,531.7c-1-0.9-1.3-2-0.8-3.3C380,529.2,379.5,530.5,379.4,531.7z"/>
<path class="st5" d="M705.1,326.9c-0.1-1.1,0.7-1.2,1.5-1.3C706.1,326.1,705.6,326.5,705.1,326.9z"/>
<path class="st5" d="M695.6,333.7c0.3-0.8,1-1.1,1.9-1.1C696.9,333,696.3,333.3,695.6,333.7z"/>
<path class="st5" d="M702.4,329.3c0.2-0.8,0.5-1.4,1.4-1.2C703.3,328.5,702.8,328.9,702.4,329.3z"/>
<path class="st1" d="M542.8,225.6c0.6,0.8,0.5,1.4-0.3,1.9C542.6,226.9,542.7,226.2,542.8,225.6z"/>
<path class="st1" d="M542.4,228c-0.2,1-0.9,1.4-1.8,1.6C541.2,229,541.8,228.5,542.4,228z"/>
<path class="st1" d="M541.4,214.6c0.8,0.4,1.1,1.2,1.1,2.1C542.1,215.9,541.7,215.2,541.4,214.6z"/>
<path class="st1" d="M519.7,195.5c0.8,0.1,1.4,0.5,1.5,1.4C520.4,196.8,520,196.3,519.7,195.5z"/>
<path class="st5" d="M664.6,426.6c0.4-0.8,1.1-1.1,1.9-1C666.1,426.4,665.4,426.6,664.6,426.6z"/>
<path class="st1" d="M737.7,441.4c-0.9-0.4-1.2-1.1-1.2-2C737.3,439.8,737.6,440.6,737.7,441.4z"/>
<path class="st5" d="M670.7,423.8c0.5-1,1.2-1.1,2.2-0.8C672.2,423.3,671.5,423.5,670.7,423.8z"/>
<path class="st1" d="M556.4,453.5c-0.9-0.1-1.5-0.4-1.8-1.3C555.5,452.2,556.1,452.7,556.4,453.5z"/>
<path class="st5" d="M555.5,174.5c0.1-0.2,0.3-0.3,0.4-0.5c0,0.1,0,0.2,0,0.3C555.8,174.5,555.6,174.5,555.5,174.5L555.5,174.5z"/>
<path class="st5" d="M555.5,174.6c-0.3,0.4-0.6,0.7-0.9,1.1c0,0-0.3-0.3-0.3-0.3C554.7,175.1,555.1,174.8,555.5,174.6
	C555.5,174.5,555.5,174.6,555.5,174.6z"/>
<path class="st1" d="M675.5,177.1c0.3-0.5,0.7-1,1-1.6C676.2,176.1,675.8,176.6,675.5,177.1z"/>
<path class="st5" d="M697.5,332.6c0.4-0.2,0.8-0.5,1.1-0.7C698.3,332.1,697.9,332.4,697.5,332.6z"/>
<path class="st5" d="M698.8,331.8c0-0.6,0.3-0.8,0.9-0.6C699.4,331.4,699.1,331.6,698.8,331.8z"/>
<path class="st1" d="M736.5,439.5c-0.3-0.4-0.7-0.7-1-1.1C736.2,438.4,736.4,438.9,736.5,439.5z"/>
<path class="st5" d="M686.5,338.5c0.5-0.2,0.9-0.4,1.4-0.7C687.4,338.1,686.9,338.3,686.5,338.5z"/>
<path class="st6" d="M675.1,515.5c0.4,0.3,0.9,0.5,1.3,0.8C676,516,675.5,515.8,675.1,515.5z"/>
<path class="st1" d="M486.5,233.5c-0.3,0.3-0.7,0.7-1,1C485.5,233.9,485.8,233.5,486.5,233.5z"/>
<path class="st5" d="M537.4,345.6c-0.1-0.2-0.2-0.4-0.3-0.6c0.2,0.1,0.4,0.2,0.6,0.3C537.7,345.3,537.4,345.6,537.4,345.6z"/>
<path class="st1" d="M485.5,234.5c-0.3,0.4-0.6,0.7-1,1.1C484.9,235.2,485.2,234.8,485.5,234.5z"/>
<path class="st5" d="M694.5,334.5c0.4-0.2,0.7-0.5,1.1-0.7C695.2,334,694.8,334.2,694.5,334.5z"/>
<path class="st4" d="M627.5,521.6l-0.1,0C627.3,521.6,627.5,521.5,627.5,521.6C627.5,521.5,627.5,521.6,627.5,521.6z"/>
<path class="st5" d="M672,223c0.1-0.5,0.3-1,0.4-1.5C672.3,222,672.1,222.5,672,223z"/>
<path class="st5" d="M704.1,327.8c-0.1-0.6,0.1-0.8,0.6-0.6C704.7,327.6,704.5,327.8,704.1,327.8z"/>
<path class="st5" d="M688.5,337.6c0.4-0.2,0.8-0.4,1.2-0.5C689.3,337.2,688.9,337.4,688.5,337.6z"/>
<path class="st1" d="M522.2,197.8c0.4,0.4,0.8,0.7,1.1,1.1C522.7,198.8,522.3,198.4,522.2,197.8z"/>
<path class="st3" d="M498.5,533.8c-0.2-0.5-1.1-1.1,0.3-1.3C499.2,533.1,499.1,533.5,498.5,533.8z"/>
<path class="st1" d="M521.2,196.7c0.4,0.4,0.7,0.7,1.1,1.1C521.6,197.8,521.3,197.4,521.2,196.7z"/>
<path class="st1" d="M536.9,229c-0.5,0.2-0.9,0.2-0.5-0.5C536.7,228.6,536.9,228.7,536.9,229z"/>
<path class="st1" d="M523.3,198.7c0.4,0.4,0.7,0.9,1.1,1.3C524,199.5,523.7,199.1,523.3,198.7z"/>
<path class="st1" d="M738.5,442.5c-0.3-0.4-0.7-0.8-1-1.2C737.9,441.7,738.2,442.1,738.5,442.5z"/>
<path class="st7" d="M449.3,149.1c5.4,10.3,5.5,20.9,0.8,31.2c-2.2,5-2.6,9.4-0.8,14.3c1.6,4.5,0.7,5.7-4,4.3
	c-5.6-1.6-10.2-1.1-15.7,1.3c-13.5,5.8-26.7,3.4-37.9-5.9c-11.2-9.2-15.6-21.5-13.3-36.1c0.5-3.2,2.7-5.7,3.3-8.7
	c3.2-0.7,4.6-3.6,6.7-5.6c12.8-12.4,34.1-14.6,49.1-5.1c2.6,1.7,4.8,4.1,8,4.8c0,0,0,0,0,0c0.3,1.8,0.9,3.4,2.9,4
	c0,0,0.1,0.2,0.1,0.2C448.8,148.1,449,148.6,449.3,149.1z M431,161.7c0.2-6.6-6.6-10.7-12.6-7.4c-2,1.1-3.4,1.8-5.7,0.3
	c-4.4-2.7-8.5-1.9-11.2,1.4c-2.7,3.4-2.5,8.1,0.9,11.8c3.3,3.5,6.8,6.8,10.1,10.3c1.9,2,3.5,2,5.4,0c3.4-3.6,7-7.1,10.5-10.6
	C430.1,165.8,430.8,163.9,431,161.7z"/>
<path class="st6" d="M445.6,143.5c-3.2-0.6-5.4-3.1-8-4.8c-15-9.5-36.3-7.3-49.1,5.1c-2.1,2-3.5,4.9-6.7,5.6
	c4.3-10.6,12.6-16.7,23.1-20C420.3,124.6,438.3,131,445.6,143.5z"/>
<path class="st6" d="M448.5,147.5c-2-0.5-2.7-2.1-2.9-4C447.3,144.3,448,145.8,448.5,147.5z"/>
<path class="st6" d="M449.3,149.1c-0.2-0.5-0.4-1-0.7-1.4C449.3,147.9,449.4,148.5,449.3,149.1z"/>
<path class="st0" d="M620.5,262.7c0,3-0.8,5.9-2.1,8.7c-0.9,1.9-2.1,3.7-4.6,2.5c-2.2-1.1-1.6-2.9-0.9-4.7
	c3.4-9.3-0.6-16.4-10.2-18.7c-5.8-1.3-10.4,0.9-14.7,4.5c-1.7,1.5-3.5,3.9-5.8,1.3c-2.2-2.6,0.3-4.3,2-5.7
	c9.6-8.4,23.7-8.4,32.3,1.7C619.1,255.2,620.4,258.7,620.5,262.7z"/>
<path class="st4" d="M623.7,174.6c2.6-0.1,4.8,0.5,4.7,3.7c-0.1,3-2.4,3.9-4.8,4c-2.4,0-4.9-0.9-4.8-3.9
	C618.9,175.5,621.1,174.6,623.7,174.6z"/>
<path class="st0" d="M463.7,304.5c3.3,7.8,1.8,12-5,14.9c-1.4,0.6-2.4,1.2-3.2,2.7c-3.5,6.2-8.4,7.7-15.7,4.8c2.2-1,4.4-1.7,6.3-2.8
	c2.6-1.5,3.6-3.9,2.9-6.8c-0.7-3.4-3.4-2.2-5.6-2.2c-1.9,0-4.2,0.5-5.3-1.7c-1.2-2.3,0.3-4.2,1.6-5.8c1.2-1.5,2.8-2.9,4.5-3.8
	c3.8-2.1,6.5-0.6,6.8,3.8c0.2,2.7-0.6,6.2,3.4,6.5c4.1,0.4,6.8-2,8.1-6C463,307,463.3,306,463.7,304.5z M442.6,311.1
	c2.4,0.1,4.2,0.3,4.6-2.2c0.1-0.5-0.4-1.6-0.5-1.6C444.7,307.4,443.6,308.8,442.6,311.1z"/>
<path class="st0" d="M418.4,321.1c-11.1-0.1-14.9,4-14.7,16c-4.9-3.9-5.7-10.4-1.8-15.9C405.5,316.2,411.1,316.2,418.4,321.1z"/>
<path class="st0" d="M460.7,280.7c-7.3-1-10.6,2.2-11.7,8.1c-0.2,1.3-0.9,2.3-2.1,2.5c-1.6,0.2-1.5-1.5-1.8-2.5
	c-1.4-4.2,0.5-9.4,4-11.4C452.6,275.4,456.5,276.3,460.7,280.7z"/>
<path class="st0" d="M545.9,182c-0.5,0.5-0.9,1-1.4,1.6c0,0-0.1-0.1-0.1-0.1c-0.1-0.9,0.2-1.6,1-2
	C545.6,181.6,545.7,181.8,545.9,182z"/>
<path class="st0" d="M546.3,180.4c0.3-0.4,0.6-0.7,0.9-1.1c0.2,0.2,0.5,0.5,0.7,0.7c-0.3,0.3-0.7,0.7-1,1
	C546.7,180.8,546.5,180.6,546.3,180.4z"/>
<path class="st0" d="M546.9,181c-0.3,0.3-0.7,0.6-1,1c-0.2-0.2-0.3-0.4-0.5-0.6c0.3-0.4,0.6-0.7,0.9-1.1
	C546.5,180.6,546.7,180.8,546.9,181z"/>
<path class="st0" d="M544.5,183.6c-0.2,0.2-0.4,0.5-0.5,0.7C543.5,183.6,543.8,183.5,544.5,183.6
	C544.4,183.5,544.5,183.6,544.5,183.6z"/>
<path class="st3" d="M431,161.7c-0.2,2.2-0.9,4.2-2.6,5.8c-3.5,3.5-7.1,7-10.5,10.6c-1.9,2-3.5,2-5.4,0c-3.3-3.5-6.9-6.7-10.1-10.3
	c-3.4-3.7-3.6-8.4-0.9-11.8c2.6-3.3,6.8-4.1,11.2-1.4c2.4,1.5,3.7,0.8,5.7-0.3C424.4,151,431.2,155.1,431,161.7z"/>
<path class="st5" d="M442.6,311.1c1-2.4,2-3.7,4.1-3.8c0.2,0,0.6,1.1,0.5,1.6C446.9,311.4,445,311.2,442.6,311.1z"/>
</svg>
