<?xml version="1.0" encoding="utf-8"?>
<!-- Generator: Adobe Illustrator 26.0.0, SVG Export Plug-In . SVG Version: 6.00 Build 0)  -->
<svg version="1.1" id="_x30_3030b4a-9996-4111-83fa-29dc66776d7b"
	 xmlns="http://www.w3.org/2000/svg" xmlns:xlink="http://www.w3.org/1999/xlink" x="0px" y="0px" viewBox="0 0 1000.8 738.8"
	 style="enable-background:new 0 0 1000.8 738.8;" xml:space="preserve">
<style type="text/css">
	.st0{fill:#05D8FD;}
	.st1{fill:#0D0C6B;}
	.st2{fill:#D3B2F5;}
	.st3{fill:#FB9234;}
	.st4{fill:#AD531F;}
	.st5{fill:#F93535;}
	.st6{fill:#FEFEFE;}
</style>
<path class="st0" d="M222.2,540c-5.8-4.8-8.5-11.7-12-18c-33.3-60.6-47.8-125.4-38.7-194.1c17.2-130,88.1-219.6,209.4-268.5
	c49.6-20,101.9-24.8,154.9-17.3c104.4,14.6,183.6,68,238.1,157.7c23.6,38.8,36.9,81.3,42.2,126.5c6,51.4-0.3,101.2-17.7,149.8
	c-1,2.8-1.4,6.1-4.2,8c-1.6-0.6-2.1-2.2-2.9-3.5c-13.5-23.4-30.5-43.3-55.5-55c-3.7-1.7-3.1-3.2-0.8-5.7
	c9.7-10.5,17.2-22.5,21.6-36.1c1.6-5,4.3-8.2,8.4-11.2c29.9-21.5,41.5-56,31.3-91.3c-7.5-25.7-25.2-43.1-47.1-56.8
	c-10.3-6.4-18-14.7-23.7-25.2c-2-3.7-4.2-7.3-6.5-10.8c-16.7-25.5-40.3-34.1-69.3-24.8c-5.6,1.8-10.4,1.4-15.9,0
	c-44.9-11.9-86.6-4.9-124.7,21.9c-3.2,2.3-6.1,3.5-10.2,3.5c-32.6-0.2-54.8,16.1-60.4,47.7c-3.7,21.1-10.5,39.9-24,56.3
	c-0.3,0.3-0.5,0.7-0.7,1.1c-1.8,4.3-4.1,4.4-8.1,2.2c-27.7-15.1-57.2-20.1-88.4-14.8c-3.8,0.6-5.1-0.5-6.3-3.6
	c-4.1-10.5-9-20.7-15.8-29.7c-14.8-19.4-31-17.9-41.5,3.8c-10.2,21.1-14.5,43.9-18.7,66.7c-1.3,6.9-2.1,13.7-6.6,19.7
	c-10.8,14.5-17.6,31.1-21.1,48.8c-1.1,5.7-2.1,10.2-9.5,9.1c-2-0.3-4.2,1-7.4,2c3.4,0.7,5.5,1.5,7.6,1.6c5.3,0.2,7.1,2.4,6.7,7.8
	c-0.5,5.9-0.2,11.9,0.1,17.9c0.2,3.6-0.6,5.7-4.6,6.5c-3.2,0.6-6.3,2-9.2,5.5c3.8-0.4,6.4-0.4,9-1c4.8-1.1,7.3,0.3,8.2,5.5
	c1.1,6.3,3.3,12.6,6.8,17.8c3,4.5,1.6,6.5-2.2,8.9c-3.5,2.1-5.9,5.2-8.1,10.2c5.2-2.8,9.1-4.9,12.9-7.1c2.1-1.2,3.5-1.1,5,1
	c6.5,9.3,14.6,17.2,23.6,24c1.5,1.1,2.7,2.1,1.4,4.3C239.8,514.7,232.4,528.3,222.2,540z"/>
<path class="st1" d="M222.2,540c10.2-11.7,17.6-25.3,25.2-38.7c1.3-2.2,0.1-3.1-1.4-4.3c-9-6.9-17.1-14.7-23.6-24
	c-1.5-2.1-2.9-2.2-5-1c-3.8,2.2-7.7,4.3-12.9,7.1c2.2-4.9,4.6-8.1,8.1-10.2c3.9-2.3,5.3-4.3,2.2-8.9c-3.5-5.3-5.7-11.5-6.8-17.8
	c-0.9-5.1-3.3-6.6-8.2-5.5c-2.5,0.6-5.2,0.6-9,1c2.9-3.6,6.1-4.9,9.2-5.5c4.1-0.7,4.8-2.9,4.6-6.5c-0.3-6-0.6-12-0.1-17.9
	c0.5-5.4-1.4-7.7-6.7-7.8c-2.1-0.1-4.3-0.9-7.6-1.6c3.3-0.9,5.5-2.2,7.4-2c7.4,1,8.4-3.4,9.5-9.1c3.5-17.7,10.3-34.3,21.1-48.8
	c4.5-6.1,5.4-12.8,6.6-19.7c4.2-22.8,8.5-45.6,18.7-66.7c10.5-21.8,26.7-23.2,41.5-3.8c6.9,9,11.7,19.2,15.8,29.7
	c1.2,3.1,2.6,4.3,6.3,3.6c31.1-5.2,60.7-0.3,88.4,14.8c4,2.2,6.3,2.1,8.1-2.2c0.2-0.4,0.4-0.8,0.7-1.1c13.5-16.4,20.3-35.2,24-56.3
	c5.6-31.6,27.8-47.9,60.4-47.7c4.1,0,7-1.2,10.2-3.5c38.1-26.8,79.8-33.8,124.7-21.9c5.5,1.5,10.3,1.8,15.9,0
	c29.1-9.3,52.6-0.7,69.3,24.8c2.3,3.5,4.5,7.1,6.5,10.8c5.7,10.5,13.4,18.8,23.7,25.2c21.9,13.6,39.6,31,47.1,56.8
	c10.3,35.4-1.4,69.8-31.3,91.3c-4.1,3-6.8,6.3-8.4,11.2c-4.4,13.6-11.9,25.6-21.6,36.1c-2.3,2.5-2.9,3.9,0.8,5.7
	c25,11.7,42.1,31.6,55.5,55c0.8,1.3,1.3,2.8,2.9,3.5c3.1,6.2,1.2,11.8-1.6,17.5c-11.5,23.4-24.6,45.8-41.2,66c-3.2,3.9-2,7.3-1.4,11
	c2.6,15.1,3.4,30.3-0.7,45.3c-4.5,16.8-14.5,28.4-32,32.5c-15.7,3.6-28.5-1.7-36.4-15.7c-2.6-4.5-4.1-4.7-8.2-1.9
	c-11.4,7.9-23.6,14.5-36.2,20.5c-2.7,1.3-4,2.6-3.3,5.9c3.3,16-0.5,30.1-14,39.9c-14.3,10.5-30.2,11.2-46.4,4.5
	c-9-3.7-16-10-21.3-18.2c-1.6-2.6-3.2-3.7-6.7-3.6c-5.9,0.2-11.8-1-17.7-1.6c-1.6-0.6-3.2-1.3-4.9-1.7c-21-4.5-39.8-12.9-53.9-29.8
	c-0.1-0.2-0.7,0.1-1.3,0.1c-0.6,10.8-1.3,21.5-3.3,32.2c-1.7,3.2-4.5,3-7.5,2.7c-17.4-1.7-34.4-5.1-51.2-9.9c-3.7-1-5.9-0.7-8.6,2.2
	c-16.1,17.2-38.2,12.6-46.5-9.5c-0.6-1.6-1.7-3.3-1.6-5c0.2-9-5.7-12.8-12.8-16.1c-3.1-1.4-4.3-1.4-5.6,2c-4,9.9-11,17.1-21.4,20.2
	c-9.7,2.8-18.5-1.1-24.7-10.8c-9.6-15-11.9-31.6-10.3-48.9c0.4-4.2-0.5-6.8-3.6-9.6c-17.3-15.9-32.5-33.6-46.1-52.7
	C221.1,547.7,219.5,544.2,222.2,540z M438.1,277.2c-0.2,0.1-0.4,0.2-0.6,0.3c0.2-0.1,0.3-0.3,0.5-0.4c0.5-0.4,1-0.7,1.5-1.1
	c2.3-0.9,4.4-2.1,6-4c2.9-1,5.7-2.3,8.6-3.1c3.6-0.9,5.5-2.7,6.2-6.6c2.2-12.2,6.6-23.5,12.2-34.6c4.2-8.3,10.7-14.9,14.8-23.2
	c2.5-1.1,4.4-2.7,5.6-5.2c-21.9-0.7-40.2,14.7-45.4,38.1c-2.8,12.6-3.6,25.7-9.2,37.7C438,275.8,437.3,276.4,438.1,277.2z
	 M784.3,487.7c-0.2-0.8-0.3-1.6-1.5-1.5l0.1,0.1c-8.9-19.6-23-34.7-40.7-46.6c-9-6-9.1-5.9-15.3,3.3c-5.1,5.8-10.3,11.4-16.2,16.4
	c-16.6,14-35.6,23.4-56.3,29.4c-4.5,1.3-5.7,2.7-3.3,7c2.2,3.9,1.8,8.5,1.9,12.9c-1.9,6.6-4.4,12.7-10.2,17.1
	c-9.6,7.2-25,8.5-37-4.8c-3.4-5.8-5.7-12-4.7-18.9c0.5-3.4-1-4.2-4-4.2c-25.7,0-50.2-5.6-73.5-16.5c-2.3,0-3.3-2.1-4.7-3.2
	c-4.6-3.7-7.4-3.4-11.5,1.6c-28,34.6-42.7,73.9-42.9,118.5c0,4.2-0.4,8.4,0,12.6c1.8,17.6,4.9,34.7,19.7,46.8
	c16.4,13.3,35.9,18.1,56.3,20.8c3.9,0.5,5.2-1.1,4.2-5c-1.2-4.5-1.4-9.1,1-14.8c4.3,10,7.9,18.8,13.4,26.6
	c4.2,6.1,9.7,10.9,16.3,14.2c7.3,3.6,8.5,3,9.3-4.9c0.5-4.4,0.5-8.9,0.7-14.3c4.5,5.9,4.7,12,5.9,17.7c0.6,2.8,0.3,6.4,4.6,5.3
	c4-1,10,1,10.6-6.2c0.4-5.8,0.9-11.5,1.4-17.7c2.5,2.3,2.9,5,4,7.3c1.3,2.7,0.4,7.5,3.5,7.8c3.7,0.3,4.9-4.4,6.8-7.3
	c0.7-1.1,0.8-2.5,1.2-3.7c4.7-14.5-2.1-34.4-15.1-43c-18.3-12-38.7-13.3-59.7-11.1c-2.3,0.5-4.7,1.5-6.9,1.3
	c-11.7-0.8-23.2,1.3-34.8,2.5c-1.5,0.1-3.3,1.3-4.8-1c14.8-7.1,30.2-10.8,46.2-12.9c9.9-0.7,19.8-0.7,29.7,0.7
	c20.8,3,39.5,9.5,50.1,29.6c1.9,3.6,3.9,1.6,5.9,0.6c12.7-6.2,24.8-13.4,36.7-21c2.9-1.9,4.1-3.7,3.2-7.5
	c-2.7-11.3-3.1-22.7-1.4-34.2c3.7-25.4,12.1-48,38.3-58.9c16.6-5,32.3-2.5,47,6.2c3,1.8,4.5,1.3,6.3-1.6
	c8.1-13.1,16.5-26.1,21.9-40.6c0.3-0.8,0.6-1.5-0.3-2.2c-0.2-0.4-0.4-0.7-0.7-1c0-0.9,0.1-1.7-1-2L784.3,487.7z M782.5,338.3
	c0,0,0.2-0.4,0.2-0.4c0.4-0.9,0.8-1.7,1.3-2.6l-0.1,0.2c8.7-18.3,8.7-37.1,2-55.8c-7.8-21.6-23.9-36.2-42.8-47.9
	c-10.3-6.3-18.1-14.6-24-25c-4.5-7.8-9-15.6-14.8-22.6c-12.1-14.8-33-15.2-46.5-12.7c-0.8,0.2-1.2,0.7-0.3,1.2
	c0.5,0.3,1.3,0.1,2,0.1c0.3,1.8,1.9,2.3,3.2,3.1c19.2,11.8,34.8,27.2,45.6,47c5.6,10.4,12.5,19.6,20.2,28.6
	c5,5.9,9.6,12.2,13.7,18.6c14.6,22.7,21,47.8,21,74.7c0,5.4,0,10.7,0,17.3c8.8-6.6,14.5-14,18.8-22.5
	C782.1,339.1,782.3,338.7,782.5,338.3z M313.8,548.2c0,0.5-0.1,1-0.1,1.5c-1.3,6.8,0.8,12.3,6.7,15.9c5.3,3.3,10.9,3.5,16.2,0
	c6-4,8.1-9.6,6.8-16.6c-2-7.2-7-11.4-14.3-11.7c-6.2-0.3-11.6,2.3-14.2,8.7C314.5,546.7,314.2,547.5,313.8,548.2z M282.3,281.1
	c-1.3-2.5-2.4-5-3.8-7.4c-2.3-3.8-4.6-3.5-6.3,0.4c-1.8,4.1-3.9,8.2-3.8,13c-2.4,4.4-3.6,9-3.4,14.8c4.8-2.6,8.9-5,13.2-7.2
	C286.8,290,286.8,290,282.3,281.1z M746.1,300.1c-0.1-0.5-0.3-0.8-0.6-1.1c-2-6.6-5.1-12.6-8.5-18.6c-9-15.8-21.8-28.7-32.5-43.2
	l0.1,0.1c-2.2-6.3-5.6-11.9-9.4-17.3c-29.3-42-77.7-60.6-128.9-49.6c-38.6,8.3-67.9,29.1-86.4,64.4c-5.7,9.9-8.4,20.7-10.6,31.7
	c-0.3,1.6-0.7,3,0.9,4.1c9.5,6.8,9.8,17.3,10.3,27.3c1,20.3-2.3,40.4-5.8,60.3c-1.7,10-5.7,20.1-0.7,30.3c-0.1,0.1-0.2,0.3-0.2,0.4
	c0.1,0.3,0.2,0.6,0.4,0.9c0.3,1.4,0.6,2.8,1,4.3c-0.1,2.4-0.5,4.9,0.9,7.2c0.2,2,0.4,3.9,0.5,5.9c0,3.5,0.2,7.1-0.1,10.6
	c-0.5,4.7,1,7.4,5.9,8.5c3.4,0.7,6.5,2.3,9,5.3c-2.7,0.9-5.1,0.2-7.4-0.1c-1.6-0.2-3.8-1.6-4.6,0.6c-0.8,1.9,1.4,3,2.7,4.1
	c8.4,7.2,17.7,13.4,28,17.3c48.9,18.8,98.4,20.7,148.2,3.5c25.7-8.8,49.5-21.4,68.5-41.4c14.1-14.9,23.7-32.3,25.7-53.2
	c1.5-11.7,1.8-23.4-0.4-35.1c-0.4-8.9-2.7-17.4-5.7-25.8C746.1,301.2,746.1,300.7,746.1,300.1z M455,315.7c0.1-2,0.4-4,0.2-5.9
	c-0.2-2.5,1.1-6-1.9-7.1c-2.7-1-4.6,1.9-6.6,3.6c-2.8,2.8-5.6,5.6-8.4,8.4c-1.7,1.7-2.5,3.7-0.6,5.8c4.6,5.2,9.3,10.3,14.8,16.5
	C453.7,329.2,455.4,322.6,455,315.7z M751.4,542.1c-0.1-0.3-0.3-0.4-0.6-0.4c-26.9-13.6-52.4-4-63.3,24c-5.1,12.9-7.7,26.4-6.8,40.3
	c0.3,5.3-0.2,11,3.2,15.7c0.6,4.8,2.8,9.1,4.8,13.5c1,2.9,2.9,5.1,5.6,7c0.7-3.4,0-6.8,2.8-9.2c3.6,1.8,3.3,6.1,5.5,8.7
	c0.2,0.6,0.5,1.2,0.7,1.8c-0.3,6.1,3.4,7.1,8.1,5.8c5.1-1.4,10.8-2.4,7.6-10.6c-1.5-3.9-0.9-8.6-1.3-13c2-2.6,2.5-0.2,3.3,1
	c1.2,3.1,2.2,6.2,3.6,9.2c3.1,6.8,4.6,7,8.9,0.6c12.8-19.2,11-39.9,5.9-60.8c-0.6-7.2-3.6-14-3.2-21.3l0-0.1
	c8.4,7.2,8.4,7.2,15.7-2.3c0.8-1,1.6-2,2.5-3c2.4-2.8,1.5-4.7-1.7-5.8C752.3,542.7,751.9,542.4,751.4,542.1z M640.2,495.2
	c-6.2-6.4-12.5-8.1-19.4-5.2c-6.7,2.7-10.2,8.6-10,16.7c1.6,8.6,6.2,13.8,13.5,15.1c6.8,1.2,12.1-1.5,16.2-6.8
	C644.7,509.3,644.5,502.2,640.2,495.2z M443.1,454.3c4.9-1.3,9.6-1.6,14.2-0.1c2.6,0.8,4.2,0.2,4.8-2.7c0.5-2.4,1.4-4.6,2-7
	c3.4-14.6,3.4-14.6-11.1-16.3c-0.2,0-0.4-0.2-0.7-0.4c2.4-2.3,5.6-2.9,8.5-3c5.6-0.2,6.4-2.8,6.5-7.8c0.3-35.4-12.4-65.7-37-90.6
	c-47.1-47.6-121.6-50.2-172.8-6.4c-22.2,19-35.6,43.4-41.7,71.9c-1,4.6,0.2,6.8,4.7,8.2c3.7,1.1,7.2,3.1,10.7,7.6
	c-4.3-1-7.3-1.3-10-2.4c-6.1-2.5-7.8,0-7.4,5.7c0.3,4.6,0.5,9.3,0.6,13.9c0.1,3.6,1.3,5.6,5.3,6c3.8,0.3,7.6,1.3,11,3.5
	c-4.2,3.5-12-2.1-13.4,4.2c-1.1,4.9,2.8,10.4,5.1,15.5c0.2,0.4,0.4,0.8,0.5,1.2c1.6,4.6,4,6.9,9.4,4.8c2.3-0.9,5.2-0.1,7.8-0.1
	c-1.7,2-3.3,3.3-5.1,3.8c-5.3,1.6-5.2,3.7-1.8,7.6c5.9,6.9,12.2,13.4,19.7,18.5c39.7,26.8,83.5,34.4,130.2,27.3
	c19.5-3,37.2-10.7,52.4-23.7c4-3.4,3.9-5.5,0-8.4c-3.7-2.8-7.2-5.8-10.7-8.8c0.5-0.6,1-1.2,1.6-1.7c5.8,0.7,10.3,4.3,14.8,7.7
	c2.4,1.8,3.6,1.8,5.3-0.4c4.3-5.7,7.9-11.7,10.9-18.1c1.2-2.6,0.8-3.9-2-4.9C451.1,457.6,447.1,455.8,443.1,454.3z M416.1,528.6
	c-18,13-37.8,18.4-58.8,19.8c-3.7,0.2-4,1.7-4.2,4.9c-0.8,15.5-13,25.9-27.9,24.1c-14.3-1.7-23.9-14.9-20.9-29.8
	c0.8-4-0.3-4.8-3.6-5.8c-17.3-5.2-33.2-13.2-46.9-25.1c-2.2-1.9-3.2-2.1-4.8,0.6c-5.2,8.5-10.5,16.9-16,25.1
	c-1.8,2.7-0.9,4.2,0.6,6.3c7.9,11.2,16.9,21.5,25.8,31.9c3.8,4.5,6.1,4.9,11.4,1.5c20-13,43.5-12.8,56.2,15.3c5,11,8.1,22.7,7,34.7
	c-0.6,7.2,2.5,9.7,7.7,12.2c3,1.5,4.2,1.5,4.3-2.3c0.4-7.8,2.3-15.3,6-22.2c5.5-10.1,13.2-17.5,25.1-19.6c16.8-2.9,29.2,4,38.4,17.5
	c9.5,14,14,29.8,17,46.2c2.5,13.6,2.4,13.6,16,15.6c0.4,0.1,0.9,0.1,1.3,0.2c3.9,1,5.5-0.5,6-4.5c3.7-31.1-0.5-61-18.7-86.6
	c-10.2-14.3-14.7-29.6-18.1-46C418.4,538.2,417.3,533.9,416.1,528.6z M454.5,597.7c1-15.5,2.8-30.8,6.6-45.8
	c8.1-31.8,22.8-60.1,45.1-84.3c1.3-1.4,5.1-3.1,0.5-5.2c-11.4-5.3-22.2-11.6-31.7-19.8c-6.3,10.6-5.6,19.3,6.6,25.9
	c-4.3,0.6-6.1-1-7.9-2.1c-4.3-2.5-6.8-2.2-8.8,2.9c-1.9,4.9-4.5,9.8-7.9,13.7c-5.3,5.9-7.8,11.7-3.6,19.2c0,0.1-0.5,0.4-0.5,0.5
	c-3.6-0.3-3.5-8.8-9.1-3.8c-5.7,5-11.5,9.8-18.2,13.2c-3.2,1.7-2.7,4-2.1,6.7c2.8,12.5,5.4,25,8.4,37.4c1.1,4.4,0.8,9.4,3.9,13.2
	C443.1,578.1,448.9,587.7,454.5,597.7z M403.4,651.3c1.5,1.5,1.1,3.4,1.4,5c0.9,4.6-3.7,10.4,0.5,13.5c3.8,2.8,9.6,2.8,14.5,4.1
	c0.6,0.2,1.3,0.3,1.9,0.5c2.8,0.8,4.2,0.3,3.4-3.1c-0.9-3.9-1.2-7.9-2-11.7c-3.5-16.3-7.7-32.3-20.3-44.3
	c-12.5-11.9-31.1-9.7-40.7,4.6c-3.8,5.6-6,11.8-6.9,18.4c-1.8,13.1-1.6,25.9,6.3,37.5c1.9-1.9,1.1-5,4.4-6.2
	c0.8,3.5,1.6,6.9,2.4,10.2c0.9,4.1,4.2,3.8,7.3,4c3.6,0.2,2.8-2.6,3.2-4.5c0.6-3.3,1-6.7,3.1-9.7c2.7,3,1.5,7.3,3.8,10.4
	C392,675,398.2,664.8,403.4,651.3z M310.1,663.4c9.8-5.7,13.2-14.5,15-23.7c2.7-14-0.2-27.6-6.5-40.4c-9.1-18.8-23-21.3-41.7-11.3
	c-5,2.7-7.1,5.3-1,9.2c6.2,4,7.6,9.2,6.3,16.8c-2.3,13.3-0.2,26.5,6.2,39.6c2-3.7,3.5-6.4,5.8-10.6c1.2,6.1,1.5,10.6-0.4,14.9
	c-1.8,4.1,1.5,4.9,3.7,6.4c2.8,2,4.2,0.1,5.8-2c2.4-3.2,3.2-7.5,7-10C311.4,656,310.2,659.3,310.1,663.4z M523.5,469.8
	c3.5,3.3,7.7,4.9,11.8,6.7c21.1,9.1,43.1,13,66.1,12.2c3-0.1,5.4-0.7,8.2-2.9c8-6.3,17.4-8.4,27.3-4.4c2.6,1.1,5,1.4,7.7,0.7
	c25.4-6.7,48.3-17.8,67.3-36.4c5-4.9,6.3-6.8,7.4-10.4C659.6,478.3,593.9,486.9,523.5,469.8z M464.9,359.6
	c1.6-9.9,3.1-18.3,4.3-26.7c2-13.1,2.7-26.4,1.6-39.6c-1.3-16.4-8.6-19.9-22.8-11.1c-9.1,5.6-16.5,13.2-23.8,20.9
	c-0.9,1-2.7,1.8-1.6,3.8c2,4.1,7.3,5,10.2,1.7c3.3-3.8,6.8-7.6,11.1-10.4c4.1-2.6,8.2-5.5,13.5-3.1c5.4,2.5,5.6,7.7,5.8,12.4
	c0.6,10.8,0.2,22-3.3,32.1C456.9,348.1,461.5,352.4,464.9,359.6z M245,317.6c7.1-4.2,10.3-9.6,11.5-17.2c1.6-10.4,4-20.8,8.9-30.3
	c4.9-9.6,12.5-10.2,19-1.6c3.8,5,6.5,10.5,8.3,16.5c1.1,3.5,3.2,2.2,5.1,1.3c1.9-0.9,6.1-0.3,4.7-3.8c-5.2-13.4-10.8-26.7-22.5-36.1
	c-4.2-3.3-8.5-2.9-12.2,1.4c-3.6,4.3-6.2,9.1-8.3,14.3C252.2,279.6,248.6,298.2,245,317.6z M323.9,527.6
	c-23.2-4.2-45.4-11.1-67.3-23.1c0.8,2.2,0.9,2.8,1.1,3c14.4,13.4,31.6,21.8,50.4,27.3c1.8,0.5,3.6,0.2,5-1
	C316.2,531.1,320.1,529.7,323.9,527.6z M405.6,523c-22.2,5.1-44.5,7.6-66.6,5.9c7.1,11.9,17.9,11.4,29.5,9.2
	C381.7,535.5,394.6,532,405.6,523z"/>
<path class="st0" d="M463.7,687c2-10.6,2.7-21.4,3.3-32.2c0.6-0.1,1.2-0.3,1.3-0.1c14.1,16.9,32.9,25.4,53.9,29.8
	c1.7,0.4,3.3,1.1,4.9,1.7C506,689.7,484.9,689.2,463.7,687z"/>
<path class="st2" d="M443.1,454.3c4,1.5,8,3.3,12.1,4.6c2.9,0.9,3.2,2.2,2,4.9c-3,6.5-6.6,12.5-10.9,18.1c-1.7,2.2-2.9,2.2-5.3,0.4
	c-4.4-3.4-9-7-14.8-7.7c-0.5,0.6-1,1.2-1.6,1.7c3.6,2.9,7,6,10.7,8.8c3.9,3,4,5,0,8.4c-15.3,13-32.9,20.7-52.4,23.7
	c-46.7,7.1-90.5-0.5-130.2-27.3c-7.5-5.1-13.8-11.6-19.7-18.5c-3.4-4-3.5-6,1.8-7.6c1.8-0.5,3.4-1.8,5.1-3.8c-2.6,0-5.5-0.7-7.8,0.1
	c-5.3,2.1-7.8-0.3-9.4-4.8c-0.1-0.4-0.4-0.8-0.5-1.2c-2.3-5-6.2-10.5-5.1-15.5c1.4-6.3,9.2-0.7,13.4-4.2c-3.4-2.3-7.2-3.2-11-3.5
	c-4-0.4-5.3-2.4-5.3-6c-0.1-4.6-0.3-9.3-0.6-13.9c-0.4-5.8,1.3-8.2,7.4-5.7c2.7,1.1,5.7,1.4,10,2.4c-3.6-4.5-7-6.5-10.7-7.6
	c-4.5-1.4-5.6-3.7-4.7-8.2c6.2-28.5,19.5-52.9,41.7-71.9c51.2-43.8,125.8-41.2,172.8,6.4c24.6,24.9,37.3,55.2,37,90.6
	c0,5-0.9,7.7-6.5,7.8c-2.9,0.1-6.1,0.6-8.5,3c0.3,0.2,0.5,0.4,0.7,0.4c14.5,1.7,14.6,1.7,11.1,16.3c-0.6,2.4-1.5,4.6-2,7
	c-0.6,2.9-2.1,3.5-4.8,2.7C452.7,452.7,448,453,443.1,454.3z M293.6,418.5c-6,11.6-1.1,23.6,11.5,28.3c4.7,1.8,5.7,4.1,5.5,8.5
	c-0.4,12.1,1.4,23.8,8.2,34.1c7.9,11.9,20.8,13.2,30.9,3.1c8.5-8.4,12.7-19.1,14.6-30.5c1-6,3.2-8.6,9.3-10
	c12.4-2.9,18.6-14.2,14.6-24.9c-2.7,0.9-3.8,3.5-5.4,5.5c-3.1,3.8-6.4,7.3-10.9,9.5c-8.5,4.2-17.6,1.4-23.7-7.1
	c-4.5-6.3-3.7-9.9,3.8-17.8c0.3-0.3,0.7-0.6,0.9-0.9c2.7-3.1,2.3-5.2-2.1-5.6c-4.6-0.4-9.2-1-13.8-1.1c-2.9-0.1-6.8-2.3-8.7,0.7
	c-2.1,3.5,1.9,6,3.9,8.3c3.6,4.1,4.2,7.8,1.1,12.4c-7.7,11.2-21.4,12.2-30.5,2.2C299.1,429,296.6,424.1,293.6,418.5z M313.9,376.9
	c-0.1-8.8-3.8-15.5-9.5-17.4c-6-2-13.6,1.5-18.3,8.9c-4.8,7.5-6.7,15.7-4.7,24.6c1.2,5.2,3.5,9.7,8.9,11.4
	c5.6,1.7,10.5-0.2,14.5-4.3C311.1,393.8,314,385.9,313.9,376.9z M410.6,384.1c-1-1.1-1.3-1.9-1.8-2c-11.7-4.3-29.9,1.5-36.8,11.6
	c-1.1,1.5-1.8,3-0.8,4.9c1.3,2.4,3.6,2.4,5.8,1.8c6.2-1.5,12.2-0.5,18.1,1.4c2.8,0.9,5,3.5,9,2.7c-4-6.9-10.6-9.2-17.7-12.1
	C394,387.1,402,385.9,410.6,384.1z"/>
<path class="st3" d="M474,388.6c-5-10.2-1-20.3,0.7-30.3c3.5-20,6.8-40,5.8-60.3c-0.5-10-0.8-20.5-10.3-27.3
	c-1.6-1.1-1.2-2.5-0.9-4.1c2.2-11,4.9-21.9,10.6-31.7c3.1,1.7,3.1-1.6,3.9-2.8c4.1-5.7,8.2-11.5,13.3-16.5
	c32.5-31.8,71.9-42.9,116.4-37.9c-0.5,1-1,2-1.6,2.9c-17.4,22.9-23.7,48.9-19.8,77.1c3.4,25.4,15.7,46.6,35.1,63.3
	c13.8,11.9,29.7,19.5,47.7,22.4c-1,6.6-4.9,11.7-9,16.6c-15.5,18.1-42.6,15.9-55.3-4.3c-2.3-3.7-3.1-6.8,0.3-10.6
	c3.4-3.7,6-8.2,8.9-12.3c1.5-2.2,3.3-4.3,1.4-7.2c-1.7-2.5-4.1-2.2-6.5-1.9c-10.3,1.2-20.6,2.4-30.9,3.6c-2.2,0.3-4.5,0.4-5.4,2.9
	c-1,2.6,0.2,4.7,2.2,6.4c4.2,3.9,8.2,8.1,12.7,11.6c3.3,2.5,3.4,5.2,2.3,8.6c-5.8,19.4-28.1,29.5-46.4,21
	c-9.4-4.4-15.6-12-20.9-20.6c-1.2-1.9-1.7-4.5-4.8-5.8c-1.9,9.1,0.6,16.5,5.6,23.2c8.1,10.9,19.4,15.6,32.7,15.8
	c2.6,0.1,5.5-0.7,6.9,2.5c6.9,16.7,15.8,32.5,21.5,49.7c-0.4,4.2-2.3,5.8-6.9,5.7c-10.3-0.3-20.6-1.2-30.8-2.8
	c-23.5-3.8-45.6-11.1-65.2-25.1c-4.7-3.4-9.7-6.7-10.7-13.2c-0.2-2-0.4-3.9-0.5-5.9c0.4-2.5,1.1-5-0.9-7.2c-0.3-1.4-0.6-2.8-0.9-4.3
	c0.1-0.1,0.3-0.3,0.3-0.4C474.4,389.2,474.2,388.9,474,388.6z M560.6,306.2c-0.2-4.9-0.7-9.6-3-14.1c-5.6-10.7-17.2-12.2-24.5-2.5
	c-8.1,10.7-9.2,22.7-3.6,34.9c4.7,10.2,15.4,11.7,23.2,3.5C558.4,321.9,560.3,314.3,560.6,306.2z"/>
<path class="st3" d="M548.2,619.5c-15.9,2.1-31.4,5.8-46.2,12.9c1.5,2.3,3.4,1.2,4.8,1c11.6-1.2,23-3.2,34.8-2.5
	c2.3,0.2,4.6-0.9,6.9-1.3c1.7,2.2,4,1,6.1,1.2c17,1.7,33.8,4.4,48.3,14.3c12.3,8.4,21.4,18.9,19.5,35.3c-0.6,0.6-1.2,1.2-1.8,1.9
	c-4.8,5.9-5.3,5.8-8.7-0.5c-1.2-2.3-2.4-4.5-4.6-6.2c-3,3.1-1.9,6.5-2.1,9.7c-0.2,3.6,1,8-4.8,8.3c-4.8,0.3-9.6,0.8-9.5-6.4
	c0-1.4-0.9-2.9-1.8-4.2c-1.2-1.8-1.2-5.6-4.4-4.7c-3,0.8-2,4-2.1,6.3c-0.3,7.2-1.5,8.1-7.8,4.7c-11.3-6.2-22-13.1-25.7-26.7
	c-0.6-2.1-1.1-4.5-3.9-4.7c-2.5-0.1-2.5,2.2-3.1,3.7c-1.1,2.9-3.4,2.9-6,3c-15,0.1-29.3-2.7-42.3-10.4c-13.8-8.2-25.6-18-27.2-35.7
	c-0.6-6.3,1.1-12.8-1.1-19c-0.4-3-0.6-6,0.6-8.9l0-0.1c0.2-2.4,0.1-4.9,0.5-7.2c6-33.9,20.2-63.9,42.8-89.9
	c3.9-4.5,7.3-10.1,13.9-11.5c23.3,10.9,47.8,16.4,73.5,16.5c3,0,4.5,0.8,4,4.2c-1,6.9,1.3,13,4.7,18.9c-1.7,1.4-3.3,2.9-5.1,4.1
	C568,548.1,552.3,580.6,548.2,619.5z"/>
<path class="st4" d="M674.9,343.3c-18.1-2.9-34-10.5-47.7-22.4c-19.4-16.7-31.7-37.9-35.1-63.3c-3.8-28.2,2.5-54.2,19.8-77.1
	c0.7-0.9,1.1-1.9,1.6-2.9c2.7-0.4,4.3,0.9,5.9,3c4,5.3,12.4,7.9,18.4,5.4c3.6-1.5,6.3-0.7,9.3,0.7c22.3,10.4,40.3,25.6,53.6,46.4
	c1,1.5,1.3,3.9,3.8,4.1c0,0-0.1-0.1-0.1-0.1c0.5,5.5,3.6,10,6.8,14.1c12,15.5,25,30.2,34.2,47.7c0.3,0.3,0.5,0.7,0.6,1.1
	c0,0.5,0.1,1,0.1,1.5c3,8.3,5.3,16.8,5.7,25.8c-21.2,14-44.3,20.1-69.6,17.2c-1.1-3.5-0.2-7.7-3.6-10.9
	C677.2,337.2,676.1,340.3,674.9,343.3z M664.5,299.2c-1.2-10.2-3.3-20-12.5-26.4c-8.2-5.7-17.2-3-21.1,6.1
	c-5.1,11.7-1.2,28.5,8.7,36.8c7.4,6.3,17.6,4.6,21.8-3.8C663.2,308,664.7,303.8,664.5,299.2z"/>
<path class="st2" d="M548.2,619.5c4-38.9,19.7-71.4,52.5-94.3c1.8-1.3,3.4-2.7,5.1-4.1c12,13.4,27.4,12,37,4.8
	c5.8-4.3,8.3-10.5,10.2-17.1c21.3,0.6,40.5,7.4,57.7,20c-26.2,10.9-34.6,33.4-38.3,58.9c-1.7,11.4-1.3,22.9,1.4,34.2
	c0.9,3.8-0.3,5.6-3.2,7.5c-11.9,7.7-24,14.8-36.7,21c-2,1-4,3-5.9-0.6c-10.6-20.2-29.3-26.6-50.1-29.6
	C568,618.8,558.2,618.8,548.2,619.5z"/>
<path class="st2" d="M416.1,528.6c1.2,5.3,2.2,9.6,3.1,13.9c3.4,16.3,7.9,31.6,18.1,46c18.2,25.6,22.5,55.5,18.7,86.6
	c-0.5,4-2.1,5.5-6,4.5c-0.4-0.1-0.9-0.1-1.3-0.2c-13.7-2-13.6-2-16-15.6c-3-16.4-7.5-32.3-17-46.2c-9.2-13.5-21.6-20.4-38.4-17.5
	c-11.9,2.1-19.6,9.5-25.1,19.6c-3.7,6.9-5.7,14.4-6,22.2c-0.2,3.8-1.3,3.8-4.3,2.3c-5.2-2.6-8.3-5.1-7.7-12.2c1.1-12-2-23.6-7-34.7
	C314.4,569.2,291,569.1,271,582c-5.3,3.5-7.6,3-11.4-1.5c-8.9-10.4-17.9-20.7-25.8-31.9c-1.5-2.1-2.4-3.7-0.6-6.3
	c5.5-8.2,10.8-16.6,16-25.1c1.6-2.6,2.6-2.5,4.8-0.6c13.7,11.8,29.6,19.9,46.9,25.1c3.3,1,4.4,1.8,3.6,5.8
	c-3,14.9,6.5,28.1,20.9,29.8c14.9,1.8,27.1-8.6,27.9-24.1c0.2-3.1,0.5-4.6,4.2-4.9C378.4,547,398.2,541.6,416.1,528.6z"/>
<path class="st3" d="M710.8,528.9c-17.2-12.6-36.4-19.4-57.7-20c-0.1-4.4,0.3-9-1.9-12.9c-2.4-4.3-1.2-5.7,3.3-7
	c20.7-6,39.7-15.4,56.3-29.4c5.9-5,11.1-10.6,16.2-16.4c12.7,6,24.8,13,36,21.7c7.9,6.1,13.2,14.5,20,21.6c0,0-0.1-0.1-0.1-0.1
	c0.1,0.9,0.5,1.4,1.5,1.5c0,0-0.1-0.1-0.1-0.1c0.1,0.8-0.4,1.9,1,2c0.3,0.3,0.5,0.7,0.7,1c0.1,0.7,0.2,1.5,0.3,2.2
	c-5.5,14.5-13.8,27.5-21.9,40.6c-1.8,2.9-3.3,3.3-6.3,1.6C743,526.4,727.4,523.9,710.8,528.9z"/>
<path class="st3" d="M682.2,344.7c25.3,2.8,48.5-3.2,69.6-17.2c2.2,11.7,1.9,23.4,0.4,35.1c-4.7,12-11.6,22.4-20.6,31.7
	c-24.6,25.3-55.2,39.2-88.6,48.4c-2.6,0.7-4.7,0-6.9-1.1c-0.1-0.9-0.1-1.8-0.2-2.7c1.1-1.7,0.8-3.5-0.1-5.2c0.2-1,0.5-2,0.7-3
	c2.1-1.6,1.5-3.8,1.2-5.9c2.6-12.9,5.3-25.9,7.9-38.8c0.6-2.8,1.5-4.4,4.8-5.3C669,375.8,680.1,364.1,682.2,344.7z"/>
<path class="st0" d="M454.5,597.7c-5.6-10-11.5-19.6-18.7-28.3c-3.1-3.7-2.8-8.7-3.9-13.2c-3-12.4-5.6-24.9-8.4-37.4
	c-0.6-2.6-1.1-5,2.1-6.7c6.7-3.5,12.5-8.3,18.2-13.2c5.7-5,5.5,3.5,9.1,3.8c0.1-0.1,0.6-0.5,0.5-0.5c-4.2-7.4-1.7-13.2,3.6-19.2
	c3.4-3.9,6-8.8,7.9-13.7c2.1-5.1,4.5-5.4,8.8-2.9c1.8,1,3.6,2.6,7.9,2.1c-12.2-6.6-12.9-15.3-6.6-25.9c9.5,8.2,20.2,14.5,31.7,19.8
	c4.6,2.1,0.8,3.8-0.5,5.2c-22.3,24.2-37,52.5-45.1,84.3C457.3,566.9,455.5,582.2,454.5,597.7z"/>
<path class="st4" d="M636.2,441.4c2.2,1.1,4.3,1.9,6.9,1.1c33.3-9.2,64-23.1,88.6-48.4c9-9.3,16-19.7,20.6-31.7
	c-2,20.9-11.6,38.3-25.7,53.2c-19,20-42.8,32.5-68.5,41.4c-49.8,17.1-99.2,15.3-148.2-3.5c-10.4-4-19.6-10.1-28-17.3
	c-1.3-1.1-3.5-2.2-2.7-4.1c0.9-2.2,3-0.7,4.6-0.6c2.3,0.2,4.7,1,7.4,0.1c-2.5-3-5.7-4.6-9-5.3c-4.9-1-6.4-3.7-5.9-8.5
	c0.4-3.5,0.1-7,0.1-10.6c1,6.5,5.9,9.8,10.7,13.2c19.6,14,41.7,21.3,65.2,25.1c10.2,1.7,20.4,2.5,30.8,2.8c4.5,0.1,6.5-1.5,6.9-5.7
	c0.4,1.7,0.7,3.4,1.1,5.1c3.5,14.7,19,21.8,32.6,15C632.6,458.4,635.8,450.8,636.2,441.4z"/>
<path class="st3" d="M688.7,635.1c-2-4.3-4.1-8.6-4.8-13.5c1.4-1,0.7-2.3,0.5-3.6c-2-18.2,1.2-35.6,9-52.1
	c10.5-22.3,24.1-29.4,48.3-25.6c3,0.5,5.9,2.1,9.1,1.3c0.3,0,0.5,0.2,0.6,0.4c0,0.9,0.6,1,1.3,0.9c3.3,1.1,4.1,3,1.7,5.8
	c-0.9,1-1.7,2-2.5,3c-7.3,9.5-7.3,9.5-15.7,2.3c-0.2-0.3-0.3-0.6-0.5-0.9c-0.1,0.2-0.3,0.4-0.4,0.7c0.3,0.1,0.6,0.2,0.9,0.3
	c-0.4,7.3,2.6,14.1,3.2,21.3c-0.1,4.1-0.1,8.3-0.5,12.4c-1,11.6-2.6,23-8.9,33.2c-2.1,3.4-4.1,7-9.1,5.4c-0.8-1.2-1.3-3.6-3.3-1
	c-1.8,4.4-2.2,9.3-1,13.5c1.8,6.7-1.2,6.7-6.1,6.7c-2.9,0-5-1.3-7.3-2.4c-0.2-0.6-0.5-1.2-0.7-1.8c1.7-4.4-1.6-7.5-3.2-10.8
	c-1.1-2.2-4.3-3.1-4.9,0.8C693.8,635.5,691.2,635,688.7,635.1z"/>
<path class="st4" d="M781.8,339.5c-4.3,8.5-10,15.9-18.8,22.5c0-6.6,0-11.9,0-17.3c0-26.9-6.4-52-21-74.7
	c-4.2-6.5-8.7-12.8-13.7-18.6c-7.6-8.9-14.5-18.2-20.2-28.6c-10.8-19.8-26.4-35.2-45.6-47c-1.3-0.8-2.9-1.3-3.2-3.1
	c14.2-1.6,26.3,2.7,36.7,12.4c6.7,6.3,11.5,14,15.7,21.9c6.7,12.5,15.9,22.3,28.2,29.8c14.9,9,27.5,20.7,36.1,36.1
	c11.1,19.8,13.3,40.7,7.8,62.6c0,0,0.1-0.2,0.1-0.2c-0.4,0.9-0.8,1.7-1.3,2.6c0,0-0.2,0.4-0.2,0.4
	C782.3,338.7,782.1,339.1,781.8,339.5z"/>
<path class="st2" d="M403.4,651.3c-5.1,13.5-11.4,23.6-17.8,28.6c-2.3-3.1-1.1-7.3-3.8-10.4c-2.1,2.9-2.5,6.3-3.1,9.7
	c-0.4,2,0.5,4.8-3.2,4.5c-3.1-0.2-6.4,0.1-7.3-4c-0.8-3.4-1.6-6.7-2.4-10.2c-3.2,1.1-2.5,4.2-4.4,6.2c-7.8-11.6-8.1-24.5-6.3-37.5
	c0.9-6.6,3.1-12.8,6.9-18.4c9.6-14.3,28.3-16.5,40.7-4.6c12.6,12.1,16.8,28.1,20.3,44.3c0.8,3.9,1.1,7.9,2,11.7
	c0.8,3.4-0.6,3.9-3.4,3.1c-0.6-0.2-1.3-0.3-1.9-0.5c-4.9-1.3-10.7-1.3-14.5-4.1c-4.2-3.1,0.4-8.9-0.5-13.5
	C404.4,654.7,404.9,652.8,403.4,651.3z"/>
<path class="st2" d="M310.1,663.4c0.1-4.1,1.3-7.3,0.2-11c-3.8,2.5-4.6,6.8-7,10c-1.6,2.1-2.9,4.1-5.8,2c-2.2-1.6-5.5-2.4-3.7-6.4
	c1.9-4.3,1.6-8.8,0.4-14.9c-2.3,4.2-3.8,6.9-5.8,10.6c-6.4-13.1-8.6-26.3-6.2-39.6c1.3-7.6-0.1-12.8-6.3-16.8c-6.1-3.9-4-6.5,1-9.2
	c18.7-10,32.5-7.5,41.7,11.3c6.2,12.8,9.2,26.3,6.5,40.4C323.3,648.9,319.9,657.7,310.1,663.4z"/>
<path class="st2" d="M704.5,237.3c-2.5-0.2-2.8-2.5-3.8-4.1c-13.3-20.8-31.3-36-53.6-46.4c-3-1.4-5.7-2.3-9.3-0.7
	c-5.9,2.5-14.3-0.1-18.4-5.4c-1.7-2.2-3.2-3.5-5.9-3c-44.5-5-83.9,6.1-116.4,37.9c-5,4.9-9.1,10.7-13.3,16.5
	c-0.8,1.2-0.8,4.5-3.9,2.8c18.4-35.4,47.7-56.1,86.4-64.4c51.1-11,99.6,7.5,128.9,49.6C698.9,225.4,702.3,231.1,704.5,237.3z"/>
<path class="st0" d="M523.5,469.8c70.4,17,136.1,8.5,195.7-34.5c-1,3.7-2.3,5.5-7.4,10.4c-18.9,18.5-41.9,29.7-67.3,36.4
	c-2.7,0.7-5.1,0.4-7.7-0.7c-9.9-4-19.3-2-27.3,4.4c-2.8,2.2-5.2,2.8-8.2,2.9c-22.9,0.7-45-3.2-66.1-12.2
	C531.3,474.7,527,473.2,523.5,469.8z"/>
<path class="st4" d="M465.9,599.3c2.2,6.2,0.5,12.6,1.1,19c1.6,17.7,13.4,27.5,27.2,35.7c13,7.7,27.3,10.5,42.3,10.4
	c2.5,0,4.8-0.1,6-3c0.6-1.5,0.6-3.8,3.1-3.7c2.8,0.2,3.3,2.6,3.9,4.7c3.7,13.6,14.4,20.5,25.7,26.7c6.3,3.4,7.5,2.5,7.8-4.7
	c0.1-2.3-0.9-5.5,2.1-6.3c3.3-0.9,3.2,2.9,4.4,4.7c0.8,1.3,1.8,2.8,1.8,4.2c-0.1,7.2,4.6,6.8,9.5,6.4c5.8-0.4,4.6-4.7,4.8-8.3
	c0.2-3.2-0.9-6.6,2.1-9.7c2.1,1.7,3.3,3.9,4.6,6.2c3.4,6.4,4,6.4,8.7,0.5c0.5-0.7,1.2-1.2,1.8-1.9c0.3,1.1-0.4,2.6,1,3.4
	c-0.4,1.3-0.6,2.7-1.2,3.7c-1.9,2.9-3,7.6-6.8,7.3c-3.1-0.3-2.2-5.1-3.5-7.8c-1.1-2.3-1.5-5-4-7.3c-0.5,6.2-0.9,12-1.4,17.7
	c-0.5,7.1-6.6,5.2-10.6,6.2c-4.3,1.1-4-2.5-4.6-5.3c-1.2-5.7-1.4-11.8-5.9-17.7c-0.3,5.4-0.3,9.9-0.7,14.3c-0.8,7.9-2.1,8.5-9.3,4.9
	c-6.6-3.3-12.1-8-16.3-14.2c-5.4-7.8-9-16.6-13.4-26.6c-2.4,5.7-2.2,10.2-1,14.8c1,3.9-0.3,5.5-4.2,5c-20.3-2.7-39.9-7.5-56.3-20.8
	c-14.8-12.1-17.9-29.2-19.7-46.8c-0.4-4.1,0-8.4,0-12.6C465.1,598.8,465.5,599,465.9,599.3z"/>
<path class="st2" d="M783.9,335.5c5.5-21.9,3.3-42.9-7.8-62.6c-8.6-15.4-21.3-27.1-36.1-36.1c-12.3-7.4-21.5-17.3-28.2-29.8
	c-4.3-8-9-15.7-15.7-21.9c-10.4-9.7-22.5-14-36.7-12.4c-0.7,0-1.4,0.2-2-0.1c-0.9-0.5-0.5-1,0.3-1.2c13.5-2.5,34.4-2,46.5,12.7
	c5.8,7,10.3,14.8,14.8,22.6c5.9,10.3,13.7,18.6,24,25c18.9,11.7,35,26.3,42.8,47.9C792.7,298.5,792.7,317.2,783.9,335.5z"/>
<path class="st2" d="M464.9,359.6c-3.4-7.2-7.9-11.6-5-19.9c3.5-10,3.9-21.2,3.3-32.1c-0.3-4.7-0.4-9.9-5.8-12.4
	c-5.3-2.4-9.4,0.4-13.5,3.1c-4.3,2.8-7.7,6.5-11.1,10.4c-2.9,3.3-8.2,2.3-10.2-1.7c-1-2.1,0.7-2.9,1.6-3.8
	c7.3-7.7,14.7-15.3,23.8-20.9c14.1-8.7,21.5-5.3,22.8,11.1c1.1,13.2,0.3,26.5-1.6,39.6C468,341.4,466.5,349.7,464.9,359.6z"/>
<path class="st2" d="M245,317.6c3.6-19.4,7.3-38,14.5-55.6c2.1-5.1,4.6-10,8.3-14.3c3.7-4.4,8.1-4.8,12.2-1.4
	c11.7,9.3,17.3,22.6,22.5,36.1c1.4,3.6-2.8,3-4.7,3.8c-2,0.9-4,2.2-5.1-1.3c-1.9-5.9-4.6-11.5-8.3-16.5c-6.5-8.6-14.1-7.9-19,1.6
	c-4.9,9.5-7.3,20-8.9,30.3C255.2,308,252,313.4,245,317.6z"/>
<path class="st2" d="M465.9,599.3c-0.4-0.3-0.8-0.5-1.2-0.8c0.2-44.6,14.9-83.9,42.9-118.5c4-5,6.9-5.3,11.5-1.6
	c1.4,1.1,2.4,3.2,4.7,3.2c-6.6,1.4-10,7-13.9,11.5c-22.6,26-36.7,56-42.8,89.9c-0.4,2.4-0.4,4.8-0.5,7.2c0,0,0,0.1,0,0.1
	C465.3,593.3,465.4,596.3,465.9,599.3z"/>
<path class="st4" d="M487.3,204.6c-4,8.3-10.6,14.9-14.8,23.2c-5.5,11.1-10,22.4-12.2,34.6c-0.7,3.9-2.6,5.7-6.2,6.6
	c-3,0.7-5.8,2-8.6,3.1c1.9-12,3.2-24.1,7-35.6C458.2,219.5,469.5,208.3,487.3,204.6z"/>
<path class="st3" d="M640.2,495.2c4.3,7,4.5,14.1,0.2,19.7c-4,5.3-9.4,8-16.2,6.8c-7.3-1.3-11.9-6.6-13.5-15.1
	c2.8-9.2,9.3-13.8,18.8-14.2C633.6,492.3,636.4,495.4,640.2,495.2z"/>
<path class="st3" d="M343.4,549c1.3,7-0.8,12.7-6.8,16.6c-5.3,3.5-10.9,3.4-16.2,0c-5.9-3.7-8-9.2-6.7-15.9c0.9-0.4,0.2-1,0.1-1.5
	c0.4-0.8,0.7-1.5,1.1-2.2c4.3-2.6,8.5-4.9,13.9-4.5C334.8,541.9,339.1,545.4,343.4,549z"/>
<path class="st2" d="M750.8,541.7c-3.2,0.8-6.1-0.8-9.1-1.3c-24.2-3.8-37.8,3.3-48.3,25.6c-7.7,16.5-11,33.8-9,52.1
	c0.1,1.3,0.8,2.6-0.5,3.6c-3.4-4.8-2.8-10.5-3.2-15.7c-0.9-13.9,1.7-27.4,6.8-40.3C698.5,537.7,724,528.1,750.8,541.7z"/>
<path class="st4" d="M323.9,527.6c-3.8,2.1-7.7,3.5-10.8,6.2c-1.4,1.2-3.2,1.5-5,1c-18.7-5.5-35.9-13.8-50.4-27.3
	c-0.3-0.3-0.3-0.8-1.1-3C278.4,516.5,300.6,523.4,323.9,527.6z"/>
<path class="st2" d="M487.3,204.6c-17.9,3.7-29.1,14.9-34.7,31.8c-3.8,11.5-5.1,23.7-7,35.6c-1.7,1.8-3.8,3-6,4
	c-0.4-0.3-0.7-0.6-1.1-0.9c5.6-11.9,6.4-25,9.2-37.7c5.1-23.4,23.5-38.8,45.4-38.1C491.8,201.9,489.8,203.5,487.3,204.6z"/>
<path class="st4" d="M405.6,523c-11,9-23.8,12.5-37.1,15.1c-11.5,2.2-22.4,2.7-29.5-9.2C361,530.6,383.4,528.1,405.6,523z"/>
<path class="st2" d="M623.5,683.6c-1.4-0.8-0.7-2.2-1-3.4c1.9-16.4-7.2-26.9-19.5-35.3c-14.5-9.9-31.3-12.5-48.3-14.3
	c-2-0.2-4.4,1-6.1-1.2c21-2.2,41.4-0.9,59.7,11.1C621.3,649.2,628.1,669.1,623.5,683.6z"/>
<path class="st2" d="M783,486.4c-6.7-7.1-12-15.5-20-21.6c-11.2-8.7-23.2-15.7-36-21.7c6.2-9.1,6.3-9.3,15.3-3.3
	C760,451.7,774,466.8,783,486.4z"/>
<path class="st4" d="M721,626.5c5,1.5,7-2,9.1-5.4c6.3-10.2,7.8-21.6,8.9-33.2c0.4-4.1,0.3-8.3,0.5-12.4c5,21,6.8,41.7-5.9,60.9
	c-4.3,6.4-5.8,6.2-8.9-0.6C723.2,632.7,722.2,629.6,721,626.5z"/>
<path class="st4" d="M455,315.7c0.5,6.9-1.3,13.4-2.4,21.3c-5.5-6.1-10.2-11.3-14.8-16.5c-1.9-2.1-1.1-4.1,0.6-5.8
	c2.8-2.8,5.6-5.6,8.4-8.4C449.5,309.5,452.3,312.6,455,315.7z"/>
<path class="st2" d="M745.5,299c-9.2-17.5-22.2-32.2-34.2-47.7c-3.2-4.1-6.2-8.5-6.8-14.1c10.7,14.5,23.5,27.4,32.5,43.2
	C740.4,286.4,743.5,292.4,745.5,299z"/>
<path class="st4" d="M282.3,281.1c4.5,8.9,4.5,8.9-4.3,13.5c-4.2,2.2-8.4,4.6-13.2,7.2c-0.2-5.7,1-10.4,3.4-14.8
	C272.9,285.1,276.9,281.5,282.3,281.1z"/>
<path class="st2" d="M640.2,495.2c-3.8,0.2-6.6-2.9-10.6-2.7c-9.5,0.4-16,4.9-18.8,14.2c-0.2-8.1,3.3-14,10-16.7
	C627.7,487.1,634,488.8,640.2,495.2z"/>
<path class="st2" d="M343.4,549c-4.3-3.6-8.6-7.1-14.7-7.5c-5.4-0.4-9.6,2-13.9,4.5c2.6-6.4,8-9,14.2-8.7
	C336.4,537.6,341.4,541.8,343.4,549z"/>
<path class="st2" d="M282.3,281.1c-5.3,0.4-9.3,4-14,6c-0.1-4.7,2-8.8,3.8-13c1.8-4,4-4.3,6.3-0.4C279.8,276,281,278.6,282.3,281.1z
	"/>
<path class="st4" d="M703.3,643.3c2.3,1.1,4.4,2.4,7.3,2.4c4.9,0,7.9,0,6.1-6.7c-1.2-4.2-0.7-9.1,1-13.5c0.4,4.4-0.2,9.1,1.3,13
	c3.1,8.2-2.5,9.1-7.6,10.6C706.7,650.4,703,649.4,703.3,643.3z"/>
<path class="st4" d="M688.7,635.1c2.6-0.1,5.1,0.4,5.7-3.5c0.6-3.9,3.8-3.1,4.9-0.8c1.6,3.3,5,6.4,3.2,10.8c-2.3-2.6-2-6.8-5.6-8.7
	c-2.8,2.4-2.1,5.8-2.8,9.2C691.6,640.2,689.7,638,688.7,635.1z"/>
<path class="st2" d="M455,315.7c-2.7-3.1-5.5-6.3-8.2-9.4c2-1.7,3.9-4.6,6.6-3.6c2.9,1.1,1.6,4.6,1.9,7.1
	C455.4,311.8,455.1,313.8,455,315.7z"/>
<path class="st4" d="M475.1,394.2c2,2.2,1.3,4.7,0.9,7.2C474.6,399.1,475,396.7,475.1,394.2z"/>
<path class="st2" d="M746.2,301.7c0-0.5-0.1-1-0.1-1.5C746.1,300.7,746.1,301.2,746.2,301.7z"/>
<path class="st2" d="M313.8,548.2c0.1,0.5,0.7,1.1-0.1,1.5C313.7,549.2,313.8,548.7,313.8,548.2z"/>
<path class="st2" d="M752.7,543c-0.7,0-1.3,0-1.3-0.9C751.9,542.4,752.3,542.7,752.7,543z"/>
<path class="st2" d="M782.8,338c0.4-0.9,0.8-1.7,1.3-2.6C783.6,336.2,783.2,337.1,782.8,338z"/>
<path class="st2" d="M781.8,339.5c0.2-0.4,0.4-0.8,0.7-1.1C782.3,338.7,782.1,339.1,781.8,339.5z"/>
<path class="st2" d="M786.1,492.9c-0.1-0.7-0.2-1.5-0.3-2.2C786.7,491.3,786.4,492.1,786.1,492.9z"/>
<path class="st2" d="M785.1,489.7c-1.4-0.2-0.9-1.2-1-2C785.2,488,785.1,488.8,785.1,489.7z"/>
<path class="st4" d="M474,388.6c0.2,0.3,0.4,0.6,0.5,0.9c0,0.1-0.2,0.3-0.3,0.4c-0.1-0.3-0.3-0.6-0.4-0.9
	C473.8,389,473.9,388.8,474,388.6z"/>
<path class="st2" d="M784.3,487.7c-0.9,0-1.4-0.6-1.5-1.5C783.9,486.1,784.1,486.9,784.3,487.7z"/>
<path class="st2" d="M438,277.1c-0.2,0.1-0.3,0.3-0.5,0.4c0.2-0.1,0.4-0.2,0.6-0.3C438.1,277.2,438,277.1,438,277.1z"/>
<path class="st2" d="M439.5,276c-0.5,0.4-1,0.7-1.5,1.1c0,0,0.1,0.1,0.1,0.1c-0.9-0.8-0.1-1.4,0.3-2.1
	C438.8,275.4,439.2,275.7,439.5,276z"/>
<path class="st1" d="M293.6,418.5c3,5.6,5.5,10.6,9.2,14.7c9.1,10,22.9,8.9,30.5-2.2c3.1-4.5,2.4-8.2-1.1-12.4
	c-1.9-2.3-6-4.8-3.9-8.3c1.8-3,5.7-0.8,8.7-0.7c4.6,0.1,9.2,0.7,13.8,1.1c4.4,0.4,4.8,2.5,2.1,5.6c-0.3,0.3-0.6,0.6-0.9,0.9
	c-7.6,7.9-8.3,11.5-3.8,17.8c6.1,8.5,15.2,11.3,23.7,7.1c4.5-2.2,7.8-5.7,10.9-9.5c1.6-2,2.7-4.6,5.4-5.5c4,10.6-2.2,21.9-14.6,24.9
	c-6.1,1.4-8.3,4-9.3,10c-1.9,11.4-6.2,22.1-14.6,30.5c-10.1,10.1-23,8.8-30.9-3.1c-6.8-10.3-8.6-22.1-8.2-34.1
	c0.1-4.5-0.9-6.8-5.5-8.5C292.5,442,287.6,430,293.6,418.5z M333.7,465.4c-4.1,0.6-10.5,0.4-11.6,6.8c-1.2,7,7.9,17.7,13.4,17.4
	c4.8-0.2,14.8-10.9,14.7-15.5C350.1,470,341.9,465.4,333.7,465.4z"/>
<path class="st1" d="M313.9,376.9c0.1,9-2.8,16.9-9.2,23.3c-4,4-8.9,5.9-14.5,4.3c-5.4-1.6-7.7-6.2-8.9-11.4c-2-8.9,0-17.1,4.7-24.6
	c4.7-7.4,12.3-10.9,18.3-8.9C310.1,361.4,313.8,368.1,313.9,376.9z M297.3,380.4c0.4,2.3,0,5.5,3.5,5.1c4-0.4,5.6-3.9,6-7.3
	c0.3-2.2-0.3-5.7-3.6-5.7C298.4,372.7,297.7,376.7,297.3,380.4z"/>
<path class="st1" d="M410.6,384.1c-8.6,1.8-16.6,3-24.3,8.2c7.1,2.9,13.7,5.2,17.7,12.1c-4,0.8-6.2-1.8-9-2.7
	c-6-1.9-11.9-3-18.1-1.4c-2.2,0.5-4.4,0.6-5.8-1.8c-1-1.8-0.2-3.3,0.8-4.9c7-10.1,25.2-15.9,36.8-11.6
	C409.3,382.2,409.6,382.9,410.6,384.1z"/>
<path class="st1" d="M636.2,441.4c-0.4,9.4-3.6,17-12.5,21.5c-13.6,6.8-29-0.3-32.6-15c-0.4-1.7-0.7-3.4-1.1-5.1
	c-5.7-17.2-14.6-33-21.5-49.7c-1.3-3.2-4.3-2.5-6.9-2.5c-13.3-0.3-24.6-5-32.7-15.8c-5-6.7-7.5-14.2-5.6-23.2
	c3.2,1.4,3.7,3.9,4.8,5.8c5.3,8.6,11.5,16.2,20.9,20.6c18.4,8.5,40.6-1.5,46.4-21c1-3.5,1-6.1-2.3-8.6c-4.5-3.5-8.5-7.7-12.7-11.6
	c-1.9-1.8-3.1-3.8-2.2-6.4c0.9-2.5,3.2-2.7,5.4-2.9c10.3-1.2,20.6-2.4,30.9-3.6c2.4-0.3,4.9-0.6,6.5,1.9c1.9,2.9,0.2,5-1.4,7.2
	c-2.9,4.1-5.5,8.6-8.9,12.3c-3.4,3.8-2.6,6.9-0.3,10.6c12.7,20.2,39.8,22.4,55.3,4.3c4.1-4.9,8-10,9-16.6c1.2-3.1,2.4-6.1,3.7-9.6
	c3.4,3.1,2.6,7.4,3.6,10.9c-2.1,19.5-13.2,31.1-31.8,35.8c-3.2,0.8-4.2,2.4-4.8,5.3c-2.6,13-5.2,25.9-7.9,38.8
	c-1.4,1.8-1.2,3.9-1.2,5.9c-0.2,1-0.5,2-0.7,3c-0.7,1.7-0.7,3.5,0.1,5.2C636,439.6,636.1,440.5,636.2,441.4z M612.9,455.8
	c7.8,0.1,14.6-6.6,13.8-14.4c-0.9-8.7-2.2-17.4-3.7-26.1c-1.3-7.4-7.5-11.6-15-10.6c-6.8,0.8-12.4,7.6-11.6,14.5
	c1,8.7,2.2,17.4,3.7,26.1C601.3,451.5,606.9,455.7,612.9,455.8z"/>
<path class="st1" d="M560.6,306.2c-0.4,8.1-2.3,15.7-8,21.8c-7.8,8.2-18.5,6.7-23.2-3.5c-5.6-12.1-4.5-24.1,3.6-34.9
	c7.3-9.7,18.9-8.2,24.5,2.5C559.9,296.6,560.5,301.4,560.6,306.2z M553.2,304.8c0.1-4.4-0.6-8-4.4-7.9c-4.6,0-5.7,4.1-5.8,8
	c-0.1,3.3,1,6.6,4.8,6.4C552.1,311.1,553,307.4,553.2,304.8z"/>
<path class="st4" d="M466.5,590.4c0,0,0-0.1,0-0.1C466.5,590.3,466.5,590.4,466.5,590.4z"/>
<path class="st1" d="M664.5,299.2c0.2,4.6-1.2,8.8-3.2,12.7c-4.2,8.4-14.4,10.1-21.8,3.8c-9.8-8.3-13.8-25.1-8.7-36.8
	c4-9.2,12.9-11.8,21.1-6.1C661.1,279.2,663.3,289,664.5,299.2z M635.7,289.9c0.7,3.7,1.4,8,6.3,8.4c3.7,0.3,4.6-3.1,4.5-6
	c-0.1-3.8-1.3-7.7-5.8-8.3C637.1,283.6,636.2,286.7,635.7,289.9z"/>
<path class="st4" d="M636.6,430.5c0-2.1-0.2-4.2,1.2-5.9C638.1,426.7,638.6,428.9,636.6,430.5z"/>
<path class="st4" d="M636,438.7c-0.8-1.7-0.8-3.5-0.1-5.2C636.8,435.2,637,436.9,636,438.7z"/>
<path class="st1" d="M736.2,554.2c-0.3-0.1-0.6-0.2-0.9-0.3c0.1-0.2,0.3-0.4,0.4-0.7C735.9,553.5,736.1,553.8,736.2,554.2
	C736.2,554.1,736.2,554.2,736.2,554.2z"/>
<path class="st5" d="M333.7,465.4c8.1-0.1,16.4,4.6,16.5,8.7c0.1,4.7-9.9,15.3-14.7,15.5c-5.5,0.3-14.6-10.4-13.4-17.4
	C323.3,465.9,329.6,466.1,333.7,465.4z"/>
<path class="st6" d="M297.3,380.4c0.4-3.7,1-7.7,5.9-7.8c3.4-0.1,4,3.4,3.6,5.7c-0.5,3.3-2.1,6.8-6,7.3
	C297.3,385.9,297.7,382.7,297.3,380.4z"/>
<path class="st5" d="M612.9,455.8c-6.1-0.1-11.6-4.3-12.7-10.5c-1.5-8.7-2.8-17.4-3.7-26.1c-0.8-7,4.8-13.7,11.6-14.5
	c7.5-0.9,13.7,3.3,15,10.6c1.5,8.7,2.8,17.4,3.7,26.1C627.6,449.2,620.8,456,612.9,455.8z"/>
<path class="st6" d="M553.2,304.8c-0.2,2.6-1,6.3-5.4,6.5c-3.8,0.2-4.9-3.2-4.8-6.4c0.1-3.9,1.2-8,5.8-8
	C552.5,296.8,553.2,300.4,553.2,304.8z"/>
<path class="st6" d="M635.7,289.9c0.5-3.2,1.4-6.3,5-5.9c4.5,0.5,5.7,4.5,5.8,8.3c0.1,2.9-0.7,6.3-4.5,6
	C637,297.9,636.4,293.6,635.7,289.9z"/>
</svg>
