<?xml version="1.0" encoding="utf-8"?>
<!-- Generator: Adobe Illustrator 26.0.0, SVG Export Plug-In . SVG Version: 6.00 Build 0)  -->
<svg version="1.1" id="e66cdcae-b662-46fb-b424-18ba1a805fb0"
	 xmlns="http://www.w3.org/2000/svg" xmlns:xlink="http://www.w3.org/1999/xlink" x="0px" y="0px" viewBox="0 0 832.5 677.8"
	 style="enable-background:new 0 0 832.5 677.8;" xml:space="preserve">
<style type="text/css">
	.st0{fill:#140F68;}
	.st1{fill:#F2E000;}
	.st2{fill:#9795A1;}
	.st3{fill:#FBFBFC;}
	.st4{fill:#B0B0D3;}
	.st5{fill:#CE979D;}
	.st6{fill:#E7BFFE;}
	.st7{fill:#F59A2E;}
</style>
<path class="st0" d="M157.6,359.9c-2-1.4-4.3-2.5-6.1-4.2c-4.8-4.4-4.6-11.1,0.9-14.5c10.1-6.1,15-15.8,18.8-26.2
	c2-5.5,3.4-11.1,5.2-16.7c0.6-1.9,0.7-3.2-0.9-4.8c-16.2-15.6-22.5-35.8-24.9-57.4c-2-17.7-0.7-35.2,5-52.3c1.7-4.9,3.9-9.5,7-13.7
	c6-8.2,13.2-10.5,22.7-6.9c22,8.3,39.1,23.1,53.6,41.1c4.5,5.6,8.6,11.4,12.7,17.3c1.3,1.9,2.5,2.4,4.9,2
	c13.2-2.4,26.5-2.8,39.7-0.6c3.3,0.6,4.7-0.8,6.3-3.3c12.4-19.8,27.4-37.2,47.3-50c5.3-3.4,10.9-6.3,16.8-8.7
	c9.1-3.6,15.5-2.2,21.9,5.3c6.4,7.4,9.5,16.4,11.6,25.7c5.5,24.1,4.7,47.9-3.5,71.3c-3.5,10-8.8,19-16.1,26.8
	c-1.1,1.1-2.8,2-1.9,4.1c4.2,10.8,6.3,22.5,13.1,32.2c3.1,4.4,7.6,7.4,11.1,11.2c5,5.4,10.3,3.5,16,4c8.8,0.8,11.6-2.5,13.5-10.5
	c2.4-10.3,3.2-10.1-6.9-14.3c-5.8-2.4-11.9-4.4-18.1-5.6c-1.3-0.2-3.2-0.3-3.1-1.9c0.3-2.3,2.4-1.2,3.7-1c9.5,1.2,18.6,3.8,26.9,8.6
	c2.5,1.4,3.5,1.1,4.8-1.4c2.3-4.2,2.6-8.9,3.5-13.4c3.8-18.6,9.5-36.4,20.1-52.3c1.3-2,0.8-3.8,0.6-5.7c-1.2-14.1-1.8-28.3,1.4-42.3
	c0.2-1,0.5-1.9,0.8-2.9c3.7-11.7,9.7-15.2,21.6-12.4c14.7,3.4,27.4,10.9,39.6,19.4c3.6,2.5,6.9,3.6,11.4,3.3
	c21-1.6,41.7-0.6,60.8,9.5c2.3,1.2,3.8,0,5.6-0.8c13.9-6.6,28.1-11.9,43.4-14.3c20-3.1,28,3.2,28,23.4c0,20.9-5.7,40.7-13.5,60
	c-1,2.5-1.1,4.6-0.2,7.1c6.5,16.9,10.7,34.3,10.9,52.5c0,3.1,1.2,4,4,4.3c3.3,0.4,6.6,1.1,9.8,1.9c1.1,0.3,3.3-0.1,3,1.8
	c-0.4,2.2-2.5,1-3.7,0.9c-2.8-0.2-5.6-0.6-8.4-1c-3.1-0.5-5.1,0.1-5,3.9c0,2.3-0.6,4.5-1,7.4c7.1-1.9,13.9-3.2,20.9-3
	c23.9,0.6,42.9,16.5,49.4,41.4c2.6,9.8,3.4,19.7,0.1,29.5c-3.7,11.1-13.2,17.9-23.2,16.6c-10.3-1.3-18.2-10.2-19.1-21.8
	c-0.4-5.1-0.5-10.3-2-15.3c-2.2-7.1-7-11.1-12.7-10.6c-6.2,0.6-11.9,6.1-13,12.6c-1.4,8.3,1,15.8,4.6,23.1
	c5.3,10.7,12.5,20,19.6,29.5c14.8,19.7,16.1,42.7,2.9,60.7c-11.8,15.9-28.2,22.2-47.6,21.2c-5.1-0.3-8.7,0.2-12.3,4.7
	c-8.1,10-20.1,11.8-32.1,12.1c-15.3,0.4-30.7-0.1-46,0.4c-17.8,0.6-35.6-0.7-53.4-0.8c-6.3,0-10.2-3.1-11.6-8.9
	c-1.5-6.1,0.5-11.9,5.8-14.5c2.8-1.4,2.5-2.2,1.2-4.7c-6.1-11.3-7.9-22.9-0.8-34.6c0.8-1.3,0.7-2.5,0.4-3.8
	c-0.9-5.2-2-10.5-2.6-15.7c-0.3-2.5-0.6-3.4-3.6-2.6c-21.3,5.4-40.9,0.7-59.3-10.2c-2.1-1.3-4-1.9-6.5-1.4c-6,1.1-11.7,0.2-16-4.7
	c-1.5-1.7-2.2-1.1-3.4,0.2c-3.8,4.2-8.9,5.5-14.1,4.6c-3.9-0.7-6.5,0.5-9.5,2.6c-16,11.1-33.2,19-53.2,19.1
	c-5.4,0-10.7-0.7-15.7-2.5c-2.7-1-3.4,0-4.3,2.2c-6.3,15.9-15,30.4-26.3,43.3c-2.8,3.2-2.2,5,1.7,6.5c7.6,3,10.3,7.6,9.1,14.5
	c-1.2,6.8-6.3,11-14,10.9c-13.3-0.1-26.7-0.9-39.9-0.5c-14.2,0.4-28.5,0.2-42.7,0.7c-5,0.2-10-0.3-14.8-1.6
	c-19.1-5.3-30.1-18-33.7-37.3c-0.4-2.3-0.8-3.9-3.3-4.9c-16.4-6.9-24.3-20.1-26.6-37c-1.3-9.5-0.7-19,3.1-28
	c4.7-11.1,12.1-13.4,22-6.6c6.7,4.6,13.5,9.2,20.8,12.8c1.7,0.8,2.9,1.6,4.6-0.5c8.6-10.2,18.7-18.9,27.9-28.6
	c4.6-4.8,8.7-10.1,12.1-15.8c0.9-1.5,1.8-2.8-0.8-3.8c-12.9-5-23.5-13.6-34.1-22.2c-4.9-4-10.3-7.3-16-10.2c-3.7-1.9-7.3-4-10.1-7.2
	c-4.4-4.8-4.1-9.7,1-13.7C156,361.5,157.3,361.3,157.6,359.9z M642.6,537.6l-0.2,0c1-0.4,1.1-1.2,1.1-2.1l-0.1,0.1
	c1-0.8,0.9-2,1.2-3.1c1.2-2.4,1.5-5.1,1.7-7.7c1.5-24.1-6.7-44.7-22.2-62.7c-9.6-11.2-17.1-23.7-23.3-36.9c-1.6-3.3-3.2-4.3-6.4-2.9
	c-4.6,0.4-9.3,1.1-13.9,1.1c-2.8,0-7.6,1.7-7.9-1c-0.4-3.1,4.6-2.5,7.3-3c13.8-2.9,27.7-5.3,40.9-10.6c13.4-5.4,25.6-12.5,35.2-23.7
	c2.3-2.7,2.2-4-1.7-3.8c-6.2-2.2-12.6-2.2-19.1-2.5c-1.7-0.1-3.7,1-5-1.1c2.5-3.1,6.3-1.7,9.4-2.5c3.9,0.4,7.9,0.2,11.8,1
	c10.1,2,10.9,1.3,13.7-8.6c0.4-1.3,0.6-2.6,0.8-3.8c0.2-1,0.4-1.9,0.6-2.9c1.2-6.4,1.1-6.6-5.3-5.9c-7.8,0.9-15.4,2.7-22.7,5.5
	c-1.3,0.5-3.1,2.1-4,0.6c-1.1-2,1.3-2.7,2.7-3.4c8.2-4.4,17.1-6.6,26.3-7c3.3-0.1,4.2-1.2,4.1-4.4c-0.3-10-1.5-19.9-4-29.6
	c-2.8-10.8-5.8-21.5-8.7-32.2c-0.4-1.5-0.9-4.6,1.2-3.4c4,2.4,3.3-1.1,3.8-2.4c1.4-3.4,2.6-6.8,3.6-10.3c4.6-15.2,7.8-30.6,6.5-46.6
	c-0.3-3.3,0-7.1-3.8-9c0.4-2.5-1.6-2.5-3.1-3c-4-1.3-8.2-1.1-12.3-0.6c-14.2,1.9-27.6,6.7-40.6,12.6c-1.8,0.8-3.3,1.5-2.8,3.9
	c-0.4,0.1-0.9,0.2-1.3,0.3c-25.3-11.7-51.8-13.8-78.9-9.2c-23.9,4.1-43.9,14.8-58,35.2c-10.3,14.9-16.1,31.6-19.7,49.1
	c-1.9,8.8-3.9,17.4-8.9,25.2c-2.5,3.9-4.1,8.3-4.7,13c-0.1,0.3-0.2,0.7-0.3,1c-0.1,0.5-0.1,0.9-0.2,1.4c-1.4,6.4-1.5,12.7,1.1,18.9
	c0,3.5,1.9,6.3,3.6,9.1c6.2,10.4,15.2,18,25.2,24.4c17.4,11.1,36.5,18.3,56.2,23.9c1.3,0.4,3.8,0.1,3.5,2c-0.3,2.1-2.4,1-3.8,0.9
	c-9.3-0.9-9.3-0.9-11.1,8.4c-0.1,0.6-0.2,1.3-0.3,2l-0.2,0.2c-0.1,0.4-0.2,0.9-0.3,1.3c-0.9,5-2,10-2.6,15.1
	c-1.7,14.3-2.8,28.6,0.2,42.9c2.4,18.2,9.9,34.2,20.3,49.1c0.6,0.9,1.2,2.3,2.6,2c1.3-0.3,1.5-1.6,1.7-2.8c0.2-1,0.3-2,0.4-3
	c0.9-11.6,1.9-23.1,2.7-34.7c0.2-3,0.4-6-0.6-8.8c0.2-0.2,0.3-0.5,0.3-0.8c2-0.1,1.3-3.7,3.3-2.9c2.1,0.8,1.1,3.2,1.1,4.9
	c0.2,13.8-0.2,27.5-1.6,41.2c-0.6,5.3-0.6,9.2,5.9,9.7c-5,0.3-9.8,1.3-14.3,3.5c-5.8,2.8-6.2,7.9-1.2,11.9c1.4-0.7-1.5-4.4,2.5-3.4
	c1.3,5.3,3.4,6.6,8.9,5.8c3.9-0.5,1.3-3.3,1.8-4.9c0.2-0.8,0.4-2.3,0.6-2.3c1.6,0,0.7,1.9,1.7,2.4c1.9,5.2,4.9,6.2,10.4,3.3
	c6.6-3.4,8.9-9.8,11.1-16.3c1.9-6.2,3.6-12.5,5.7-18.6c3.1-9.1,4.6-18.7,12.6-25.9c9.3-8.3,19.6-11.4,31.5-11.1
	c1.1,0,2.7-0.1,2.8,1.4c0.1,1.7-1.6,1.2-2.7,1.4c-3.8,0.7-7.6,1-11.3,2.2c-20.4,6.3-27.3,24.3-16.5,42.5c1.6,2.7,3.3,4.1,6.6,4.4
	c3.6,0.3,7.2,0.8,10.6,2.5c-6.4,0.2-12.8,1.1-18.9,3.2c-2.4,0.8-4.6,1.8-5.2,4.7c-0.9,0.8-0.9,1.7-0.3,2.6c0.2,0.5,0.4,1,0.6,1.5
	c-0.1,3.3,2,5.8,4.8,5.4c2.7-0.3,0.5-3.5,1.1-5.3c0.3-0.7,0.5-1.7,1.5-1.8c0.1,0,0.3,1.2,0.5,1.8c0.5,5.5,4.3,5.9,8.6,5.6
	c3.9-0.3,1.7-3,2-4.8c0.2-0.9,0.5-1.7,0.8-3c0.7,1.3,1.1,2.2,1.6,3.1c0.5,3.8,2.9,4.9,6.3,4.6c2-0.2,4-0.3,5.9-0.7
	c12.5-2.5,22.6-8.2,28-20.5l0.1-0.1C642.7,539.2,642.5,538.3,642.6,537.6z M163.6,537.4c0,0.6,0,1.2,0.9,1.1c0,0,0,0,0,0
	c-0.6,2.1,1,3.4,1.9,4.9c7.7,11.6,19.1,16.5,32.5,17.8c4.5,0.4,7-1.3,7.8-5.6c0.8-0.1,1.6-0.1,2,0.8c0.2,1.6-1.6,3.7,0.7,4.8
	c3.6,1.8,8.4-0.6,9.9-4.8c0.6-0.8,1.1-1.5,1.7-2.3c0.2,0.4,0.4,0.9,0.6,1.3c0.6,1.9-1.6,5,1,5.6c3.3,0.7,4.7-2.3,5.6-5.1
	c0.2-0.7,0.1-1.6,0.1-2.5c-0.3-4.6-2.9-6.8-7.3-7.9c-5.7-1.4-11.3-2.7-17.1-2.3c3-2.5,6.8-2.3,10.3-2.9c1.8-0.3,3.6-0.1,4.9-1.9
	c11.7-16.2,8.7-34.5-7.7-43c-5.6-2.9-11.6-3.8-17.6-5.1c-1.5-0.3-4-0.1-4.1-2.1c0-2.5,2.7-2.1,4.3-2.2c13.1-0.7,24,4.1,32.7,13.9
	c4.9,7.9,5.9,16.6,4.8,25.6c-2,4.1-2.8,8.8-5.5,12.6c-1.5,2.1-0.8,2.8,1.3,3.9c5.4,2.9,7.4,7.2,6.6,13.3c-0.3,1.9-0.7,3.7-1,5.6
	c6.4,0.9,11.9-0.7,17.3-3.2c1.5-0.7,2.6-1.1,1.5-3.2c-5-9.5-7-20-9.7-30.3c-1.5-8.3-2.1-16.6-1.8-24.9c2.6-1.4,2.6-1.4,3.5,2.2
	c3.2,13.2,4.4,26.8,9.1,39.6c1.9,8.9,5,17,14.8,19.8c4.2,1.2,7.6,0.2,8.4-4.9c0,0,0.2-0.3,0.2-0.3c0.1-0.4,0.2-0.8,0.2-1.3
	c0.2-0.4,0.6-1.1,0.6-1.1c1.3,0.6,0.3,2.1,1.1,3c0.2,1.6-1.4,3.6,0.7,4.9c3.3,1.9,8.6-0.5,10-4.5c0.4-1.3,0.8-2.5,1.3-4
	c1.1,1.7,0.8,3.7,2.3,4.9c3.3-6.1,2.4-8.5-3.7-11.1c-4.9-2.1-10.1-2.9-15.3-3.3c0.8-0.3,1.5-0.9,2.3-1c5.4-0.3,6.2-3.5,6.1-8.3
	c-0.3-15.8-2-31.5-2.4-47.3c0-1.8-1.8-4.6,1.9-5.1c0.2,0.3,0.3,0.7,0.5,1c1.8,14.8,3.5,29.7,5.4,45.5c10.7-13.8,19.2-27.5,24-43.2
	c0.7-1.5,1.5-3,2-4.6c3.8-12.7,5.8-25.6,5.7-38.8c0-2.9-0.8-6,0.8-8.8c0.1-2.3,0.5-4.7,0.2-7c-0.6-5,1.8-7.5,6.3-9.2
	c9.4-3.4,18.5-7.7,26.7-13.4c15-10.4,28.1-23.3,44-32.6c4.4-2.6,3.9-4.2-0.7-7.1c-2.1-1.3-4.2-2.6-6.3-3.9c-1.7-1.5-2.4-3.4-1.9-5.6
	c3.3-2.8,8.1-1.9,11.5-4.4c3.4-2.4,3.6-4.3,0.1-6.3c-8.4-5-13.5-12.7-17.6-21.2c-4.3-9-6.2-19-9.7-28.3c-1-2.7,0.6-4,2.2-5.5
	c8.4-8,13.9-17.8,17.5-28.7c6.5-19.5,7.5-39.5,4.1-59.7c-1.8-10.6-4.8-20.8-11.8-29.3c-4.4-5.3-8.7-6.4-15.1-3.8
	c-4.3,1.8-8.5,3.8-12.5,6.1c-21.8,12.9-37.6,31.6-50.5,52.9c-2.1,3.4-4.2,4.5-8,3.7c-14.2-2.9-28.5-2.5-42.6,0.6
	c-3.6,0.8-5.5,0.1-7.3-2.9c-4.9-8.1-10.6-15.7-16.9-22.9c-13.3-15.2-28.5-28-47.7-35.3c-6.4-2.5-10.1-1.7-14.7,3.5
	c-4.7,5.2-7.2,11.6-9,18.2c-4.7,17.5-5.2,35.2-2.2,53c3.2,18.5,9.7,35.3,24.3,47.9c2,1.7,2,3.5,1.3,5.8c-2.1,6.7-3.7,13.5-5.9,20.1
	c-3.6,10.7-8.5,20.6-18,27.5c-1.7,1.2-4.5,1.8-3.9,4.5c0.5,2.5,3.1,3.3,5.3,4.1c2.9,1.1,6.4,0.6,8.8,3c0.4,2.6-0.3,4.7-2.7,6.1
	c-1.4,0.9-2.7,1.8-4.1,2.7c-6.2,4.2-6.3,5.1,0.2,9.4c6.9,4.6,14.6,8,20.8,13.5c17.9,15.9,38,27.7,61.4,33.3c1.1,0.3,1.6,1.1,2,2
	c-7,1.2-13.6-0.7-20-2.9c-3.7-1.3-5.6,0-7.3,2.7c-2.8,4.6-5.8,9-9.5,12.8c-9.6,9.9-19.4,19.7-29,29.6c-15.5,16.2-23.4,35.3-21.5,58
	c0.4,4.4,1.3,8.5,3.4,12.4C163.2,536.6,163.4,537,163.6,537.4z M573.6,538.7c-4.7,7-5.6,15.8-11.9,22.5c5.3,0,9.7,0,14.1,0
	c-2.3-9.3-2.2-9.6,2-17.7c4.7-1.2,5.4-3.5,2.6-7.5c-1.7-2.5-2.4-5.7-3.8-9c-1,3.2-1.9,5.9-2.8,8.8
	C573.6,536.7,573.7,537.7,573.6,538.7z M501.7,555.3c-0.1,3.6,2,6.1,5.1,5.7c3-0.4,0.8-3.7,1.3-5.6c0.2-0.6,0.5-1.2,0.7-1.8
	c0.5,1,0.9,2,1.4,3c1.2,6.8,6.4,4.2,10.5,4.7c-0.1-1.9-0.5-3.4-1.4-4.8c-0.2-4.7,0.9-9,5.9-12.7c-8-0.4-13.8,1-19.4,3
	C501.9,548.1,500.2,551.1,501.7,555.3z M474.4,195.4c-1-0.3-1,0.5-1.2,1.1c-5.8,14.1-4.6,28.7-4.1,43.8c3.3-1.5,3.1-3.6,3-5.9
	c-0.3-8.2-0.5-16.3,1.5-24.3c2.3-9.5,6.9-11.5,15.6-6.9c5.3,2.8,10,6.6,14.5,10.5c1.4,1.2,2.6,2.6,4.8,1.8c2.9-1.1,5.9-2,8.9-3
	c2.2-0.1,4.5,0,6.9-1.7c-9.1-6.4-18.4-11.8-28.5-15.8c-5-2-10-3.7-15.5-3.4c-2.7,0.2-5.4,0.4-6,3.8L474.4,195.4z M411.3,442.3
	c-1.7-9-6.4-13.2-14.7-12.4c-6.5,0.6-12.7,2.4-18.4,5.7c-7,2.2-13.9,4.5-20.9,6.4c-10.9,3-21.1,2.1-29.7-6.2c-0.5-0.5-1.1-0.7-2-0.1
	c-1.1,14.1-1.7,28.4-5.8,42.2c-1.2,4-0.2,5.6,3.8,6.4c20.9,4.3,38.9-2.5,55.9-13.8c3.3-1.1,7.8-2,7.2-6.1c-0.5-3.3-1-6.8-2.3-10
	c0.3-2.1,0.7-4.3,0.9-6.4c0.4-4,1.8-7.6,3.9-11c0.5-0.7,1-1.3,2-1.3c0.8,0.1,1.4,0.9,1.1,1.4c-1.9,3.3-1.6,7.1-2.7,10.4
	c-2.1,6.7-1.3,9.2,5.8,9.8c-0.3,3.7-3.6,0.6-4.9,2.2c3.2,6,12.8,7.3,16.9,1.7C411.8,455.8,413.3,449.3,411.3,442.3z M435.5,449.4
	c-0.6-0.6-0.5-1.3-0.1-2c4.7-2.1,0.8-4.9,0.6-7.4c-0.1-1.4-2.9-3-0.3-4.1c1.5-0.7,2.2,1.6,2.9,2.8c1.4,2.3,1.9,4.9,2.6,7.5
	c0.7,2.4-0.7,5.1,1.3,7.2c-0.5,2.7-0.4,5.8-1.6,8.2c-2.1,4-0.4,5.6,2.9,6.9c1.2,0.5,2.4,1,3.6,1.6c15,7,30.5,10.2,47,6.2
	c3.3-0.8,5-1.9,5-5.9c-0.1-9,0.5-18,2.3-26.8c1.1-5.1,1.7-10.4,2.5-15.6c-7.8,9.3-17,14.1-28.8,13.5c-4.8-0.3-9.5-1.5-14.2-2.5
	c-4.7-1-8.9-3.8-13.8-3.6c-7.2-3.9-14.8-6.7-23.1-4.7c-4.2,1-8.2,3.6-7.7,8.3c0.6,4.8,0.4,9.5,0.3,14.3c-0.8,4.9,1.1,8.6,5.3,10.5
	c4.6,2.1,10.4,0.8,13.4-2.9c-1.4-0.8-2.8-0.6-4.3-0.4c-0.5-3.6,2.8-1.2,3.8-2.4c2.8-0.7,3.2-2.5,2.3-4.9
	C437.4,451.7,439.3,448.9,435.5,449.4z M156.3,494.8c3-7.5,6.3-15,11.2-21.5c1.4-1.8,1.4-2.9-1-4.1c-7.3-3.6-14-8.2-20.7-12.8
	c-6.1-4.2-8.7-3.5-11.9,3.2c-0.7,1.5-1.1,3.1-1.6,4.7c-6.8,21.1,3.3,47,21.3,52.1C154.1,509.1,154.9,501.9,156.3,494.8z M678,389.8
	c0.1,0.9,0.3,1.8,0.4,2.7c-4.6-0.7-6.8-5-10.8-6.7c-2.3-1-3.6-1.4-5.3,1.1c-3,4.4-6.6,8.6-11.1,11.3c-5.8,3.5-6.6,8.6-6.7,14.4
	c-0.3,14.8,5.4,27.5,12.9,39.7c7.7,12.6,16.1,24.9,20.2,39.4c4.6,16.1-1.2,25.8-17.5,29.4c-1.6,0.4-3.3,0.6-4.9,0.6
	c-1.9,0-2.5,0.9-2.7,2.7c-0.5,5.6-1.4,11.2-3.6,16.5c-0.9,2.1-0.3,3.1,2,3.2c20.7,1.2,37.3-6.8,46.9-23.3
	c9.2-15.9,6.7-31.7-3.4-46.5c-4.9-7.1-10.3-13.9-15.3-21c-5.7-8.1-10.2-16.8-12.2-26.6c-2.6-13.2,1.1-21.8,12.5-28.6
	c13.4-2.7,21.5,2.4,24.8,15.9c1,4.4,1.2,8.8,1.5,13.3c0.6,9.5,6.6,16.6,14.6,17.6c7,0.9,14.1-4.5,16.7-12.7c0.5-1.4,1.2-2.8,1.4-4.2
	c2.7-20.3-3.7-37.6-19.5-50.5c-11.8-9.7-25.7-11.7-40.3-6.9c-0.8,0-1.6,0-2.4,0c-5.2,0.5-7.8,4.3-9,8.4c-1.1,3.7,3.7,3.7,5.6,5.8
	c1,1.1,2.3,1.8,3.4,2.7C676.8,388.4,677.4,389.1,678,389.8z M399.1,357c9.4,8.9,8.9,13.7-2.1,21.1c-1.1,0.7-2.2,1.5-3.4,2.1
	c-6.3,3.1-12.2,7-17.3,11.8c-14,13.1-29.9,22.6-48.5,27.7c-2.9,0.8-2.5,2.6-1.7,4.6c3.6,9,13.6,14.9,23.4,13.6
	c3.9-0.5,7.9-1.4,11.7-2.6c9-2.9,17.8-6.4,26.9-9.3c5.1-1.7,10.3-2.3,15.7-0.9c3.9,1,6.6,5.1,9.7,5.3c3,0.3,5.7-4.3,9.6-5.3
	c6.7-1.7,12.9-0.3,19.1,1.7c8.9,2.7,17.6,6.2,26.7,8.1c15,3.1,24.7-1.2,32-14c1.7-3,2.1-4.4-2.1-5.7c-17.5-5.4-33.8-13.2-47.9-25
	c-10.5-8.8-18.9-19.2-21.5-33.3c-0.7-3.7,1.9-9-2.2-10.8c-3.5-1.6-8.2-0.5-12.3-0.4c-1.5,0-2.9,0.6-4.4,0.8c-1.1,0.2-2,0.6-2.3,1.6
	C406.7,352.8,402.8,354.8,399.1,357z M639.6,406.6c-10.9,5.7-21,9.7-31.7,12.4c-2.3,0.6-2.8,1.5-1.8,3.8
	c5.1,11.1,10.6,21.9,18.7,31.1c14.9,17.1,25.6,36,27.1,59.1c0.2,2.6,1.3,3.5,3.8,3.2c10.6-1.2,21.7-6.4,17-22.3
	c-3.1-10.5-8.4-19.8-14.1-29C647.6,447.3,636.6,429.7,639.6,406.6z M500.1,218.3c-4.8-4.5-9.6-8.3-15.2-10.9
	c-1.7-0.8-3.5-1.5-4.5,1.1c-3,7.7-3.2,15.5-2.6,24.3C485.2,226.8,492.2,222.2,500.1,218.3z M521.5,541.2c-6.2-9.9-11.9-19.8-15.7-32
	c-3.2,7.6-2.8,13.8-0.8,19.9C508.5,540,510.7,541.5,521.5,541.2z"/>
<path class="st1" d="M169.3,356.5c-2.4-2.5-5.9-1.9-8.8-3c-2.2-0.8-4.7-1.6-5.3-4.1c-0.6-2.7,2.2-3.3,3.9-4.5
	c9.5-6.9,14.5-16.8,18-27.5c2.2-6.6,3.9-13.4,5.9-20.1c0.7-2.3,0.7-4.1-1.3-5.8c-14.6-12.7-21.2-29.5-24.3-47.9
	c-3.1-17.8-2.5-35.5,2.2-53c1.8-6.6,4.2-13,9-18.2c4.7-5.1,8.3-5.9,14.7-3.5c19.2,7.4,34.3,20.1,47.7,35.3
	c6.3,7.1,12,14.7,16.9,22.9c1.9,3.1,3.7,3.7,7.3,2.9c14.1-3,28.4-3.5,42.6-0.6c3.9,0.8,6-0.3,8-3.7c12.9-21.3,28.8-40,50.5-52.9
	c4-2.4,8.3-4.3,12.5-6.1c6.4-2.7,10.7-1.6,15.1,3.8c7,8.5,10,18.7,11.8,29.3c3.5,20.2,2.5,40.1-4.1,59.7
	c-3.6,10.9-9.1,20.7-17.5,28.7c-1.6,1.5-3.2,2.9-2.2,5.5c3.5,9.3,5.4,19.2,9.7,28.3c4,8.5,9.1,16.2,17.6,21.2c3.5,2,3.2,3.9-0.1,6.3
	c-3.5,2.5-8.2,1.7-11.5,4.4c-7.7-1.3-14.9,0.3-21.9,3.2c-3.1,1.3-6.2,2.4-9.3,3.6c-8.8,3.2-17.8,5.5-27.3,4.9
	c-16-1-23.9-7.6-27.6-23.2c-1.9-8.2-2.4-16.5-3.2-24.7c-0.9-9.6-0.3-19.4-2.2-28.9c-2-9.8-9.1-15.4-18.7-15.3
	c-9.2,0.1-16.1,6.1-17.9,15.6c-1.3,6.4-1.5,12.9-1.5,19.4c0,11-0.4,22-2.3,32.9c-2.7,15.4-9.1,22.1-24.4,24.9
	c-12.7,2.3-24.4-1.5-36.1-5.7C186.7,357.4,178.4,354.1,169.3,356.5z M350.4,251.6l-0.1,0c2.5-11.8,5-23.6,4.2-35.8
	c-0.4-5.8-1.8-11.5-0.9-17.3c4.9-6.3,12.3-9.7,18.6-16c-3.4-0.1-5.1,1.2-6.8,2.1c-14.8,8.2-27,19.3-36.6,33.3
	c-8.2,11.9-6,21.8,6.2,29.5c8.7,5.5,17.3,11.3,23.8,19.5c0.8,1,1.1,2.6,2.9,1.4c1.7-1.2,0.5-2.4-0.1-3.4c-2.4-4.6-5.9-8.3-10.1-11.4
	C351.8,252.6,351.5,251.8,350.4,251.6z M199.4,200.7c0,2.3,0.2,4.6-0.1,6.9c-1.2,8.2-0.8,16.4-0.1,24.6c0.6,7.3,3.1,14.1,4.2,21.3
	c-0.4,1.6-1.6,2.4-2.8,3.3c-3.6,2.6-5.9,6.2-8.1,10c-0.5,0.9-1.5,2.1-0.2,3.1c1.6,1.3,2.5-0.5,3.1-1.3c7.1-9.1,16.6-15.2,26-21.6
	c8.3-5.6,10.5-16.3,5-24.6c-8.9-13.6-20.5-24.4-34.4-32.7c-2.2-1.3-4.5-2.2-7.8-1.9C189.6,192.4,194.5,196.6,199.4,200.7z
	 M211.4,331.9c-0.2,6.8,1.7,12.9,6.1,18c6.1,7.1,15.2,6.9,21.1-0.4c7.7-9.6,6.1-27.2-3.2-35.2c-6-5.1-14.1-4.5-19,1.7
	C212.8,320.6,211.2,326,211.4,331.9z M340.8,340.7c-3.4-5-9.2-5.7-14.9-7.7c4.4-4.2,9.3-6,14.2-8c1-0.4,2.7-0.4,2.6-1.9
	c-0.2-1.7-2-1.5-3.2-1.5c-10.9,0.1-19.6,4.5-25.6,13.8c-1,1.5-1.9,3.3-0.4,5.1c1.4,1.8,3.3,1.4,5,0.8c6.5-2.3,13-2.3,19.5,0
	C338.7,341.5,339.6,341.6,340.8,340.7z"/>
<path class="st2" d="M606.3,225.8c0.4-0.1,0.9-0.2,1.3-0.3c1.6,0.2,2.9-0.6,4.3-1.1c11.6-4.5,23.3-8.8,35.5-11.2
	c6.3-1.2,12.6-3,19.1-0.6c3.8,1.9,3.5,5.7,3.8,9c1.4,16-1.9,31.4-6.5,46.6c-1.1,3.5-2.2,7-3.6,10.3c-0.5,1.3,0.2,4.8-3.8,2.4
	c-2.1-1.2-1.6,1.9-1.2,3.4c2.9,10.7,5.9,21.5,8.7,32.2c2.5,9.7,3.7,19.6,4,29.6c0.1,3.2-0.8,4.3-4.1,4.4c-9.2,0.4-18.1,2.5-26.3,7
	c-1.4,0.7-3.8,1.5-2.7,3.4c0.9,1.6,2.7-0.1,4-0.6c7.3-2.9,14.9-4.7,22.7-5.5c6.4-0.7,6.5-0.5,5.3,5.9c-0.2,1-0.4,1.9-0.6,2.9
	c-8.8,3.8-17.6,7.7-26.4,11.5c-3.1,0.9-6.9-0.6-9.4,2.5c-0.8,0.1-1.7,0.2-2.5,0.4c-29.3,6.1-56.3,2.5-78.7-19.4
	c-0.7-0.7-1.5-2.1-2.8-0.9c0.2-0.3,0.5-0.6,0.5-0.8c-4.1-10.9-16.1-17.7-27.6-15.7c-2.4,0.4-5.4,0.1-6.5,3.4c-0.6,0-1.1,0.2-1.1,0.9
	c-7.3,5.2-14.8,9.8-23.8,11.6c-14,2.8-27.8,3.1-40.3-5.1c-4.5-2.9-9-6.3-9.4-12.6c3.3-2.6,3.6-6.9,5.5-10.3
	c2.4-4.3,5.2-8.4,6.1-13.5c3.2-18.4,8.2-36.3,17.6-52.7c6.5-11.3,14.7-21,25.4-28.3c16.4-11.3,35.2-15.6,54.6-16.9
	c18.9-1.3,37.5,0.3,55.1,8.5C603.3,226.7,605.3,228.6,606.3,225.8z M560.9,339.8c0.2,1.3,0.5,3.8,1.2,6.1c4,13.4,17.6,16.8,27.1,6.6
	c8-8.6,10.2-18.8,6.5-30.1c-4-12.2-17.5-13.2-25.3-6.1C563.8,322.3,561.1,329.9,560.9,339.8z M507.3,318.9c-0.3-1.8-0.4-4.3-1.1-6.7
	c-3.3-12.1-14.2-16.4-24.3-9.7c-10.4,7-14.5,25.1-8,35.8c5,8.2,14.5,10.1,22.3,4.2C503.8,336.9,506.7,328.8,507.3,318.9z
	 M666.5,232.3c-0.2-1.6-0.4-3.8-0.7-5.9c-1-7-3.4-9.2-10.4-7.9c-12.4,2.3-22.9,8.8-32.3,17c-2.8,2.5-2.1,4.8,0.5,7.1
	c9.5,8.8,16.8,19.3,23.3,30.4c1.1,1.9,1.5,4.8,4.5,4.7c3-0.1,3.9-2.9,5.1-5C663.2,260.2,665.8,246.7,666.5,232.3z M602.4,287.6
	c0.4-10.3-8.2-21.4-17.3-23.6c-3-0.7-6-0.7-8.8,0.6c-3.7,1.6-4.4,6.5-0.8,7.8C585.1,275.9,594.4,279.7,602.4,287.6z M474.7,274.1
	c7.9-5.3,16.3-8.2,25.3-9.1c2-0.2,3.2-1.9,3.2-3.9c0-2.5-1.9-3.7-4-4.5C489.5,253,475.4,262.4,474.7,274.1z"/>
<path class="st1" d="M226.8,499.9c-8.7-9.8-19.5-14.6-32.7-13.9c-1.6,0.1-4.3-0.3-4.3,2.2c0,2,2.6,1.8,4.1,2.1
	c6,1.3,12.1,2.2,17.6,5.1c16.3,8.5,19.4,26.8,7.7,43c-1.3,1.8-3.1,1.6-4.9,1.9c-3.5,0.6-7.3,0.4-10.3,2.9c-1.5-0.1-3-0.4-4.4-0.2
	c-11.9,1.8-23.4,1.2-34.2-4.7c-0.3-0.2-0.6-0.1-0.9,0.1c0,0,0,0,0,0c0-0.4,0-0.8,0-1.2c-0.5-0.4-1-0.8-1.4-1.2
	c-2-3.9-3-8.1-3.4-12.4c-1.9-22.7,6-41.8,21.5-58c9.6-10,19.3-19.7,29-29.6c3.7-3.8,6.7-8.2,9.5-12.8c1.7-2.8,3.6-4,7.3-2.7
	c6.4,2.3,13,4.2,20,2.9c3-0.2,5.3,1,7.3,3.2c3.6,4,7.5,7.7,11.3,11.6c1,1.5,1.9,3,3,4.5c8.2,11.6,13.7,24.1,12.5,38.7
	c-3.7,0.5-2,3.3-1.9,5.1c0.4,15.8,2.1,31.5,2.4,47.3c0.1,4.8-0.6,8-6.1,8.3c-0.8,0-1.5,0.6-2.3,1c-5.8-0.1-11.7,1.4-17.5-0.3
	c-1-0.6-2-1.2-3-1.8c-4.7-12.8-5.9-26.5-9.1-39.6c-0.9-3.5-0.9-3.5-3.5-2.2c-0.9,3.9-3.6,4.2-6.7,3.3
	C231.2,502,229,500.8,226.8,499.9z M202.9,495.7c6.2,5.7,10.3,11.3,12.3,18.3c0.7,2.4,1.4,4.8,2.3,7.1c0.5,1.4,1.3,2.9,3.1,2.6
	c1.7-0.3,2.4-1.8,2.4-3.4c0-2-0.1-4-0.5-5.9C220.2,504.5,213,499.5,202.9,495.7z"/>
<path class="st2" d="M594.5,422.3c3.2-1.4,4.8-0.5,6.4,2.9c6.2,13.3,13.7,25.8,23.3,36.9c15.5,18,23.7,38.6,22.2,62.7
	c-0.2,2.7-0.5,5.3-1.7,7.7c-1.3,0.7-1.1,1.9-1.2,3.1c0,0,0.1-0.1,0.1-0.1c-0.8,0.5-1.1,1.2-1.1,2.1c0,0,0.2,0,0.2,0
	c-0.3,0-0.6,0.1-1,0.1c-5.7,4-12.1,6.1-19,6.7c-6.2,0.5-12.2-1.1-18.3-1c-3.3-1.7-7-2.2-10.6-2.5c-3.3-0.3-5-1.7-6.6-4.4
	c-10.8-18.2-4-36.2,16.5-42.5c3.6-1.1,7.5-1.4,11.3-2.2c1-0.2,2.7,0.3,2.7-1.4c-0.1-1.5-1.7-1.4-2.8-1.4
	c-11.9-0.3-22.2,2.9-31.5,11.1c-8,7.2-9.5,16.8-12.6,25.9c-2.1,6.1-3.8,12.4-5.7,18.6c-2.2,0.3-4.4,0.7-6.5,1c-5,0.1-10.1-0.3-15-1
	c-6.5-0.5-6.5-4.4-5.9-9.7c1.5-13.7,1.8-27.4,1.6-41.2c0-1.7,1-4.1-1.1-4.9c-2-0.8-1.3,2.9-3.3,2.9c-0.3-13.5,5.9-24.5,13.8-34.7
	c5.8-7.5,13.6-13,20.5-19.4C577.4,432.4,585.9,427.4,594.5,422.3z M601.7,500c-9.2,2.5-15.2,9.6-15.3,17.5c0,1.7-0.6,4.1,2,4.4
	c1.9,0.2,2.6-1.7,3.1-3.4C593.4,511.6,596.5,505.2,601.7,500z"/>
<path class="st3" d="M169.3,356.5c9.1-2.4,17.4,0.9,25.7,3.9c11.7,4.2,23.4,8,36.1,5.7c15.3-2.7,21.7-9.4,24.4-24.9
	c1.9-10.9,2.3-21.9,2.3-32.9c0-6.5,0.2-13,1.5-19.4c1.9-9.5,8.8-15.5,17.9-15.6c9.6-0.1,16.7,5.5,18.7,15.3c2,9.5,1.4,19.2,2.2,28.9
	c0.7,8.3,1.2,16.6,3.2,24.7c3.7,15.5,11.6,22.2,27.6,23.2c9.5,0.6,18.5-1.7,27.3-4.9c3.1-1.1,6.3-2.3,9.3-3.6
	c7.1-2.9,14.3-4.5,21.9-3.2c-0.4,2.2,0.2,4.1,1.9,5.6c0,2-1.7,2.3-2.9,3c-4.7,2.9-9.2,6-13.3,9.7c-13.1,11.8-27,22-44,27.6
	c-28.6,9.4-57.7,10.9-87.1,5.3c-16.6-3.2-32.4-8.9-46.1-19.3c-9.4-7.1-18-15.3-28.4-21.1c-0.8-0.5-1.1-1.2-1.1-2
	C169,361.2,169.7,359.1,169.3,356.5z M253,379l0.1,0.2c0.8,4.8,4,7.2,8.4,8.4c1.4,2.8,2.4,5.8,4.1,8.4c7.2,10.7,20.2,10.3,26.8-0.7
	c1.3-2.1,2.1-4.5,3.1-6.7c3.9-3.2,9.2-5.1,9.5-11.3l0.1-0.1c1.1-0.3,1.2-1.1,0.9-2c0.4-1.4,0.8-2.8,1.1-4.2c0.3-1.9,0.9-4.2-1.8-4.8
	c-2.9-0.6-2.8,2-3.4,3.7c-3.7,2.5-7.5,4.4-12.4,3.5c-3.1-0.6-5.1-2.9-8-3.7c-1.7-2.6-0.4-3.4,2-4c4-1.1,7.2-3.4,9.4-6.9
	c3-4.8,1.4-8.3-4.2-9.3c-7.3-1.3-14.6-1-21.8,0.2c-6.2,1-7.7,5.4-3.8,10.4c3.1,4,7.6,5.7,12.4,6.8c0.1,0.7,0.2,1.5,0.4,2.2
	c0,0.3-0.1,0.5-0.3,0.7c-6.5,4.8-13.2,5.8-20.2,1.2l0,0c0.3-1.2,0.1-2.2-0.9-3.1c-3.4-2.5-5-1-4.7,2.6c0.2,2.4,1.3,4.7,2,7.1
	C251.7,378.2,251.8,378.9,253,379z"/>
<path class="st3" d="M546.2,357.7c1.4-1.2,2.1,0.1,2.9,0.9c22.4,21.9,49.4,25.5,78.7,19.4c0.8-0.2,1.6-0.2,2.5-0.4
	c1.3,2,3.3,1,5,1.1c6.4,0.3,12.9,0.3,19.1,2.5c-0.6,0.3-1.2,0.5-1.8,0.9c-22.8,16.2-48.8,22.1-76.1,23.4c-23.4,1.1-46.5-1-69.5-5.2
	c-21.8-4-41.7-12.2-58.2-27.6c-4.2-3.9-6.9-9.3-12.1-12.3c-2.6-6.2-2.5-12.5-1.1-18.9c0.1-0.5,0.1-0.9,0.2-1.4
	c0.1-0.3,0.2-0.7,0.3-1c0.6,0.1,1.3,0.2,1.9,0.3c0.4,6.2,4.9,9.6,9.4,12.6c12.5,8.2,26.3,7.8,40.3,5.1c9-1.8,16.5-6.3,23.8-11.6
	l-0.1-0.1c-0.9,4.3,2.2,6.1,4.9,8.2c-0.8,4.6-5.2,4.5-8.2,6.2l-0.1-0.1c-0.2-0.4-0.4-0.8-0.6-1.3c-0.2-0.6-0.5-1.2-0.7-1.9
	c-0.4-1.2,0-3.1-1.9-2.9c-1.6,0.2-1.6,1.9-1.6,3.2c0,4.1,0.5,8.1,4.5,10.4c1.2,0.7,1.3,1.6,1.6,2.7c0.9,3.9,1.6,7.9,3.1,11.6
	c1.7,4.2,5.9,9.5,11.1,9.7c5.4,0.2,8.7-2.8,10.9-7.2c1-1.9,1.7-4,2.2-6c1.1-4.4,0.8-9.2,5.8-12.2C545,364.5,546.8,361.3,546.2,357.7
	L546.2,357.7z"/>
<path class="st4" d="M166.6,362.6c0,0.9,0.3,1.6,1.1,2c10.3,5.9,18.9,14,28.4,21.1c13.7,10.3,29.5,16.1,46.1,19.3
	c29.4,5.6,58.5,4.2,87.1-5.3c17-5.6,30.9-15.8,44-27.6c4.1-3.7,8.6-6.7,13.3-9.7c1.2-0.8,2.9-1.1,2.9-3c2.1,1.3,4.3,2.5,6.3,3.9
	c4.5,2.9,5,4.5,0.7,7.1c-15.9,9.3-29,22.2-44,32.6c-8.2,5.7-17.3,10-26.7,13.4c-4.6,1.7-6.9,4.2-6.3,9.2c0.3,2.3-0.1,4.6-0.2,7
	c-1.5-0.3-2.9,0.1-4.4,0.5c-16.1,5.5-32.7,6.1-49.4,5.2c-3.8-3.8-7.6-7.6-11.3-11.6c-2-2.2-4.3-3.4-7.3-3.2c-0.4-0.9-0.9-1.8-2-2
	c-23.5-5.5-43.5-17.4-61.4-33.3c-6.3-5.5-13.9-8.9-20.8-13.5c-6.5-4.3-6.4-5.1-0.2-9.4C163.9,364.4,165.2,363.5,166.6,362.6z"/>
<path class="st2" d="M679.4,398.2c-11.4,6.9-15.1,15.4-12.5,28.6c2,9.8,6.5,18.5,12.2,26.6c5,7.1,10.4,13.8,15.3,21
	c10.1,14.8,12.7,30.6,3.4,46.5c-9.6,16.5-26.1,24.5-46.9,23.3c-2.3-0.1-2.9-1.1-2-3.2c2.1-5.3,3.1-10.9,3.6-16.5
	c0.2-1.8,0.8-2.7,2.7-2.7c1.6,0,3.3-0.3,4.9-0.6c16.3-3.6,22.1-13.3,17.5-29.4c-4.1-14.5-12.5-26.7-20.2-39.4
	c-7.5-12.3-13.2-25-12.9-39.7c0.1-5.8,1-10.9,6.7-14.4c4.5-2.7,8.2-6.9,11.1-11.3c1.7-2.5,3-2.1,5.3-1.1c4,1.7,6.2,6.1,10.8,6.7
	C679,394.4,679.7,396.2,679.4,398.2z"/>
<path class="st4" d="M436.7,360.4c5.2,2.9,7.8,8.3,12.1,12.3c16.6,15.4,36.4,23.6,58.2,27.6c22.9,4.2,46.1,6.3,69.5,5.2
	c27.4-1.3,53.3-7.2,76.1-23.4c0.5-0.4,1.2-0.6,1.8-0.9c3.9-0.2,4,1.1,1.7,3.8c-9.5,11.2-21.8,18.3-35.2,23.7
	c-13.2,5.3-27.1,7.7-40.9,10.6c-2.7,0.6-7.7,0-7.3,3c0.3,2.7,5.2,1.1,7.9,1c4.6,0,9.3-0.7,13.9-1.2c-8.5,5.1-17,10.1-25.6,15.2
	c-19.9,0.7-39.7-0.1-58.8-6.4c0.1-0.7,0.1-1.3,0.3-2c1.7-9.3,1.7-9.3,11.1-8.4c1.3,0.1,3.5,1.2,3.8-0.9c0.2-1.9-2.2-1.6-3.5-2
	c-19.8-5.6-38.8-12.8-56.2-23.9c-10-6.4-19-14-25.2-24.4C438.5,366.7,436.6,363.9,436.7,360.4z"/>
<path class="st1" d="M379.6,470.6c-17,11.3-35.1,18-55.9,13.8c-4-0.8-5-2.4-3.8-6.4c4.1-13.8,4.7-28.1,5.8-42.2
	c0.9-0.6,1.5-0.4,2,0.1c8.6,8.3,18.8,9.1,29.7,6.2c7-1.9,13.9-4.3,20.9-6.4c-0.5,8.3-1.7,16.7,0.6,25
	C379.1,463.9,379.3,467.3,379.6,470.6z"/>
<path class="st3" d="M510.1,431.1c19.2,6.3,38.9,7.2,58.8,6.4c-6.9,6.4-14.6,11.9-20.5,19.4c-8,10.2-14.1,21.2-13.8,34.7
	c0,0.3-0.2,0.6-0.3,0.8c-3.7,0.6-6.8,3.1-10.7,3.3c-6.2,0.3-11.1-2.7-16.3-5.1c-3-14.3-1.9-28.6-0.2-42.9c0.6-5.1,1.7-10.1,2.6-15.1
	c0.1-0.4,0.2-0.9,0.3-1.3L510.1,431.1z"/>
<path class="st3" d="M678.6,370.7c14.6-4.8,28.5-2.8,40.3,6.9c15.8,13,22.1,30.2,19.5,50.5c-0.2,1.4-0.9,2.8-1.4,4.2
	c-2.2,0-3.6,1.5-5.4,2.4c-10.3,5.5-19.3,1.6-22.1-9.7c-1.1-4.5-1.6-9.1-2.1-13.7c-2-18.5-13-26.6-29.4-21.4
	c-0.6-0.7-1.3-1.4-1.9-2.2c0.6-3,3.4-5.5,0.5-9.2C675.7,377.1,677.9,373.3,678.6,370.7z"/>
<path class="st3" d="M265.5,438.3c16.8,1,33.4,0.3,49.4-5.2c1.4-0.5,2.8-0.9,4.4-0.5c-1.6,2.8-0.8,5.9-0.8,8.8
	c0.1,13.2-1.9,26.2-5.7,38.8c-0.5,1.6-1.3,3-2,4.6c-2.1-0.4-3.7,1.1-5.6,1.8c-8.7,2.9-16.8,2.7-23.8-4c-0.2-0.3-0.3-0.7-0.5-1
	c1.2-14.7-4.3-27.1-12.5-38.7C267.5,441.3,266.5,439.8,265.5,438.3z"/>
<path class="st2" d="M447.7,435.3c5-0.2,9.2,2.6,13.8,3.6c4.7,1,9.4,2.2,14.2,2.5c11.8,0.6,20.9-4.2,28.8-13.5
	c-0.8,5.2-1.5,10.4-2.5,15.6c-1.8,8.9-2.4,17.8-2.3,26.8c0,4-1.7,5.1-5,5.9c-16.5,4-32,0.8-47-6.2c1.4-3.4,0.5-6.9,0.9-10.4
	c1.6-4,0.7-8.1,0.9-12.2C449.5,443.3,446.9,439.5,447.7,435.3z"/>
<path class="st1" d="M132.3,464.3c0.5-1.6,0.9-3.2,1.6-4.7c3.1-6.7,5.8-7.4,11.9-3.2c6.7,4.6,13.4,9.2,20.7,12.8
	c2.4,1.2,2.3,2.3,1,4.1c-4.9,6.6-8.1,14-11.2,21.5c-4.3-1.1-7.6-3.8-10.9-6.6C138.3,481.8,134.5,473.5,132.3,464.3z"/>
<path class="st4" d="M438.1,339.5c-0.6-0.1-1.3-0.2-1.9-0.3c0.6-4.7,2.2-9.1,4.7-13c4.9-7.8,7-16.4,8.9-25.2
	c3.7-17.5,9.5-34.2,19.7-49.1c14.1-20.4,34.1-31.1,58-35.2c27.2-4.7,53.6-2.5,78.9,9.2c-1.1,2.8-3,0.9-4.1,0.4
	c-17.6-8.1-36.3-9.7-55.1-8.5c-19.4,1.3-38.2,5.6-54.6,16.9c-10.7,7.4-18.9,17.1-25.4,28.3c-9.4,16.4-14.4,34.2-17.6,52.7
	c-0.9,5.2-3.7,9.2-6.1,13.5C441.6,332.5,441.4,336.8,438.1,339.5z"/>
<path class="st4" d="M507.3,490.5c5.2,2.4,10.1,5.4,16.3,5.1c4-0.2,7-2.7,10.7-3.3c1,2.9,0.9,5.9,0.6,8.8
	c-0.8,11.6-1.8,23.2-2.7,34.7c-0.1,1-0.2,2-0.4,3c-0.2,1.2-0.4,2.5-1.7,2.8c-1.4,0.3-1.9-1.1-2.6-2
	C517.2,524.8,509.7,508.7,507.3,490.5z"/>
<path class="st3" d="M447.7,435.3c-0.8,4.2,1.8,7.9,1.7,12.1c-0.1,4.1,0.8,8.2-0.9,12.2c-2.2-1.8-2.9-5.1-5.9-6.2
	c-2-2.1-0.7-4.8-1.3-7.2c-0.7-2.6-1.2-5.2-2.6-7.5c-0.7-1.2-1.4-3.4-2.9-2.8c-2.6,1.1,0.2,2.7,0.3,4.1c0.2,2.5,4,5.3-0.6,7.4
	c-1.4,0-2.9-0.8-4.1,0.5c0.9,2.1,2.6,1.7,4.2,1.5c3.7-0.5,1.9,2.3,2.2,3.8c-1.7,1.2-2.3,2.9-2.3,4.9c-1,1.2-4.3-1.3-3.8,2.4
	c-6.6,1.2-11.3-1.4-14.4-7.2c0.1-4.8,0.3-9.5-0.3-14.3c-0.6-4.8,3.5-7.3,7.7-8.3C432.9,428.6,440.5,431.4,447.7,435.3z"/>
<path class="st3" d="M378.8,460.6c-2.3-8.3-1.1-16.6-0.6-25c5.7-3.3,11.9-5.1,18.4-5.7c8.2-0.8,12.9,3.3,14.7,12.4
	c-1.9,0.5-1.6,2.3-1.9,3.6c-1.9,7-6.4,10.8-13.8,11.5c-7.1-0.6-8-3.1-5.8-9.8c1-3.3,0.8-7.1,2.7-10.4c0.3-0.5-0.3-1.3-1.1-1.4
	c-0.9-0.1-1.5,0.5-2,1.3c-2.1,3.4-3.6,7-3.9,11c-0.2,2.1-0.6,4.3-0.9,6.4C382.6,456.5,380.7,458.5,378.8,460.6z"/>
<path class="st4" d="M281.5,482.5c7,6.7,15.1,6.9,23.8,4c1.8-0.6,3.4-2.1,5.6-1.8c-4.8,15.8-13.3,29.5-24,43.2
	C285,512.1,283.3,497.3,281.5,482.5z"/>
<path class="st3" d="M132.3,464.3c2.2,9.1,5.9,17.5,13.1,23.9c3.2,2.9,6.6,5.5,10.9,6.6c-1.4,7.1-2.2,14.3-2.7,21.6
	C135.7,511.3,125.6,485.4,132.3,464.3z"/>
<path class="st3" d="M165.4,538.4c10.8,5.9,22.3,6.5,34.2,4.7c1.4-0.2,3,0.1,4.4,0.2c5.9-0.3,11.5,0.9,17.1,2.3
	c4.4,1.1,6.9,3.3,7.3,7.9c-1.9,1.9-4.1,2.6-6.7,2c-0.2-0.4-0.4-0.9-0.6-1.3c-0.6,0.8-1.1,1.5-1.7,2.3c-3.5,0-7.1,0-10.6,0
	c-0.4-0.8-1.2-0.9-2-0.8C190.1,556.7,175.6,552.6,165.4,538.4z"/>
<path class="st4" d="M242,524.2c2.7,10.3,4.6,20.8,9.7,30.3c1.1,2.1,0,2.5-1.5,3.2c-5.4,2.5-10.9,4-17.3,3.2c0.4-1.9,0.8-3.7,1-5.6
	c0.8-6.1-1.2-10.4-6.6-13.3c-2.1-1.1-2.8-1.8-1.3-3.9c2.7-3.8,3.5-8.5,5.5-12.6C235.2,526,238.6,525.6,242,524.2z"/>
<path class="st4" d="M678,389.8c16.4-5.2,27.3,2.9,29.4,21.4c0.5,4.6,1,9.2,2.1,13.7c2.8,11.3,11.8,15.2,22.1,9.7
	c1.7-0.9,3.2-2.4,5.4-2.4c-2.6,8.3-9.6,13.6-16.7,12.7c-8-1-14.1-8.1-14.6-17.6c-0.3-4.5-0.4-9-1.5-13.3
	c-3.3-13.5-11.4-18.7-24.8-15.9c0.3-2-0.4-3.8-1-5.6C678.3,391.7,678.2,390.7,678,389.8z"/>
<path class="st3" d="M604.3,543.4c6.1-0.1,12.2,1.5,18.3,1c6.9-0.6,13.3-2.7,19-6.7c0,0.7,0.1,1.3,0.1,2c0,0-0.1,0.1-0.1,0.1
	c-3.2,0.8-4.3,3.9-6.5,5.9c-9.7,8.7-21.6,10.1-33.8,10.8c-0.5-0.9-1-1.8-1.6-3.1c-0.3,1.3-0.6,2.1-0.8,3c-3.6-0.3-7.2,0.7-10.7-0.8
	c-0.2-0.6-0.4-1.8-0.5-1.8c-1,0.1-1.1,1-1.5,1.8c-2,0-4,0-5.9,0c-0.2-0.5-0.4-1-0.6-1.5c0.1-0.9,0.2-1.7,0.3-2.6
	c0.5-2.9,2.8-3.9,5.2-4.7C591.6,544.5,597.9,543.6,604.3,543.4z"/>
<path class="st2" d="M517.5,212.5c-3,1-6,1.9-8.9,3c-2.2,0.8-3.4-0.6-4.8-1.8c-4.5-3.9-9.2-7.7-14.5-10.5
	c-8.7-4.6-13.3-2.5-15.6,6.9c-1.9,8-1.7,16.2-1.5,24.3c0.1,2.2,0.3,4.4-3,5.9c-0.5-15-1.8-29.6,4.1-43.8c0.4-0.4,0.8-0.7,1.2-1.1
	c0,0-0.1,0-0.1,0c3.8,0.5,7.6-0.3,11.4,0.7c10.5,2.9,20.2,7.7,29.5,13.3C516.4,210.2,517.5,210.9,517.5,212.5z"/>
<path class="st3" d="M255.7,542.8c5.8,1.7,11.6,0.2,17.5,0.3c5.3,0.4,10.4,1.3,15.4,3.3c6.1,2.6,7.1,5,3.7,11.1
	c-1.5-1.2-1.2-3.2-2.3-4.9c-0.5,1.5-0.9,2.7-1.3,4c-3.6-0.1-7.1-0.2-10.7-0.4c-0.8-0.8,0.2-2.3-1.1-3c0,0-0.4,0.7-0.6,1.1
	c-0.1,0.4-0.2,0.8-0.2,1.3c0,0-0.2,0.3-0.2,0.3C267.4,554.4,260.2,550.7,255.7,542.8z"/>
<path class="st3" d="M543.4,544.4c5,0.7,10,1.2,15,1c-3.4,5.9-7.7,10.8-15,12c-1-0.5-0.1-2.4-1.7-2.4c-0.2,0-0.4,1.5-0.6,2.3
	c-3.6,0-7.2,0.5-10.7-0.9c-4-1-1.1,2.7-2.5,3.4c-5.1-4-4.7-9.1,1.2-11.9C533.6,545.8,538.4,544.7,543.4,544.4z"/>
<path class="st5" d="M500.1,218.3c-8,3.9-14.9,8.6-22.2,14.5c-0.6-8.8-0.4-16.7,2.6-24.3c1-2.6,2.8-1.8,4.5-1.1
	C490.6,210,495.3,213.8,500.1,218.3z"/>
<path class="st2" d="M242,524.2c-3.4,1.4-6.8,1.8-10.4,1.3c1.1-9,0.1-17.7-4.8-25.6c2.2,0.9,4.4,2.1,6.7,2.7
	c3.1,0.8,5.8,0.5,6.7-3.3C239.9,507.7,240.5,516,242,524.2z"/>
<path class="st2" d="M521.5,541.2c-10.8,0.3-12.9-1.2-16.6-12.1c-2-6.1-2.4-12.3,0.8-19.9C509.6,521.4,515.3,531.3,521.5,541.2z"/>
<path class="st4" d="M517.5,212.5c0-1.6-1-2.3-2.2-3c-9.3-5.6-19-10.4-29.5-13.3c-3.8-1.1-7.6-0.2-11.4-0.7c0.7-3.4,3.4-3.6,6-3.8
	c5.5-0.3,10.5,1.5,15.5,3.4c10.1,4,19.4,9.4,28.5,15.8C522,212.5,519.7,212.4,517.5,212.5z"/>
<path class="st3" d="M510.3,556.6c-0.5-1-0.9-2-1.4-3c-0.2,0.6-0.5,1.2-0.7,1.8c-2.2,1.6-4.3-0.7-6.5,0c-1.5-4.3,0.2-7.2,4.2-8.6
	c5.6-2,11.4-3.3,19.4-3c-5,3.8-6.1,8.1-5.9,12.7C516.4,556.5,513.3,556.5,510.3,556.6z"/>
<path class="st4" d="M666.4,212.5c-6.4-2.4-12.8-0.7-19.1,0.6c-12.2,2.4-23.9,6.7-35.5,11.2c-1.4,0.5-2.7,1.3-4.3,1.1
	c-0.5-2.4,1.1-3.1,2.8-3.9c13-5.8,26.4-10.6,40.6-12.6c4.1-0.6,8.3-0.8,12.3,0.6C664.8,210.1,666.8,210.1,666.4,212.5z"/>
<path class="st4" d="M165.4,538.4c10.3,14.2,24.7,18.3,41.4,17.2c-0.8,4.3-3.4,6.1-7.8,5.6c-13.4-1.3-24.8-6.3-32.5-17.8
	c-1-1.4-2.5-2.8-1.9-4.9C164.7,538.2,165,538.2,165.4,538.4z"/>
<path class="st4" d="M395.6,457.4c7.4-0.7,11.9-4.5,13.8-11.5c0.4-1.4,0-3.1,1.9-3.6c2,7,0.5,13.5-3.6,19
	c-4.2,5.6-13.8,4.3-16.9-1.7C392,458.1,395.3,461.1,395.6,457.4z"/>
<path class="st4" d="M601.5,556.4c12.2-0.7,24.1-2.1,33.8-10.8c2.2-1.9,3.3-5.1,6.5-5.9c-5.4,12.3-15.5,18-28,20.5
	c-1.9,0.4-3.9,0.5-5.9,0.7C604.4,561.4,602,560.2,601.5,556.4z"/>
<path class="st4" d="M577.8,543.5c-4.2,8.1-4.3,8.4-2,17.7c-4.4,0-8.8,0-14.1,0c6.3-6.7,7.2-15.6,11.9-22.5
	C574.3,540.8,575.4,542.7,577.8,543.5z"/>
<path class="st3" d="M639.7,375.1c8.8-3.8,17.6-7.7,26.4-11.5c-0.3,1.3-0.5,2.6-0.8,3.8c-2.8,10-3.6,10.6-13.7,8.6
	C647.6,375.3,643.6,375.5,639.7,375.1z"/>
<path class="st4" d="M255.7,542.8c4.5,7.9,11.7,11.6,20.2,13.2c-0.8,5.1-4.1,6.1-8.4,4.9c-9.8-2.9-12.9-10.9-14.8-19.8
	C253.7,541.6,254.7,542.2,255.7,542.8z"/>
<path class="st4" d="M543.5,557.5c7.3-1.2,11.6-6,15-12c2.2-0.3,4.4-0.7,6.5-1c-2.3,6.4-4.6,12.8-11.1,16.3
	C548.3,563.6,545.3,562.6,543.5,557.5z"/>
<path class="st2" d="M678.6,370.7c-0.7,2.7-2.9,6.5-1.9,7.8c2.9,3.7,0.1,6.2-0.5,9.2c-1.2-0.9-2.5-1.7-3.4-2.7
	c-1.8-2.1-6.6-2-5.6-5.8c1.2-4.2,3.9-7.9,9-8.4C677,370.6,677.8,370.7,678.6,370.7z"/>
<path class="st4" d="M442.6,453.4c3,1.1,3.7,4.4,5.9,6.2c-0.4,3.5,0.5,7-0.9,10.4c-1.2-0.5-2.4-1.1-3.6-1.6c-3.3-1.3-5-2.9-2.9-6.9
	C442.3,459.2,442.2,456.1,442.6,453.4z"/>
<path class="st2" d="M577.8,543.5c-2.4-0.8-3.5-2.7-4.3-4.9c0.1-1,0.1-2,0.4-2.9c0.8-2.8,1.7-5.6,2.8-8.8c1.4,3.3,2.1,6.5,3.8,9
	C583.2,540.1,582.5,542.3,577.8,543.5z"/>
<path class="st4" d="M378.8,460.6c1.9-2,3.8-4.1,5.7-6.1c1.3,3.2,1.8,6.8,2.3,10c0.6,4.1-3.9,5-7.2,6.1
	C379.3,467.3,379.1,463.9,378.8,460.6z"/>
<path class="st4" d="M417.2,453.3c3.1,5.8,7.8,8.4,14.4,7.2c1.4-0.2,2.9-0.5,4.3,0.4c-3,3.7-8.7,5-13.4,2.9
	C418.3,461.9,416.4,458.1,417.2,453.3z"/>
<path class="st4" d="M278.1,556.3c3.6,0.1,7.1,0.2,10.7,0.4c-1.4,4-6.7,6.4-10,4.5C276.7,559.9,278.3,557.9,278.1,556.3z"/>
<path class="st4" d="M530.5,556.5c3.5,1.4,7.1,0.9,10.7,0.9c-0.6,1.7,2.1,4.4-1.8,4.9C533.9,563,531.8,561.7,530.5,556.5z"/>
<path class="st4" d="M588.4,555.5c3.5,1.5,7.1,0.5,10.7,0.8c-0.3,1.8,1.9,4.5-2,4.8C592.8,561.4,588.9,561,588.4,555.5z"/>
<path class="st4" d="M208.7,556.4c3.5,0,7.1,0,10.6,0c-1.5,4.2-6.3,6.6-9.9,4.8C207.2,560,209,558,208.7,556.4z"/>
<path class="st4" d="M510.3,556.6c3,0,6-0.1,9.1-0.1c0.9,1.4,1.3,2.9,1.4,4.8C516.7,560.8,511.5,563.3,510.3,556.6z"/>
<path class="st4" d="M221.7,555.4c2.6,0.6,4.8-0.1,6.7-2c0,0.8,0.1,1.7-0.1,2.5c-0.9,2.8-2.4,5.9-5.6,5.1
	C220.1,560.4,222.3,557.3,221.7,555.4z"/>
<path class="st4" d="M501.7,555.3c2.2-0.6,4.3,1.7,6.5,0c-0.6,1.9,1.7,5.3-1.3,5.6C503.7,561.4,501.6,558.9,501.7,555.3z"/>
<path class="st4" d="M580.5,555.4c2,0,4,0,5.9,0c-0.6,1.8,1.6,5-1.1,5.3C582.5,561.2,580.4,558.8,580.5,555.4z"/>
<path class="st2" d="M435.4,458.1c0-2,0.7-3.7,2.3-4.9C438.5,455.6,438.2,457.4,435.4,458.1z"/>
<path class="st2" d="M435.5,449.4c-1.6,0.3-3.3,0.6-4.2-1.5c1.3-1.3,2.8-0.5,4.1-0.5C435,448.1,434.9,448.8,435.5,449.4z"/>
<path class="st4" d="M643.5,535.5c0.1-1.1,0-2.4,1.2-3.1C644.4,533.5,644.5,534.8,643.5,535.5z"/>
<path class="st3" d="M163,536.1c0.5,0.4,1,0.8,1.4,1.2c-0.3,0-0.6,0-0.8,0.1C163.4,537,163.2,536.6,163,536.1z"/>
<path class="st4" d="M642.5,537.5c0-0.9,0.2-1.6,1.1-2.1C643.6,536.3,643.5,537.2,642.5,537.5z"/>
<path class="st4" d="M580.3,551.2c-0.1,0.9-0.2,1.7-0.3,2.6C579.4,552.9,579.4,552,580.3,551.2z"/>
<path class="st4" d="M641.8,539.7c0-0.7-0.1-1.3-0.1-2c0.3,0,0.6-0.1,1-0.1C642.5,538.3,642.7,539.2,641.8,539.7z"/>
<path class="st4" d="M435.8,340.1c-0.1,0.5-0.1,0.9-0.2,1.4C435.6,341.1,435.7,340.6,435.8,340.1z"/>
<path class="st4" d="M163.6,537.4c0.3-0.1,0.5-0.2,0.8-0.1c0,0.4,0,0.8,0,1.2C163.6,538.6,163.6,538.1,163.6,537.4z"/>
<path class="st4" d="M276.1,555.7c0.1-0.4,0.2-0.8,0.2-1.3C276.3,554.8,276.2,555.2,276.1,555.7z"/>
<path class="st4" d="M474.4,195.4c-0.4,0.4-0.8,0.7-1.2,1.1C473.4,195.9,473.5,195.2,474.4,195.4z"/>
<path class="st4" d="M509.9,431.2c-0.1,0.4-0.2,0.9-0.3,1.3C509.8,432.1,509.8,431.7,509.9,431.2z"/>
<path class="st0" d="M211.4,331.9c-0.2-5.9,1.4-11.2,5-15.9c4.9-6.2,13-6.9,19-1.7c9.2,7.9,10.8,25.6,3.2,35.2
	c-5.8,7.3-14.9,7.6-21.1,0.4C213.1,344.7,211.2,338.6,211.4,331.9z M226.3,327.9c-0.3,4.6,2.3,8.9,5.1,8.7c3.8-0.4,4.5-3.5,4.8-6.5
	c0.4-4.1-2.4-8.6-5.2-8.4C227.1,322,226.8,325.2,226.3,327.9z"/>
<path class="st2" d="M203.4,253.5c-1.1-7.2-3.6-14-4.2-21.3c-0.7-8.2-1.1-16.4,0.1-24.6c0.3-2.3,0.1-4.6,0.1-6.9
	c7.8,6.8,14.4,14.7,20.4,23.1c5.3,7.5,4.3,13.8-3,19.4C212.3,246.5,207.9,250,203.4,253.5z"/>
<path class="st2" d="M353.6,198.5c-0.9,5.8,0.6,11.5,0.9,17.3c0.8,12.2-1.7,24-4.2,35.8c-4.8-3.5-9.6-7-14.4-10.6
	c-6.2-4.6-7.4-10.9-3.3-17.4C338.4,214.3,345.6,206.1,353.6,198.5z"/>
<path class="st0" d="M353.6,198.5c-8,7.6-15.2,15.8-21,25.1c-4.1,6.5-2.9,12.8,3.3,17.4c4.8,3.5,9.6,7.1,14.4,10.6c0,0,0.1,0,0.1,0
	c-0.1,0.9,0.1,1.7,1.2,1.9c4.1,3.1,7.6,6.8,10.1,11.4c0.6,1,1.7,2.3,0.1,3.4c-1.8,1.2-2.1-0.4-2.9-1.4c-6.5-8.3-15.1-14-23.8-19.5
	c-12.2-7.7-14.3-17.6-6.2-29.5c9.6-14,21.8-25.1,36.6-33.3c1.7-0.9,3.3-2.2,6.8-2.1C365.9,188.8,358.5,192.2,353.6,198.5z"/>
<path class="st0" d="M203.4,253.5c4.5-3.4,8.9-6.9,13.4-10.3c7.4-5.5,8.4-11.8,3-19.4c-6-8.4-12.6-16.3-20.4-23.1
	c-4.9-4.1-9.8-8.3-15.3-12.9c3.4-0.3,5.7,0.6,7.8,1.9c13.9,8.3,25.5,19.2,34.4,32.7c5.5,8.3,3.2,19.1-5,24.6
	c-9.4,6.3-18.9,12.5-26,21.6c-0.6,0.8-1.5,2.5-3.1,1.3c-1.3-1-0.3-2.2,0.2-3.1c2.1-3.8,4.5-7.4,8.1-10
	C201.8,255.9,203,255,203.4,253.5z"/>
<path class="st0" d="M340.8,340.7c-1.2,1-2,0.9-2.8,0.6c-6.5-2.3-13-2.3-19.5,0c-1.7,0.6-3.6,1-5-0.8c-1.4-1.8-0.6-3.5,0.4-5.1
	c6-9.3,14.6-13.7,25.6-13.8c1.2,0,3-0.3,3.2,1.5c0.2,1.5-1.6,1.5-2.6,1.9c-4.9,1.9-9.8,3.8-14.2,8
	C331.6,335,337.4,335.7,340.8,340.7z"/>
<path class="st2" d="M351.6,253.5c-1.1-0.2-1.3-1-1.2-1.9C351.5,251.8,351.8,252.6,351.6,253.5z"/>
<path class="st0" d="M560.9,339.8c0.2-9.9,2.9-17.5,9.5-23.5c7.9-7.1,21.3-6,25.3,6.1c3.7,11.3,1.5,21.5-6.5,30.1
	c-9.5,10.2-23.1,6.8-27.1-6.6C561.4,343.6,561.1,341.1,560.9,339.8z M591.4,327.2c0-5.8-3.2-10.1-6.8-9.8c-4.5,0.4-5.3,4-5.4,7.6
	c-0.2,4.6,3.5,9.4,6.8,8.9C590,333.3,591.3,330.1,591.4,327.2z M571.1,351.5c2.4-0.4,3.2-2,3-3.9c-0.3-2.4-1.6-4.6-4.4-4.6
	c-1.9,0-2.7,1.9-2.5,3.7C567.3,349.1,568.4,351,571.1,351.5z"/>
<path class="st0" d="M507.3,318.9c-0.6,9.9-3.4,18-11.1,23.7c-7.9,5.9-17.4,4-22.3-4.2c-6.5-10.7-2.4-28.9,8-35.8
	c10.1-6.8,21-2.4,24.3,9.7C506.8,314.6,507,317.1,507.3,318.9z M500.4,314.4c0-1.1,0-1.8,0-2.4c0.1-3.9-2.3-6.6-5.7-7
	c-3.8-0.4-5.2,3-5.8,6.2c-0.3,1.4,0,3,0.4,4.4c1,3.1,2.6,6.3,6.4,5.8C499.6,320.8,500.9,317.8,500.4,314.4z M483.6,335.1
	c-0.4-2.2-1.2-4.4-4.1-4.3c-2.1,0-2.7,1.8-2.6,3.6c0.3,2.5,1.5,4.7,4.2,4.7C482.9,339.1,483.7,337.2,483.6,335.1z"/>
<path class="st0" d="M666.5,232.3c-0.8,14.4-3.3,27.9-10,40.4c-1.1,2.1-2,4.9-5.1,5c-3.1,0.1-3.4-2.8-4.5-4.7
	c-6.6-11.1-13.8-21.6-23.3-30.4c-2.6-2.4-3.3-4.7-0.5-7.1c9.4-8.2,19.8-14.7,32.3-17c7-1.3,9.4,0.9,10.4,7.9
	C666.1,228.5,666.3,230.6,666.5,232.3z M660.2,235.1c0-0.7,0-1.3-0.1-2c0-0.8,0.1-1.7,0.1-2.5c-0.3-7.4-1.5-8.2-8.5-5.7
	c-7.6,2.8-14.4,6.9-21,11.4c-2.1,1.5-2.5,2.6-0.5,4.6c7.4,7.3,13.4,15.7,18.9,24.5c0.6,1,0.9,2.9,2.5,2.6c1.3-0.3,1.8-1.8,1.9-3.2
	c3-7,5-14.3,5.8-21.8C660.8,240.5,660.3,237.8,660.2,235.1z"/>
<path class="st0" d="M602.4,287.6c-7.9-7.9-17.3-11.7-26.9-15.2c-3.6-1.3-2.9-6.2,0.8-7.8c2.8-1.2,5.8-1.3,8.8-0.6
	C594.1,266.3,602.8,277.3,602.4,287.6z"/>
<path class="st0" d="M474.7,274.1c0.8-11.7,14.8-21.1,24.5-17.5c2.1,0.8,4,2,4,4.5c0,2-1.3,3.7-3.2,3.9
	C490.9,265.9,482.6,268.8,474.7,274.1z"/>
<path class="st3" d="M512.6,344.6c1.1-3.2,4.1-2.9,6.5-3.4c11.5-2,23.5,4.9,27.6,15.7c0.1,0.2-0.3,0.5-0.5,0.8c0,0,0,0,0,0
	c-1.5-0.5-2.4,0.2-3,1.5c-1,2.1-2.7,3.5-4.7,4.6c-0.7-1.9-2.7-1.4-4.1-2.2c-2.7-1.5-5.5-2.8-6.1-6.3c2-0.8,4-1.6,6-2.4
	c1.5-0.7,3.2-1.5,3.1-3.4c-0.1-2.1-1.9-3.1-3.6-3.7C526.9,343.1,519.8,342.1,512.6,344.6L512.6,344.6z"/>
<path class="st3" d="M511.5,345.5c0-0.7,0.4-1,1.1-0.9c0,0-0.1,0-0.1,0C512.2,344.9,511.8,345.2,511.5,345.5L511.5,345.5z"/>
<path class="st3" d="M202.9,495.7c10.1,3.9,17.3,8.9,19.5,18.8c0.4,1.9,0.5,3.9,0.5,5.9c0,1.5-0.7,3.1-2.4,3.4
	c-1.8,0.3-2.6-1.3-3.1-2.6c-0.9-2.3-1.6-4.7-2.3-7.1C213.2,507,209.1,501.4,202.9,495.7z"/>
<path class="st6" d="M601.7,500c-5.2,5.2-8.3,11.6-10.2,18.5c-0.5,1.6-1.2,3.6-3.1,3.4c-2.5-0.3-2-2.7-2-4.4
	C586.5,509.6,592.5,502.5,601.7,500z"/>
<path class="st0" d="M275.5,369.5c0.2-0.2,0.3-0.4,0.3-0.7c0.8-0.9,1.3-1.7-0.4-2.2c-4.7-1.1-9.2-2.8-12.4-6.8
	c-3.9-5-2.4-9.4,3.8-10.4c7.2-1.1,14.5-1.4,21.8-0.2c5.6,1,7.2,4.5,4.2,9.3c-2.2,3.5-5.4,5.8-9.4,6.9c-2.4,0.7-3.8,1.4-2,4
	c1.5,5.7,5.2,8.7,10.8,8.7c5.2,0.1,8.1-2.5,9.6-8.5c0.7-1.7,0.6-4.3,3.4-3.7c2.7,0.6,2.1,2.9,1.8,4.8c-0.2,1.4-0.7,2.8-1.1,4.2
	c-0.3,0.7-0.6,1.3-0.9,2c0,0-0.1,0.1-0.1,0.1c-1.6,1.4-3.1,3.3-5,4c-3.7,1.3-4.5,3.9-4.6,7.3c-1,2.3-1.8,4.6-3.1,6.7
	c-6.6,11-19.6,11.4-26.8,0.7c-1.7-2.6-2.8-5.6-4.1-8.4c-0.2-1.8,0.5-4.1-2.2-4.7c-2.4-0.6-4.1-2.5-6.2-3.6c0,0-0.1-0.2-0.1-0.2
	c-0.1-0.8-0.5-1.4-1.2-1.7c-0.7-2.4-1.8-4.7-2-7.1c-0.3-3.6,1.2-5.1,4.7-2.6c0.1,1.1-0.1,2.2,0.9,3.1c0,0,0,0,0,0
	c1.6,5.8,4.1,7.8,9.7,7.7C270.9,378.3,274.2,375.4,275.5,369.5z M268.3,389.8c2.9,6.2,6.9,9.1,11.5,8.6c4.6-0.5,8.3-4.5,9.8-10.6
	c0.6-1.6,3-3.9-0.4-4.6c-2.9-0.6-5.2-2.4-8.4-3c-0.1,1.8-0.1,3.3-0.2,4.8c-0.2,1.6,0,3.4-0.6,4.8c-1.2,3-2.1,1.6-2.8-0.4
	c0-0.6-0.1-1.3-0.1-1.9c-0.2-1.2-0.5-2.5-0.7-3.7c-0.3-1.3,0.5-4.2-1.1-3.4c-2.8,1.3-6.2,1.8-8.2,4
	C265.9,385.7,267.2,388.1,268.3,389.8z"/>
<path class="st4" d="M275.5,369.5c-1.3,6-4.6,8.8-10.5,8.9c-5.5,0.1-8.1-1.9-9.7-7.7C262.3,375.3,269,374.2,275.5,369.5z"/>
<path class="st4" d="M301.9,369.7c-1.5,6-4.4,8.6-9.6,8.5c-5.6-0.1-9.3-3-10.8-8.7c2.9,0.7,4.9,3.1,8,3.7
	C294.3,374.1,298.1,372.3,301.9,369.7z"/>
<path class="st4" d="M295.6,388.5c0-3.4,0.9-6,4.6-7.3c1.9-0.7,3.3-2.6,5-4C304.8,383.4,299.4,385.3,295.6,388.5z"/>
<path class="st4" d="M253.1,379.1c2.1,1.1,3.8,3,6.2,3.6c2.7,0.7,2,2.9,2.2,4.7C257.1,386.4,253.9,384,253.1,379.1z"/>
<path class="st4" d="M255.3,370.7c-1-0.8-0.7-2-0.9-3.1C255.4,368.4,255.6,369.5,255.3,370.7z"/>
<path class="st4" d="M275.5,366.6c1.6,0.5,1.2,1.3,0.4,2.2C275.7,368.1,275.6,367.3,275.5,366.6z"/>
<path class="st4" d="M305.1,377.1c0.3-0.7,0.6-1.3,0.9-2C306.3,376,306.3,376.7,305.1,377.1z"/>
<path class="st4" d="M251.7,377.3c0.8,0.3,1.2,0.9,1.2,1.7C251.8,378.9,251.7,378.2,251.7,377.3z"/>
<path class="st0" d="M511.5,345.5c0.4-0.3,0.7-0.6,1.1-0.9c7.2-2.5,14.3-1.5,21.3,1.1c1.7,0.6,3.5,1.6,3.6,3.7
	c0.1,1.9-1.6,2.8-3.1,3.4c-2,0.9-4,1.6-6,2.4c-1.4,0.6-4.1-0.6-3.6,2.7c1,6,8.4,9.2,13.7,5.9c2-1.1,3.7-2.5,4.7-4.6
	c0.7-1.3,1.5-2,3-1.5c0.5,3.5-1.2,6.8-3.7,8.2c-5,3-4.7,7.8-5.8,12.2c-0.5,2.1-1.2,4.1-2.2,6c-2.2,4.4-5.5,7.5-10.9,7.2
	c-5.2-0.2-9.4-5.5-11.1-9.7c-1.5-3.7-2.2-7.7-3.1-11.6c-0.3-1.2-0.4-2-1.6-2.7c-4-2.3-4.5-6.3-4.5-10.4c0-1.3-0.1-3.1,1.6-3.2
	c1.9-0.2,1.5,1.8,1.9,2.9c0.2,0.6,0.5,1.2,0.7,1.9c0.2,0.4,0.4,0.8,0.6,1.3c0,0,0.1,0.1,0.1,0.1c0.8,2.7,2.3,5.4,5.3,4.4
	c2.6-0.9,6.3-1.2,7.1-5.1c0.7-3.5-1.8-4.5-4.2-5.5C513.7,351.6,510.5,349.7,511.5,345.5z M515.7,376.4c1,2.5,1.6,4.6,2.6,6.3
	c2.4,4,6.7,5.1,9.7,2.6c2-1.7,2.4-4.2,3.6-6.3c1.7-3,0.1-4.2-2.6-3.4C524.8,376.9,520.5,377.1,515.7,376.4z M517.9,345.6
	c2.8,2.2,5.1,2.3,8,0C523,344.1,520.7,344.1,517.9,345.6z"/>
<path class="st4" d="M516.4,353.6c2.5,1,4.9,2,4.2,5.5c-0.8,3.9-4.5,4.2-7.1,5.1c-3,1-4.5-1.7-5.3-4.4
	C511.2,358.1,515.6,358.3,516.4,353.6z"/>
<path class="st4" d="M508.1,359.7c-0.2-0.4-0.4-0.8-0.6-1.3C507.7,358.9,507.9,359.3,508.1,359.7z"/>
<path class="st3" d="M226.3,327.9c0.5-2.7,0.9-5.9,4.8-6.2c2.8-0.2,5.6,4.3,5.2,8.4c-0.3,3-1.1,6.1-4.8,6.5
	C228.5,336.9,226,332.5,226.3,327.9z"/>
<path class="st3" d="M591.4,327.2c-0.1,2.9-1.3,6.1-5.5,6.7c-3.3,0.5-7-4.3-6.8-8.9c0.2-3.6,0.9-7.2,5.4-7.6
	C588.2,317.1,591.3,321.4,591.4,327.2z"/>
<path class="st2" d="M571.1,351.5c-2.7-0.4-3.8-2.4-4-4.9c-0.1-1.8,0.6-3.6,2.5-3.7c2.8,0,4,2.2,4.4,4.6
	C574.3,349.4,573.5,351.1,571.1,351.5z"/>
<path class="st3" d="M500.4,314.4c0.5,3.4-0.9,6.4-4.7,7c-3.8,0.5-5.4-2.6-6.4-5.8c-0.4-1.4-0.7-3-0.4-4.4c0.6-3.2,2-6.6,5.8-6.2
	c3.4,0.4,5.8,3,5.7,7C500.4,312.6,500.4,313.3,500.4,314.4z"/>
<path class="st4" d="M483.6,335.1c0.1,2.1-0.7,4-2.5,3.9c-2.7-0.1-3.9-2.3-4.2-4.7c-0.2-1.7,0.5-3.5,2.6-3.6
	C482.4,330.7,483.2,332.9,483.6,335.1z"/>
<path class="st5" d="M653.7,264.8c-0.2,1.4-0.6,2.9-1.9,3.2c-1.6,0.3-1.9-1.6-2.5-2.6c-5.5-8.8-11.5-17.2-18.9-24.5
	c-2-2-1.7-3.1,0.5-4.6c6.6-4.5,13.4-8.6,21-11.4c7-2.6,8.2-1.7,8.5,5.7c0,0.8-0.1,1.7-0.1,2.5c-1.9-1.8-1.6-5.9-5.6-5.4
	c-3.9,0.5-6.1,3-7.7,6.2c-2.1,4.1-3,8.3-1.4,12.9C647.5,253.2,649.5,259.5,653.7,264.8z"/>
<path class="st5" d="M653.7,264.8c-4.2-5.3-6.2-11.7-8.2-18c-1.5-4.6-0.6-8.8,1.4-12.9c1.6-3.3,3.9-5.8,7.7-6.2
	c4-0.5,3.7,3.6,5.6,5.4c0,0.7,0,1.3,0.1,2c-1.9,2.5-1.1,5.2-0.8,7.9C658.6,250.6,656.7,257.9,653.7,264.8z"/>
<path class="st2" d="M659.5,243c-0.3-2.7-1.1-5.4,0.8-7.9C660.3,237.8,660.8,240.5,659.5,243z"/>
<path class="st4" d="M538.5,363.8c-5.3,3.3-12.8,0.1-13.7-5.9c-0.5-3.3,2.2-2.1,3.6-2.7c0.6,3.5,3.4,4.8,6.1,6.3
	C535.8,362.4,537.8,361.9,538.5,363.8z"/>
<path class="st7" d="M289.6,387.8c-1.5,6.1-5.2,10.1-9.8,10.6c-4.6,0.6-8.6-2.4-11.5-8.6c1.7-3.4,5.7-3.6,8.1-6.1
	c0.2,1.2,0.5,2.5,0.7,3.7c-0.8,0.7-0.9,1.3,0.1,1.9c0.7,2,1.7,3.3,2.8,0.4c0.6-1.5,0.4-3.2,0.6-4.8
	C284,384.7,286.4,387.7,289.6,387.8z"/>
<path class="st2" d="M289.6,387.8c-3.2-0.1-5.6-3-8.9-2.8c0.1-1.5,0.1-2.9,0.2-4.8c3.1,0.6,5.5,2.4,8.4,3
	C292.6,383.9,290.2,386.1,289.6,387.8z"/>
<path class="st2" d="M276.5,383.7c-2.4,2.5-6.4,2.7-8.1,6.1c-1.1-1.7-2.4-4.1-1.2-5.4c2-2.2,5.4-2.7,8.2-4
	C276.9,379.6,276.2,382.5,276.5,383.7z"/>
<path class="st2" d="M277.3,389.4c-1-0.6-0.9-1.2-0.1-1.9C277.2,388.1,277.2,388.8,277.3,389.4z"/>
<path class="st2" d="M515.7,376.4c4.8,0.8,9.1,0.5,13.3-0.7c2.7-0.8,4.3,0.4,2.6,3.4c-1.2,2.1-1.6,4.7-3.6,6.3
	c-3,2.5-7.3,1.4-9.7-2.6C517.3,380.9,516.7,378.9,515.7,376.4z"/>
<path class="st4" d="M517.9,345.6c2.8-1.5,5.1-1.5,8,0C523,348,520.7,347.8,517.9,345.6z"/>
</svg>
