<?xml version="1.0" encoding="utf-8"?>
<!-- Generator: Adobe Illustrator 26.0.0, SVG Export Plug-In . SVG Version: 6.00 Build 0)  -->
<svg version="1.1" id="e4da07c6-3f45-486e-a553-879e7f222c67"
	 xmlns="http://www.w3.org/2000/svg" xmlns:xlink="http://www.w3.org/1999/xlink" x="0px" y="0px" viewBox="0 0 926 749"
	 style="enable-background:new 0 0 926 749;" xml:space="preserve">
<style type="text/css">
	.st0{fill:#0D0A6B;}
	.st1{fill:#F6A42B;}
	.st2{fill:#968CCB;}
	.st3{fill:#B14221;}
	.st4{fill:#6861B1;}
	.st5{fill:#FEEBCD;}
</style>
<path class="st0" d="M454.8,702c-30.7-0.2-66.2-10.5-100.4-25.2c-80.4-34.5-152.9-81.3-215-143.2C97.9,492.3,66.7,444,53.5,386.1
	c-17.9-78.3-8.9-152.7,41.6-217.5c48.6-62.3,113.2-92.2,192.9-84.8c38.9,3.6,74.5,18,107,39.1c27.1,17.6,56.3,25.6,88.3,25.2
	c6.4-0.1,12.1-1.5,17.6-4.6c19.3-10.7,39.4-19.4,60.5-26c3.9-1.2,6.3-3.5,8.5-6.7c9-13.3,17.9-26.8,30-37.7
	c15.4-13.9,31.9-14.7,48.9-2.4c9.6,7,18,15.4,25.5,24.5c4.9,5.9,10.1,9,17.9,10.2c55.9,8.5,97.5,39.4,129.5,84.7
	c5.9,8.3,9,19.6,16.6,25.3c7.5,5.6,19.2,5.4,28.8,8.4c40.1,12.6,50.1,36.6,31.1,74c-7.8,15.4-18.3,29.1-29.3,42.3
	c-4.3,5.2-6.4,10.4-7.3,17.2c-7.3,55.2-29.1,104.6-62.8,148.6c-37.2,48.6-85,85.5-135.1,119.5c-46,31.2-95.4,55.4-149.3,69.9
	C497.1,699.8,479.6,701.9,454.8,702z M544.4,190.1c-0.1-1-0.7-1.6-1.7-1.7l0.1,0.1c-3.2-3.7-6.7-7-10.6-10.2
	c-12.4-10.3-27.6-13.5-42.3-18c-7.5-1.7-15.1-0.7-22.6-0.8c-17.4,0.4-33.7-4.4-49.6-10.5c-5.7-2.2-10.3-2.9-15.5-0.1
	c-15.3,3.9-21.6,12.8-19.6,28c0.5,4,1.6,7.9,2.3,11.8c0.4,2.2,1.9,5-1.1,6.4c-3,1.4-4.2-1.4-5.6-3.3c-14.4-18.9-10.2-39,10.8-52.1
	c2.4-0.1,4.7-0.5,6.9-2.4c-11.7-8-23.8-14.8-36.5-20.6c-41.7-19.3-85.1-28.1-130.7-18.8c-61.3,12.4-107,47.2-139.6,100.1
	c-0.4,0.8-0.9,1.6-1.3,2.4c-0.3,0.2-0.5,0.6-0.6,0.9c-0.3,0.7-0.6,1.5-1,2.2c-0.4,0.3-0.6,0.6-0.8,1.1c-1.5,1.8-3.2,3.5-3,6.8
	c5,0,10,0,15,0c2.2,0.4,4.4,0.9,6.5,1.3l0.3,0c22.3,6.5,32.2,23.3,37.2,44.3c3.2,13.8,6.1,27.7,9.8,41.4c7.1,26.2,17,51.6,39,68.7
	c22.6,17.6,43.2,36.7,59.4,60.4l-0.1,0.7l0.7,0.3c0.1,0.3,0.4,0.6,0.7,0.7c-0.3,1.8,1,2.9,1.8,4.3c14.9,27.2,23.5,55.9,19.7,87.2
	c-0.8,6.7,0.9,8.4,7.2,8.8c52.7,2.8,105.2,1.5,156.8-10.9c21.2-5.1,41.5-13,60-24.8c1.7-1.1,4.3-1.7,4.2-4.3c-0.1-2-2.1-2.2-3.6-2.5
	c-16-2.7-25.2-13-30.9-27.4c-1.2-6.6-1.3-13.3-1.2-20c0.8-33.3-0.2-66.5-6.2-99.5c-1-5.7-2.9-9.4-8.8-10.7
	c-5.6-1.2-8.4-6.4-12.5-9.7c-1.1-0.8-2.1-2-0.9-3.4c1.1-1.3,2.4-0.4,3.6,0.3c2.3,1.3,4.5,2.9,7,3.7c17,5.2,30-2.2,41.9-13.6
	c12-11.5,10.4-24,4.5-37.6c-2-4.5-3.6-6.4-8.8-4.9c-8.9,2.6-18,2-27.1,0.4c-16.3-3-20.7-11.7-13-26.2c8.8-16.4,34.5-29.9,53.1-27.8
	c6.5,0.7,10.5,4.4,11,10.8c0.7,9.5,0.3,19.2-4.8,27.4c-3.8,6.1-3.6,11.2-0.9,17.1c1.2,2.7,2.3,5.5,3,8.3c1.5,6.1,5.5,8.7,11.4,9.4
	c12.7,1.5,21.5-6.7,21.6-20c0-3.4-2.2-7,0.1-10.8c8.1,9.2,9.7,20.3,4.2,30c-10.5,18.8-17.3,38.8-18.9,60.2
	c-1.5,19.5-6.8,39.7,7.2,57.3c5.7,13,10.2,26.4,11.7,42.8c16.6-30.3,15-61.1,15.4-91.6c0.4-2.3,0.7-4.6,1.1-6.9
	c0.8-0.8,0.9-1.8,0.4-2.8c0.8-5,1.5-10,2.5-15c5.4-25.9,10.4-51.9,7.1-78.6c-1.9-15.7-5.6-31-14.3-44.6c-0.5-0.9-1-1.7-1.6-2.6
	l0,0.1c-0.2-0.9-0.4-1.8-1.7-1.7l0.2,0.1c-0.1-2.4-1.4-3.9-3.4-4.9l0.1,0.1c0-1.2-0.3-1.9-1.7-1.7l0.1,0.1c0.2-1.3-0.2-2.1-1.7-1.7
	l0.1,0.1c0.3-1.5-0.9-1.4-1.8-1.6L544.4,190.1z M892.4,256l0.2,0.1c0.5-4.1-2.7-6.1-5.1-8.3c-12-10.6-26.8-14.1-42.3-17.6
	c0.7,3.6,1.7,6,3.5,8.1c3,14.9,3,14.9,16.4,17.4c17.4,3.2,21.5,10,16.2,26.6c-4.9,6.8-9.6,13.8-14.8,20.4c-2.3,2.9-3.5,5.7-2.7,9.3
	c0.1,4.5-0.9,9.1,1,14.5c10.9-14.3,21-27.8,27.3-43.6c3.3-8.2,5.7-16.7,2.1-25.5C893.8,256.7,894,255.3,892.4,256z M578.3,572.4
	c-1.8-0.1-3.5-0.1-5.3-0.2c-8.5-1.3-17.1-1.9-25.3-4.1c-5.9-1.5-6.6,0.7-7.5,5.4c-1.3,7.6-3.3,15.1-5,22.7c-0.8-0.1-1.6-0.2-2.4-0.3
	c1.6-8.7,0.6-17.4,0.1-26.1c-0.6-11.5-5.5-19.9-16.9-23.6c-10.3-3.3-18.7-0.4-27.3,8.4c9.4-1.1,17.3-3.1,25.1,0.2
	c3.9,1.6,7.1,3.8,4.8,8.3c-2.2,4.4-5.6,2.7-8.8,0.6c-6.2-4.2-12.9-4.6-20-2.7c-8.1,2.2-4,8.8-4.6,13.5c-0.6,5,3.6,3.4,6.2,3.4
	c8.8,0.1,16.3,2.5,21.5,10.3c-9-3.7-17.9-5.9-26.9-0.6c-3.1,6.6-0.4,13.6-1.2,20.3c-0.6,5.3,0.8,10,4.4,14
	c20,21.7,45.5,30.5,74.2,31.7c14,1.7,27.3,1,40.3-6.3c25.3-14.1,50.1-28.9,73.6-45.9c23.4-17,46.3-34.7,67.1-54.9
	c0.3-0.3,0.5-0.6,0.8-1c-0.5,0-1.1,0.1-1.6,0.1c-21.3,4.9-42.7,7.6-64.6,6.4c-24.5-1.3-48.3-6.1-72-12.1c-0.9-0.5-1.8-1.2-2.8-1.5
	c-30.7-9.6-59.9-22.1-84.1-44c-2.3-2.1-3.9-1.8-6.2,0c-13.4,10.5-28.4,18.2-44.2,24.5c-1.9,0.7-5,1.2-3.8,4.1
	c3.3,7.9,4.6,16.6,9.9,23.6c2.2,2.9,3.6,3.4,6.7,0.3c17.9-17.8,42.5-15.3,56.1,5.8c1.8,2.8,3.7,4.3,6.8,4.7
	c11.9,1.6,23.9,4.1,35.9,4.6c6.4,0.3,12.9,4,19.5,0.7c0.5,0.1,1.1,0.1,1.6,0.2c21.6,0.4,43.1,0.1,64.7-1.1c1.5-0.1,3.4-1.1,4,1
	c0.5,1.6-1.6,1.8-2.5,2.7c-7.2,0.3-14.1,2-21.1,3.6c-17.1,1.5-34.2,2.9-51.4,4.4C590.2,573,584.2,572.7,578.3,572.4z M617.4,75.8
	c-15.4,7-22.7,21.4-31.9,34.1c7.6-1.9,15.6-0.8,21.2-8.7c11.3-15.7,18.8-16.1,33.3-2.9c5.2,4.7,10.1,5.1,15.9,2.6
	c2.4,0.6,4.4,3.5,7.9,0.4c-9.2-10.2-18.3-20.5-31.3-26C627.6,73.2,622.4,72.5,617.4,75.8z M524.9,679.8c13.1-3.6,25.8-8.4,37.9-14.7
	c-24.5-2.7-47.1-9.7-68-23.4c-1.1,5.8,0.4,10.6,1,15.6c0.2,8,0.7,16,0.5,24c-0.1,5,2.1,6.1,6.3,4.9
	C510.1,684.1,517.5,681.9,524.9,679.8z M442.5,689.1c12.6,1.8,25.1,1.3,37.8,0.5c4.9-0.3,6.5-2.1,6.3-6.9
	c-0.6-11.2-0.1-22.6-2.5-33.7c-1-6.7-0.7-13.7-4.3-20.9c-7.6,7.6-14.6,14.9-23.4,20.1c-22.3,13.3-46.8,19.2-72.3,21.8
	c-1.7,0.2-4.2-0.7-4.9,1.5c-0.8,2.6,1.9,2.8,3.5,3.4C402.2,681.4,421.9,687.2,442.5,689.1z M815.1,204.4l0.2,0.1
	c0.1-2.2-0.8-4.1-2-6c-34.9-50.4-81.4-80.8-143.8-83.9c-53.8-2.7-104.2,10.5-152.2,33.8c-2.9,1.4-6.4,2.1-8.4,5.5
	c4.5,1.5,8.3,3.6,12.7,3.8c0.7,0.7,1.3,1.7,2.1,2.1c17.5,8.6,31.3,21.3,41,38.3c2,3.5,4.6,3.7,8,3.8c9.3,0.3,17.7,3,25.3,8.7
	c10.9,8.2,18.2,32.3,6.9,46.4c-1.8-6.5-3.3-12.6-5.1-18.7c-1.9-6.2-4.8-11.9-9.4-16.6c-4.6-4.6-9.9-8.1-16.3-9.8
	c-0.6-0.1-1.2-0.3-1.7-0.4c0.1,0.6,0.1,1.2,0.2,1.8c1.5,5.1,3,10.3,4.4,15.4c5.6,21.3,4.6,43,3.1,64.7c-0.4,1.3-1,2.5-1.3,3.8
	c-8.1,33.6-10.5,67.8-11,102.3c-0.7,5.9-3.1,11.6-2.3,17.7c-7.5,24.4-18.5,46.8-37,64.9c-3.4,3.3-0.9,5.2,1.4,7.1
	c9.8,8.4,20.5,15.6,32.1,21.4c34.5,17.3,71.1,27.2,109.4,30.4c29.1,2.4,57.9,0.3,85.2-11.9c6.6-3,12.9-6.5,17.8-12.1
	c40.3-46.4,67.2-99.3,75.6-160.7c2.1-15.5,4.3-31.3,0.9-47c0.8-9.4-1.1-18.6-2.7-27.8c-3.3-19.5-10.3-37.7-18.5-55.5
	c-3.2-7.1-5.8-14.8-12.3-20C816.5,205.5,815.8,205,815.1,204.4z M474,380.7c0.4,8.8,1,17.6,1.1,26.5c0.3,13.9,0,27.9,0.4,41.8
	c0.4,12.1,8.9,23.3,19.8,26.8c11.2,3.6,23.9,0,30.8-10c7.8-11.3,8-23.9,3.7-36.7c-2-17.6-11-32.1-20.6-46.3
	c-2.4-3.5-6.7-3.2-10.4-2.7c-2.6,0.4-1.5,2.1-0.4,3.5c2.6,9.8,6.2,19.6,4,30.1c-3.7-10.7-8.6-20.6-14.4-30.1c-1.8-4-5.5-5.3-9.2-6.3
	C476.4,376.7,473.2,376.2,474,380.7z M463.3,591.6c-4.8-1.1-8.5,3.7-14.3,3.2c5.6-6.4,11.4-10.1,19.2-10.2c2.1,0,4.4,0.4,5.9-1.7
	c3.4-4.5,0-16.8-5.3-19.1c-8.9-3.8-20-0.7-25.9,7.1c-1.1,1.4-0.9,4.5-4,4.1c2.4-12.8,8-16.6,30.2-20.7c-7.4-7.8-16.3-10-25.8-7.1
	c-10.1,3.1-19.6,7.9-22.3,19.6c-1.8,7.7-3,15.5-4.5,23.3c-0.7,0-1.3-0.1-2-0.1c-0.6-6.3-1.4-12.5-1.7-18.8c-0.2-3.7-1.5-4.6-4.9-3.8
	c-10.8,2.4-21.8,2.2-32.7,3.4c-22-1.2-43.1-6.4-64.2-12.4c1.9-4.7,5.4-2.1,8.1-1.5c28,6.5,56.1,8.7,84.5,1.7
	c5.7-1.4,10.2-3.8,14.4-8.1c9.1-9.4,20.3-14.8,33.6-14.9c2.3,0,5.2,0.9,6.1-2.3c0.7-2.1-0.3-4.2-1.6-6c-1.8-2.6-4.2-1.6-6.5-1
	c-39.5,11.5-80,15-121,15.1c-18,0-36-0.2-53.9-0.7c-5-0.1-7.7,1.4-9.8,6.2c-4,9.2-10.2,16.9-18.2,23.1c-9.7,7.4-21.1,9.4-33.7,10.9
	c1.7,1.5,2.4,2.3,3.2,2.9c33.8,24.3,68.9,46.5,105.9,65.7c24.6,12.7,50.5,12.7,76.8,8.1c22.9-2.4,43.4-10.6,61.7-24.6
	c9.8-7.5,16.2-16.4,14.8-29.9C474.2,592.9,474.1,592,463.3,591.6z M74.2,228.6c-5.4,17.4-11,34.6-13.6,52.8
	c-8.8,62.1,3.6,119.9,34.6,173.9c23.1,40.2,54.2,73.6,89.8,103.1c21.5,17.8,54.2,12.2,67.5-12.4c9.7-17.9,12.3-36.8,8.4-56.7
	c-0.4-3.2-0.4-6.4-1.2-9.5c-9.8-39.9-32-71.5-64.7-95.8c-12.8-9.5-23.8-20.6-33.2-33.4c-12.3-16.9-16.5-36.9-22.1-56.5
	c-4.6-16.2-5.9-33.2-12.7-48.8c-8.2-18.9-26.3-28-45.8-23.9C77,222.5,74.3,224.1,74.2,228.6z M487.7,221.1
	c-8,2.7-16.6,6.7-22.9,14.5c-1.6,2-1.9,4.5-0.3,6.7c1.6,2.2,4,2.8,6.5,2.1c8.9-2.5,16.8-7,23.1-13.9c1.8-1.9,2.4-4.3,1.2-6.7
	C494,221.5,491.7,220.8,487.7,221.1z M862.1,293.9c5.9-6.2,10.1-12.2,12.6-19.2c1.4-3.9,0.1-7-3.7-8.5c-3.2-1.2-6.7-1.8-10-2.7
	c-3.6-0.9-5,0.2-4.1,4C858.6,275.8,860.1,284.2,862.1,293.9z M616.3,104.5c5,0.2,9.8,0.2,14.6-1.9
	C623.6,95.9,621.3,96.2,616.3,104.5z"/>
<path class="st1" d="M249.7,427.5c-16.2-23.7-36.8-42.8-59.4-60.4c-22-17.1-31.9-42.5-39-68.7c-3.7-13.7-6.6-27.6-9.8-41.4
	c-4.9-21-14.9-37.9-37.2-44.3c0,0,0-0.5,0-0.5l-0.3,0.4c-2.2-0.4-4.4-0.9-6.5-1.3c-2.7-2.7-7.8-0.3-9.8-4.6c1.3-1.7,2.7-3.3,3.9-5.1
	c15.8-24.7,35.5-45.8,59.8-62.2c66.7-45.1,136.9-48.2,209.5-16.1c9.9,4.4,20.6,7.7,28.1,16.5c-21,13.1-25.2,33.2-10.8,52.1
	c1.4,1.9,2.6,4.7,5.6,3.3c3-1.4,1.4-4.2,1.1-6.4c-0.7-4-1.7-7.8-2.3-11.8c-1.9-15.2,4.4-24.1,19.6-28c3.6,0.1,6.8,1.1,10,2.7
	c20.5,10.4,42.3,14.8,65.1,15.7c21.5,0.9,41.9,6,59.8,18.8c1.7,1.2,3.3,2.8,5.7,2.4c0,0-0.1-0.1-0.1-0.1c-0.1,1.2,0.5,1.8,1.7,1.7
	c0,0-0.1-0.1-0.1-0.1c0,1.2,0.6,1.8,1.8,1.6c0,0-0.1-0.1-0.1-0.1c-0.1,1.2,0.5,1.8,1.7,1.7c0,0-0.1-0.1-0.1-0.1
	c0,1.1,0.5,1.8,1.7,1.7c0,0-0.1-0.1-0.1-0.1c-0.2,2.5,1.2,4,3.4,4.9c0,0-0.2-0.1-0.2-0.1c0.6,0.6,1.1,1.1,1.7,1.7c0,0,0-0.1,0-0.1
	c0.5,0.9,1,1.7,1.6,2.6c8.7,13.6,12.3,28.8,14.3,44.6c3.3,26.7-1.7,52.7-7.1,78.6c-1,5-1.7,10-2.5,15c-0.9,0.8-1.2,1.7-0.4,2.8
	c-0.4,2.3-0.7,4.6-1.1,6.9c-5.8,3.3-5,10-7.6,15c-6.2,11.5-9.9,24.3-19.5,33.8c-13.9-17.6-8.7-37.9-7.2-57.3
	c1.7-21.4,8.4-41.4,18.9-60.2c5.5-9.8,3.8-20.8-4.2-30c-2.3,3.7,0,7.3-0.1,10.8c-0.1,13.2-8.9,21.4-21.6,20c-6-0.7-10-3.3-11.4-9.4
	c-0.7-2.8-1.8-5.6-3-8.3c-2.6-5.9-2.8-11,0.9-17.1c5-8.1,5.5-17.9,4.8-27.4c-0.5-6.4-4.5-10.1-11-10.8
	c-18.6-2.1-44.3,11.4-53.1,27.8c-7.8,14.6-3.3,23.2,13,26.2c9.1,1.7,18.2,2.3,27.1-0.4c5.2-1.5,6.8,0.4,8.8,4.9
	c5.9,13.6,7.5,26.1-4.5,37.6c-11.9,11.3-24.8,18.7-41.9,13.6c-2.5-0.7-4.7-2.4-7-3.7c-1.2-0.7-2.5-1.5-3.6-0.3
	c-1.2,1.3-0.1,2.5,0.9,3.4c4.1,3.3,6.9,8.5,12.5,9.7c5.9,1.3,7.7,5,8.8,10.7c5.9,32.9,6.9,66.2,6.2,99.5c-0.2,6.7,0,13.4,1.2,20
	c-2.3,0.7-4.6,1.3-6.9,2.1c-25.5,9.8-51.7,14.3-79.2,12.5c-40.2-2.6-76.9-14.7-111.2-35.4c-5.8-3.5-10.5-9.3-18-9.7
	c-0.3-0.2-0.5-0.4-0.6-0.7C250.8,427.7,250.4,427.5,249.7,427.5z M299.2,247.8c-14.6,0.4-28.4,5.4-36.6,20
	c-8.5,14.9-6.1,30,1.3,44.7c1,1.9,2,4.2,4.8,3.1c2.7-1.1,1.7-3.6,1.5-5.6c-0.5-5.1-1.5-10.1-1.5-15.2c-0.1-19.9,10.9-32.2,30.5-34.9
	c8.1-1.1,16.1-0.6,24.1,0.6c2.1,0.3,4.6,1.1,5.5-1.6c0.9-2.6-1.3-3.7-3.3-4.7C317.6,250.2,309.4,248.1,299.2,247.8z"/>
<path class="st2" d="M574,212c6.3,1.8,11.7,5.2,16.3,9.8c4.7,4.6,7.6,10.4,9.4,16.6c1.8,6,3.4,12.2,5.1,18.7
	c11.3-14.1,4-38.2-6.9-46.4c-7.6-5.7-16-8.4-25.3-8.7c-3.4-0.1-6-0.3-8-3.8c-9.7-17-23.5-29.7-41-38.3c-0.8-0.4-1.4-1.4-2.1-2.1
	c-0.2-2.5,1.8-2.9,3.5-3.7c49-22.8,100.4-33.9,154.3-28.5c43.6,4.4,82,21.2,112.6,54c7.8,8.3,13.7,18.5,23.4,25c0,0-0.2-0.1-0.2-0.1
	c0.7,0.5,1.4,1,2.1,1.5c6.5,5.1,9.1,12.9,12.3,20c8.1,17.8,15.2,36.1,18.5,55.5c1.5,9.2,3.4,18.4,2.7,27.8c-2.6,0.9-3.5,3.3-4.3,5.5
	c-8.7,23.3-22.5,43.8-35.4,64.8c-17.3,28-41.4,44.9-73.8,50c-25.1,3.9-50.2,3.5-75.2-0.4c-6.5-1-13.9,0.3-19.4-5
	c2.6-1.4,5.1-3,7.7-4.3c45.2-22.1,39.7-71.2,19.5-96.2c0.8-2.7,0.2-5.3-1-7.7c-6.7-13.2-17-22.3-30.9-27.3
	c-3.7-1.3-7.3-0.9-10.6,1.6c-16-2.4-31.9-2.2-47.3,3.3c1.5-21.7,2.4-43.3-3.1-64.7c-1.4-5.2-2.9-10.3-4.4-15.4
	C572.9,212.9,573.4,212.4,574,212z M776.6,397.4c7.1-9.2,10.2-18.8,11-29c1.5-17.6-7.9-30.7-25.1-35.1c-12.5-3.2-24.9-2.4-37.2,1.2
	c-1.9,0.6-4.5,0.2-4.9,3.5c10.8,1.8,21.7,3.1,32.3,5.5c17.5,4,23.6,12.1,23.9,30C776.7,380.9,776.6,388.3,776.6,397.4z"/>
<path class="st3" d="M260.9,489.4c3.9,19.9,1.3,38.8-8.4,56.7c-13.3,24.5-46,30.1-67.5,12.4c-35.6-29.5-66.7-62.9-89.8-103.1
	c-31-54-43.4-111.8-34.6-173.9c2.6-18.2,8.1-35.4,13.6-52.8c34.8-2.9,49.7,8.2,57.5,42.5c3.2,13.8,6.4,27.7,10.1,41.4
	c8.6,32.3,24.4,59.7,52.2,79.7c31.7,22.9,53.1,53.3,64,91C258.5,485.4,258.2,488.1,260.9,489.4z"/>
<path class="st4" d="M642.5,424.1c5.5,5.3,12.9,4,19.4,5c25,3.9,50.1,4.3,75.2,0.4c32.4-5.1,56.5-22,73.8-50
	c13-21,26.8-41.4,35.4-64.8c0.8-2.2,1.7-4.6,4.3-5.5c3.3,15.7,1.2,31.5-0.9,47c-8.4,61.3-35.3,114.2-75.6,160.7
	c-4.9,5.6-11.1,9.1-17.8,12.1c-27.2,12.3-56,14.3-85.2,11.9c-38.3-3.1-74.9-13-109.4-30.4c-11.5-5.8-22.2-13-32.1-21.4
	c-2.3-1.9-4.8-3.8-1.4-7.1c18.5-18.1,29.5-40.6,37-64.9c2.9,0.3,4.5,2.7,6.5,4.3c14.8,11.9,46.2,13.9,62.7,4
	C637.2,425.1,639.9,424.6,642.5,424.1z"/>
<path class="st3" d="M251,429.2c7.5,0.4,12.2,6.2,18,9.7c34.3,20.7,71,32.8,111.2,35.4c27.5,1.8,53.7-2.8,79.2-12.5
	c2.2-0.9,4.6-1.4,6.9-2.1c5.6,14.4,14.8,24.7,30.9,27.4c1.5,0.3,3.5,0.5,3.6,2.5c0.1,2.7-2.5,3.3-4.2,4.3
	c-18.6,11.7-38.8,19.7-60,24.8c-51.6,12.4-104.1,13.7-156.8,10.9c-6.3-0.3-8-2.1-7.2-8.8c3.9-31.3-4.7-60-19.7-87.2
	C252,432.1,250.7,431,251,429.2z"/>
<path class="st3" d="M398.8,657.3c-26.4,4.6-52.2,4.6-76.8-8.1c-37-19.1-72.1-41.3-105.9-65.7c-0.8-0.6-1.5-1.3-3.2-2.9
	c12.6-1.4,24.1-3.4,33.7-10.9c8.1-6.2,14.3-13.9,18.2-23.1c2-4.7,4.8-6.3,9.8-6.2c18,0.5,36,0.8,53.9,0.7
	c40.9-0.1,81.4-3.6,121-15.1c2.3-0.7,4.7-1.6,6.5,1c1.3,1.8,2.2,3.9,1.6,6c-1,3.1-3.9,2.2-6.1,2.3c-13.4,0.1-24.5,5.5-33.6,14.9
	c-4.1,4.3-8.7,6.7-14.4,8.1c-28.3,7-56.4,4.7-84.5-1.7c-2.7-0.6-6.2-3.2-8.1,1.5c-2.4,0.3-4.8,0.5-7.2,0.8
	c-10.8,1.4-20.3,4.9-26.3,14.8c-4,6.6-3.4,10.6,3.1,14.7c5.7,3.6,11.6,6.7,17.4,10.1c24.1,14.5,49.4,24.6,78.3,21.6
	c0.5,0.4,1,0.8,1.5,1.2c0.9,5.1,3.9,9.2,5.9,13.8C387.2,643.7,394.6,649.4,398.8,657.3z"/>
<path class="st4" d="M744.5,546.5c-20.8,20.2-43.7,37.9-67.1,54.9c-23.4,17-48.3,31.8-73.6,45.9c-13,7.3-26.3,8-40.3,6.3
	c12.6-12,16.4-27.1,15.3-43.9c0.1-0.4,0.3-0.7,0.6-1c3.7,0,7.5,0.1,11.2-0.1c6.2-0.5,9.9-2.9,8.7-10.1c-1.4-8.4-2.2-16.8-3.2-25.3
	c17.1-1.5,34.2-2.9,51.4-4.4c0.1,7-0.3,13.8-2.4,20.5c-1,3-1.3,5.5,3.3,4.6c12.8-2.6,22.6-16.5,20.2-28.7c0.9-0.9,3-1,2.5-2.7
	c-0.6-2.1-2.5-1.1-4-1c-21.5,1.2-43.1,1.4-64.7,1.1c-0.5,0-1.1-0.1-1.6-0.2c1.9-7.6,2.4-15.5,6.2-22.5c23.7,6,47.5,10.8,72,12.1
	c21.9,1.1,43.3-1.6,64.6-6.4C743.9,546,744.2,546.2,744.5,546.5z"/>
<path class="st5" d="M642.5,424.1c-2.6,0.5-5.3,1-7.9,1.4c-1.4-2-3.7-2.1-5.7-2.6c-21.3-5.4-41.7-13.4-61.2-23.4
	c0.4-34.4,2.9-68.7,11-102.3c0.3-1.3,0.8-2.5,1.3-3.8c15.5-5.5,31.3-5.7,47.3-3.3c0.7,5.3,0.7,10.8,2.1,15.9
	c2.7,9.8-0.6,17.3-7.3,24.3c-4.7,4.9-9.5,8-16.3,5.2c-6.1-2.5-9.6-10.3-8.7-17.4c0.4-3.4,3.2-6.3,1.7-10.4
	c-5.8,3.5-9.4,8.5-9.8,14.8c-0.6,7.7-3.2,14.6-5.7,21.7c-2.6,7.6-5.4,15.1-7.7,22.8c-4.9,17.1,4.5,32.8,21.5,36.8
	c7.3,1.7,13.9-0.1,20.2-3.2c18-8.6,31.5-23,46-36c2.2-2,4.1-4.8,3.8-8.1c-1.8-1.1-2.9,0.1-3.9,0.8c-6,4.1-12.3,6.5-19.7,5.1
	c-9.2-1.7-15.7-10-14.9-19.1c0.8-9.8,8.4-16.3,17.8-16.8c7.7-0.4,16.1,3.1,23.1-2.9c20.2,25,25.7,74-19.5,96.2
	C647.6,421.1,645.1,422.7,642.5,424.1z"/>
<path class="st2" d="M607,540c-3.8,7-4.3,15-6.2,22.5c-6.6,3.4-13-0.4-19.5-0.7c-12-0.5-23.9-3-35.9-4.6c-3.1-0.4-5-1.9-6.8-4.7
	c-13.7-21-38.2-23.6-56.1-5.8c-3.1,3.1-4.6,2.6-6.7-0.3c-5.3-7-6.6-15.7-9.9-23.6c-1.2-2.8,2-3.3,3.8-4.1
	c15.8-6.2,30.7-14,44.2-24.5c2.3-1.8,3.9-2.1,6.2,0c24.3,21.9,53.4,34.4,84.1,44C605.3,538.7,606.1,539.4,607,540z"/>
<path class="st5" d="M377.7,621.5c-0.5-0.4-1-0.8-1.5-1.2c-4.4-16.4-4.1-33-1.1-49.6c10.9-1.2,21.9-1,32.7-3.4
	c3.4-0.8,4.8,0.2,4.9,3.8c0.3,6.3,1.1,12.6,1.7,18.8c0.7,0,1.3,0.1,2,0.1c1.5-7.8,2.7-15.6,4.5-23.3c2.7-11.8,12.2-16.5,22.3-19.6
	c9.5-2.9,18.4-0.7,25.8,7.1c-22.2,4.1-27.8,7.9-30.2,20.7c3.1,0.5,2.9-2.6,4-4.1c6-7.7,17.1-10.9,25.9-7.1
	c5.3,2.3,8.8,14.6,5.3,19.1c-1.5,2-3.8,1.7-5.9,1.7c-7.7,0-13.5,3.7-19.2,10.2c5.9,0.5,9.5-4.3,14.3-3.2c-7.3,9.1-17.8,13.2-28,17.6
	C416.9,617.1,397.4,619.7,377.7,621.5z"/>
<path class="st1" d="M375,570.7c-3,16.6-3.3,33.2,1.1,49.6c-28.9,3-54.2-7.1-78.3-21.6c-5.7-3.5-11.7-6.6-17.4-10.1
	c-6.5-4.1-7.1-8.1-3.1-14.7c6-9.9,15.5-13.4,26.3-14.8c2.4-0.3,4.8-0.5,7.2-0.8C331.9,564.3,353.1,569.4,375,570.7z"/>
<path class="st3" d="M529.9,429.2c4.3,12.8,4.1,25.4-3.7,36.7c-7,10-19.6,13.7-30.8,10c-10.9-3.5-19.5-14.7-19.8-26.8
	c-0.4-13.9-0.2-27.9-0.4-41.8c-0.2-8.8-0.7-17.7-1.1-26.5c4.9-0.1,8.6,5.5,14.1,3c5.8,9.5,10.7,19.4,14.4,30.1
	c2.2-10.5-1.4-20.2-4-30.1c6.4-0.1,10.1,3.5,13.4,8.6C519.3,403.9,523.9,416.9,529.9,429.2z"/>
<path class="st5" d="M579.4,608.8c-0.3,0.3-0.5,0.6-0.6,1c-26.1,1.6-52.3,3.6-78.1-3.4c-14.7-4-14.8-4.1-14.8-18.8
	c9-5.3,17.9-3.1,26.9,0.6c-5.2-7.9-12.8-10.3-21.5-10.3c-2.6,0-6.9,1.6-6.2-3.4c0.6-4.7-3.6-11.2,4.6-13.5c7.1-1.9,13.8-1.5,20,2.7
	c3.2,2.1,6.6,3.8,8.8-0.6c2.3-4.5-0.9-6.6-4.8-8.3c-7.7-3.3-15.6-1.3-25.1-0.2c8.6-8.7,17-11.7,27.3-8.4
	c11.4,3.7,16.4,12.1,16.9,23.6c0.4,8.7,1.4,17.3-0.1,26.1c0.8,0.1,1.6,0.2,2.4,0.3c1.7-7.5,3.7-15.1,5-22.7c0.8-4.7,1.6-6.9,7.5-5.4
	c8.2,2.2,16.9,2.8,25.3,4.1c0.6,1.1,1.2,2.1,1.8,3.2C576.3,586.6,577.9,597.7,579.4,608.8z"/>
<path class="st2" d="M377.7,621.5c19.7-1.8,39.3-4.5,57.7-12.4c10.2-4.4,20.8-8.5,28-17.6c10.8,0.4,10.8,1.3,11.9,11.2
	c1.4,13.5-5,22.4-14.8,29.9c-18.2,14-38.8,22.2-61.7,24.6c-4.2-7.9-11.6-13.7-15.2-22C381.5,630.8,378.5,626.6,377.7,621.5z"/>
<path class="st2" d="M486,587.6c0,14.7,0,14.8,14.8,18.8c25.8,6.9,51.9,5,78.1,3.4c1.1,16.8-2.7,31.9-15.3,43.9
	c-28.7-1.3-54.2-10.1-74.2-31.7c-3.7-4-5.1-8.7-4.4-14C485.7,601.2,483,594.2,486,587.6z"/>
<path class="st5" d="M815.2,204.5c-9.7-6.5-15.6-16.7-23.4-25c-30.6-32.8-69-49.6-112.6-54c-53.9-5.4-105.3,5.6-154.3,28.5
	c-1.7,0.8-3.7,1.2-3.5,3.7c-4.4-0.2-8.2-2.2-12.7-3.8c2-3.3,5.5-4.1,8.4-5.5c48.1-23.3,98.4-36.5,152.2-33.8
	c62.4,3.2,108.9,33.6,143.8,83.9C814.4,200.4,815.3,202.3,815.2,204.5z"/>
<path class="st5" d="M388.9,139.7c-7.5-8.7-18.2-12.1-28.1-16.5c-72.7-32.1-142.8-29-209.5,16.1c-24.3,16.4-44,37.5-59.8,62.2
	c-1.1,1.8-2.6,3.4-3.9,5.1c-0.7-0.7-1.5-1.4-2.2-2.2c0.2-0.4,0.4-0.8,0.8-1.1c1.5-0.2,1.2-1.2,1-2.2c0.1-0.4,0.3-0.7,0.6-0.9
	c1.4-0.2,1.6-1.2,1.3-2.4c32.6-52.8,78.3-87.6,139.6-100.1c45.6-9.2,89-0.5,130.7,18.8c12.6,5.9,24.8,12.6,36.5,20.6
	C393.6,139.2,391.3,139.6,388.9,139.7z"/>
<path class="st3" d="M442.5,689.1c-20.6-1.9-40.3-7.8-59.9-14.1c-1.6-0.5-4.3-0.8-3.5-3.4c0.7-2.2,3.2-1.4,4.9-1.5
	c25.5-2.6,50-8.5,72.3-21.8c8.8-5.2,15.8-12.5,23.4-20.1c3.5,7.2,3.3,14.2,4.3,20.9c-1,0.9-2.3,1.5-2.9,2.6
	c-6.8,11.9-16.7,20.7-27.2,29.2C450.2,683.8,444.7,684.2,442.5,689.1z"/>
<path class="st2" d="M260.9,489.4c-2.6-1.3-2.3-4-3-6.2c-10.9-37.7-32.3-68.2-64-91c-27.7-20-43.6-47.4-52.2-79.7
	c-3.6-13.7-6.9-27.5-10.1-41.4c-7.9-34.4-22.7-45.4-57.5-42.5c0.2-4.6,2.8-6.2,7-7.1c19.6-4.1,37.6,5,45.8,23.9
	c6.8,15.6,8,32.6,12.7,48.8c5.6,19.5,9.7,39.6,22.1,56.5c9.4,12.8,20.4,23.9,33.2,33.4c32.7,24.3,55,55.9,64.7,95.8
	C260.5,483,260.5,486.2,260.9,489.4z"/>
<path class="st3" d="M531.6,400.5c9.6-9.5,13.3-22.3,19.5-33.8c2.7-4.9,1.8-11.7,7.6-15c-0.4,30.5,1.2,61.3-15.4,91.6
	C541.9,426.9,537.4,413.5,531.6,400.5z"/>
<path class="st2" d="M881.3,282.4c5.3-16.7,1.2-23.4-16.2-26.6c-13.4-2.5-13.4-2.5-16.4-17.4c2.7-0.6,5.2,0.2,7.9,0.9
	c13.1,3.3,25.4,8.5,36.1,16.9c0,0-0.2-0.1-0.2-0.1c0.6,0.5,1.1,1,1.7,1.5c3.6,8.9,1.2,17.3-2.1,25.5c-6.3,15.8-16.4,29.3-27.3,43.6
	c-1.8-5.4-0.9-10-1-14.5c4.8-2.4,7.2-7,10-11.1C877.6,295.3,882.2,290,881.3,282.4z"/>
<path class="st2" d="M567.7,399.5c19.5,10.1,39.9,18,61.2,23.4c2,0.5,4.3,0.6,5.7,2.6c-16.5,9.9-48,7.8-62.7-4c-2-1.6-3.6-4-6.5-4.3
	C564.6,411.1,567,405.4,567.7,399.5z"/>
<path class="st4" d="M495.8,657.3c-0.6-4.9-2.1-9.8-1-15.6c20.9,13.7,43.6,20.7,68,23.4c-12.1,6.3-24.8,11.1-37.9,14.7
	C516.4,670.8,505.7,664.6,495.8,657.3z"/>
<path class="st2" d="M656,100.9c-5.9,2.5-10.8,2.1-15.9-2.6c-14.5-13.1-22-12.7-33.3,2.9c-5.7,7.9-13.6,6.8-21.2,8.7
	c9.3-12.7,16.6-27.2,31.9-34.1C634.6,77.5,646.8,87,656,100.9z"/>
<path class="st5" d="M542.8,188.4c-2.4,0.4-4-1.2-5.7-2.4c-17.9-12.7-38.2-17.9-59.8-18.8c-22.8-0.9-44.7-5.3-65.1-15.7
	c-3.2-1.6-6.4-2.7-10-2.7c5.2-2.8,9.8-2.1,15.5,0.1c15.9,6.1,32.3,10.9,49.6,10.5c7.5,2.3,15,1.5,22.6,0.8
	c14.7,4.5,29.9,7.7,42.3,18C536.1,181.4,539.6,184.7,542.8,188.4z"/>
<path class="st1" d="M442.5,689.1c2.2-4.9,7.8-5.3,11.4-8.3c10.5-8.4,20.4-17.3,27.2-29.2c0.6-1.1,1.9-1.7,2.9-2.6
	c2.4,11.1,1.9,22.4,2.5,33.7c0.2,4.7-1.3,6.5-6.3,6.9C467.6,690.4,455.1,691,442.5,689.1z"/>
<path class="st2" d="M579.4,608.8c-1.6-11.1-3.1-22.3-4.7-33.4c1.2-1,2.4-2,3.5-3c6,0.3,11.9,0.6,17.9,0.9c1,8.4,1.8,16.9,3.2,25.3
	c1.2,7.2-2.5,9.7-8.7,10.1C586.9,609,583.2,608.8,579.4,608.8z"/>
<path class="st2" d="M668.6,565.3c2.4,12.3-7.4,26.2-20.2,28.7c-4.6,0.9-4.3-1.6-3.3-4.6c2.2-6.7,2.6-13.6,2.4-20.5
	C654.5,567.2,661.4,565.6,668.6,565.3z"/>
<path class="st2" d="M495.8,657.3c9.9,7.3,20.6,13.4,29.1,22.5c-7.4,2.1-14.8,4.2-22.2,6.3c-4.2,1.2-6.4,0.2-6.3-4.9
	C496.5,673.3,496.1,665.3,495.8,657.3z"/>
<path class="st5" d="M487.7,221.1c4-0.3,6.4,0.4,7.6,2.8c1.2,2.4,0.6,4.8-1.2,6.7c-6.3,6.9-14.2,11.4-23.1,13.9
	c-2.4,0.7-4.9,0.1-6.5-2.1c-1.6-2.3-1.3-4.8,0.3-6.7C471.1,227.8,479.7,223.7,487.7,221.1z"/>
<path class="st2" d="M862.1,293.9c-1.9-9.7-3.5-18.1-5.3-26.4c-0.8-3.9,0.5-5,4.1-4c3.4,0.9,6.8,1.5,10,2.7c3.9,1.5,5.1,4.6,3.7,8.5
	C872.1,281.7,867.9,287.7,862.1,293.9z"/>
<path class="st5" d="M892.6,256.1c-10.7-8.4-23-13.6-36.1-16.9c-2.6-0.7-5.1-1.5-7.9-0.9c-1.7-2.1-2.8-4.5-3.5-8.1
	c15.5,3.6,30.4,7,42.3,17.6C889.9,250,893.1,252,892.6,256.1z"/>
<path class="st5" d="M656,100.9c-9.2-13.9-21.4-23.4-38.6-25.1c5-3.3,10.2-2.6,15.2-0.5c13.1,5.5,22.1,15.8,31.3,26
	C660.4,104.4,658.4,101.5,656,100.9z"/>
<path class="st2" d="M529.9,429.2c-6-12.3-10.6-25.3-18.1-36.9c-3.3-5.1-7-8.6-13.4-8.6c-1.1-1.3-2.2-3.1,0.4-3.5
	c3.7-0.6,8-0.8,10.4,2.7C518.9,397.1,528,411.6,529.9,429.2z"/>
<path class="st5" d="M881.3,282.4c1,7.6-3.7,13-7.5,18.6c-2.8,4.1-5.2,8.7-10,11.1c-0.8-3.6,0.4-6.4,2.7-9.3
	C871.7,296.2,876.4,289.2,881.3,282.4z"/>
<path class="st2" d="M488.1,383.7c-5.4,2.5-9.2-3.1-14.1-3c-0.8-4.5,2.4-4,4.8-3.4C482.5,378.4,486.3,379.7,488.1,383.7z"/>
<path class="st2" d="M616.3,104.5c5.1-8.3,7.4-8.6,14.6-1.9C626.1,104.7,621.3,104.7,616.3,104.5z"/>
<path class="st2" d="M85.5,204.5c0.7,0.7,1.5,1.4,2.2,2.2c2,4.3,7.1,1.8,9.8,4.6c-5,0-10,0-15,0C82.3,208,83.9,206.3,85.5,204.5z"/>
<path class="st2" d="M489.9,160.2c-7.6,0.7-15.2,1.6-22.6-0.8C474.8,159.6,482.4,158.5,489.9,160.2z"/>
<path class="st4" d="M578.3,572.4c-1.2,1-2.4,2-3.5,3c-0.6-1.1-1.2-2.1-1.8-3.2C574.7,572.3,576.5,572.3,578.3,572.4z"/>
<path class="st5" d="M552.6,199.7c-2.1-1-3.5-2.4-3.4-4.9C551.2,195.9,552.5,197.4,552.6,199.7z"/>
<path class="st3" d="M559.9,344.7c-0.9-1-0.6-1.9,0.4-2.8C560.7,343,560.6,343.9,559.9,344.7z"/>
<path class="st2" d="M103.9,212.5l0.3-0.4c0,0,0,0.5,0,0.5C104.2,212.6,103.9,212.5,103.9,212.5z"/>
<path class="st5" d="M555.6,203.8c-0.5-0.9-1-1.7-1.6-2.6C554.6,202.1,555.1,203,555.6,203.8z"/>
<path class="st2" d="M87.2,201.2c0.3,1,0.6,2-1,2.2C86.6,202.7,86.9,201.9,87.2,201.2z"/>
<path class="st2" d="M89.1,197.9c0.3,1.2,0.1,2.1-1.3,2.4C88.3,199.5,88.7,198.7,89.1,197.9z"/>
<path class="st2" d="M572.4,213.4c-0.1-0.6-0.1-1.2-0.2-1.8c0.6,0.1,1.2,0.3,1.7,0.4C573.4,212.4,572.9,212.9,572.4,213.4z"/>
<path class="st5" d="M817.2,206c-0.7-0.5-1.4-1-2.1-1.5C815.8,205,816.5,205.5,817.2,206z"/>
<path class="st3" d="M249.7,427.5c0.7,0,1.1,0.3,0.6,1c0,0-0.7-0.3-0.7-0.3L249.7,427.5z"/>
<path class="st5" d="M554.1,201.3c-0.6-0.6-1.1-1.1-1.7-1.7C553.7,199.5,553.9,200.4,554.1,201.3z"/>
<path class="st4" d="M743.6,545.7c0.5,0,1.1-0.1,1.6-0.1c-0.3,0.3-0.5,0.6-0.8,1C744.2,546.2,743.9,546,743.6,545.7z"/>
<path class="st5" d="M549.3,194.9c-1.2,0.1-1.7-0.6-1.7-1.7C549,192.9,549.3,193.7,549.3,194.9z"/>
<path class="st5" d="M547.7,193.2c-1.2,0-1.8-0.5-1.7-1.7C547.5,191.2,547.9,191.9,547.7,193.2z"/>
<path class="st5" d="M546.1,191.6c-1.2,0.1-1.8-0.4-1.8-1.6C545.2,190.2,546.4,190.1,546.1,191.6z"/>
<path class="st5" d="M544.4,190.1c-1.2,0.1-1.8-0.5-1.7-1.7C543.8,188.4,544.3,189,544.4,190.1z"/>
<path class="st5" d="M894.1,257.5c-0.6-0.5-1.1-1-1.7-1.5C894,255.3,893.8,256.7,894.1,257.5z"/>
<path class="st0" d="M299.2,247.8c10.2,0.3,18.4,2.4,26.2,6.3c2,1,4.2,2.1,3.3,4.7c-0.9,2.8-3.4,2-5.5,1.6c-8-1.3-16-1.7-24.1-0.6
	c-19.7,2.7-30.6,15.1-30.5,34.9c0,5.1,1,10.1,1.5,15.2c0.2,2,1.2,4.5-1.5,5.6c-2.7,1.1-3.8-1.2-4.8-3.1c-7.4-14.7-9.8-29.8-1.3-44.7
	C270.8,253.3,284.6,248.2,299.2,247.8z"/>
<path class="st0" d="M669.7,323.7c-7,6.1-15.4,2.5-23.1,2.9c-9.4,0.5-16.9,6.9-17.8,16.8c-0.8,9.1,5.7,17.3,14.9,19.1
	c7.4,1.4,13.7-1,19.7-5.1c1-0.7,2-1.9,3.9-0.8c0.3,3.3-1.6,6.1-3.8,8.1c-14.5,13.1-28.1,27.4-46,36c-6.3,3-13,4.9-20.2,3.2
	c-17-4-26.4-19.7-21.5-36.8c2.2-7.7,5-15.2,7.7-22.8c2.5-7.1,5.1-14,5.7-21.7c0.5-6.4,4.1-11.3,9.8-14.8c1.5,4.2-1.3,7.1-1.7,10.4
	c-0.9,7.1,2.6,14.9,8.7,17.4c6.8,2.8,11.6-0.3,16.3-5.2c6.7-7,10-14.4,7.3-24.3c-1.4-5.1-1.5-10.6-2.1-15.9
	c3.2-2.5,6.9-2.9,10.6-1.6c13.8,5.1,24.2,14.2,30.9,27.3C670,318.3,670.5,320.9,669.7,323.7z M603.1,393.9c10.2-0.2,13-4.9,8.1-13.7
	c-3.9-7.1-10.2-10.7-18.1-11.7c-5.5-0.7-7.8,1.8-7.9,7.3C584.9,386.3,592.4,394.1,603.1,393.9z M640.7,300.2
	c-0.5,3.2,1.5,5.2,3.4,6.9c3.1,2.8,8,8.1,10.4,5.2c3.4-4.1-3.3-6.5-6.1-9.2C646.4,301.3,644.3,298.5,640.7,300.2z"/>
<path class="st0" d="M776.6,397.4c0-9.1,0.1-16.5,0-23.9c-0.3-17.9-6.4-26-23.9-30c-10.6-2.4-21.5-3.7-32.3-5.5
	c0.4-3.2,3-2.9,4.9-3.5c12.3-3.6,24.8-4.4,37.2-1.2c17.2,4.4,26.6,17.5,25.1,35.1C786.8,378.6,783.8,388.1,776.6,397.4z"/>
<path class="st3" d="M603.1,393.9c-10.7,0.2-18.2-7.6-17.9-18.2c0.1-5.4,2.4-8,7.9-7.3c7.9,1,14.2,4.7,18.1,11.7
	C616.1,389.1,613.3,393.8,603.1,393.9z"/>
<path class="st5" d="M640.7,300.2c3.6-1.6,5.6,1.1,7.6,2.9c2.9,2.6,9.5,5.1,6.1,9.2c-2.4,2.9-7.3-2.4-10.4-5.2
	C642.2,305.3,640.2,303.3,640.7,300.2z"/>
</svg>
